<svg xmlns="http://www.w3.org/2000/svg" viewBox="0 0 128 128" width="128" height="128">
  <!-- Original art for Bubbles (MIT). Flat banana. -->
  <path d="M28 30 C24 66 44 100 84 108 C98 111 110 108 114 100 C106 102 94 102 84 98 C52 88 36 60 38 30 C38 24 34 22 32 24 C30 26 28 28 28 30 Z" fill="#f7c832"/>
  <path d="M84 108 C98 111 110 108 114 100 C110 106 100 108 90 105 Z" fill="#dda916"/>
  <path d="M38 34 C38 62 54 88 82 98 C58 92 40 68 38 40 Z" fill="#ffe066" opacity="0.8"/>
  <rect x="27" y="20" width="10" height="10" rx="3" fill="#7a4a21"/>
  <path d="M108 104 C112 104 115 102 116 99 L119 104 C116 107 112 108 108 107 Z" fill="#5c4018"/>
</svg>
