<svg xmlns="http://www.w3.org/2000/svg" viewBox="0 0 128 128" width="128" height="128">
  <!-- Original art for Bubbles (MIT). Flat broccoli (−7 item). -->
  <path d="M56 74 L52 108 C52 114 58 118 64 118 C70 118 76 114 76 108 L72 74 Z" fill="#9dbf5e"/>
  <path d="M56 74 L52 108 C52 112 55 115 59 117 C57 104 58 88 61 74 Z" fill="#83a648"/>
  <g fill="#3e7d3a">
    <circle cx="40" cy="52" r="18"/>
    <circle cx="64" cy="40" r="20"/>
    <circle cx="88" cy="52" r="18"/>
    <circle cx="50" cy="68" r="15"/>
    <circle cx="78" cy="68" r="15"/>
    <circle cx="64" cy="60" r="16"/>
  </g>
  <g fill="#4f9a48">
    <circle cx="40" cy="52" r="12"/>
    <circle cx="64" cy="40" r="14"/>
    <circle cx="88" cy="52" r="12"/>
    <circle cx="50" cy="68" r="10"/>
    <circle cx="78" cy="68" r="10"/>
    <circle cx="64" cy="60" r="11"/>
  </g>
  <g fill="#67b25c" opacity="0.8">
    <circle cx="44" cy="48" r="4"/><circle cx="60" cy="38" r="4"/><circle cx="72" cy="44" r="4"/>
    <circle cx="86" cy="50" r="4"/><circle cx="54" cy="62" r="4"/><circle cx="70" cy="64" r="4"/>
  </g>
</svg>
