<svg xmlns="http://www.w3.org/2000/svg" viewBox="0 0 64 64" width="64" height="64">
  <!-- Original art for Bubbles (MIT). Blackberry favicon, drawn to fill the box. -->
  <g transform="translate(-13.1,-9.9) scale(0.703)">
    <g fill="#4b2a6b">
      <circle cx="46" cy="52" r="13"/>
      <circle cx="64" cy="46" r="13"/>
      <circle cx="82" cy="52" r="13"/>
      <circle cx="38" cy="72" r="13"/>
      <circle cx="58" cy="70" r="13"/>
      <circle cx="78" cy="70" r="13"/>
      <circle cx="90" cy="72" r="11"/>
      <circle cx="48" cy="90" r="13"/>
      <circle cx="68" cy="92" r="13"/>
      <circle cx="82" cy="88" r="11"/>
    </g>
    <g fill="#6b3f94">
      <circle cx="46" cy="52" r="9"/>
      <circle cx="64" cy="46" r="9"/>
      <circle cx="82" cy="52" r="9"/>
      <circle cx="38" cy="72" r="9"/>
      <circle cx="58" cy="70" r="9"/>
      <circle cx="78" cy="70" r="9"/>
      <circle cx="48" cy="90" r="9"/>
      <circle cx="68" cy="92" r="9"/>
    </g>
    <circle cx="60" cy="56" r="5" fill="#ffffff" opacity="0.35"/>
    <circle cx="44" cy="76" r="4" fill="#ffffff" opacity="0.25"/>
    <path d="M62 20 C58 26 58 32 64 38 C70 32 70 26 66 20 Z" fill="#57b25e"/>
    <path d="M64 38 C54 30 44 30 36 36 C46 44 56 44 64 38 Z" fill="#3e9b4f"/>
    <path d="M64 38 C74 30 84 30 92 36 C82 44 72 44 64 38 Z" fill="#3e9b4f"/>
  </g>
</svg>
