<svg xmlns="http://www.w3.org/2000/svg" viewBox="0 0 128 128" width="128" height="128">
  <!-- Original art for Bubbles (MIT). Flat orange. -->
  <circle cx="64" cy="72" r="46" fill="#f5941e"/>
  <path d="M64 118 A46 46 0 0 1 22 46 A46 46 0 0 0 64 118 Z" fill="#dd7d0c"/>
  <g fill="#c96f08" opacity="0.55">
    <circle cx="48" cy="62" r="2.2"/><circle cx="66" cy="54" r="2.2"/><circle cx="84" cy="66" r="2.2"/>
    <circle cx="54" cy="86" r="2.2"/><circle cx="76" cy="90" r="2.2"/><circle cx="90" cy="80" r="2.2"/>
  </g>
  <ellipse cx="64" cy="26" rx="5" ry="7" fill="#7a4a21"/>
  <path d="M66 28 C76 16 88 14 98 20 C90 30 78 34 66 28 Z" fill="#57b25e"/>
  <circle cx="46" cy="56" r="7" fill="#ffffff" opacity="0.35"/>
</svg>
