<svg xmlns="http://www.w3.org/2000/svg" viewBox="0 0 128 128" width="128" height="128">
  <!-- Original art for Bubbles (MIT). Flat strawberry. -->
  <path d="M64 118 C36 108 22 84 22 62 C22 44 40 34 64 34 C88 34 106 44 106 62 C106 84 92 108 64 118 Z" fill="#e8384f"/>
  <path d="M64 118 C36 108 22 84 22 62 C22 50 30 42 42 38 C34 46 32 56 34 66 C38 90 50 106 64 118 Z" fill="#c92640"/>
  <g fill="#ffd9df">
    <ellipse cx="46" cy="60" rx="3.4" ry="4.6"/>
    <ellipse cx="64" cy="56" rx="3.4" ry="4.6"/>
    <ellipse cx="82" cy="60" rx="3.4" ry="4.6"/>
    <ellipse cx="54" cy="78" rx="3.4" ry="4.6"/>
    <ellipse cx="74" cy="78" rx="3.4" ry="4.6"/>
    <ellipse cx="64" cy="96" rx="3.4" ry="4.6"/>
  </g>
  <path d="M64 14 C60 22 60 28 64 34 C68 28 68 22 64 14 Z" fill="#3e9b4f"/>
  <path d="M64 34 C50 26 38 26 30 32 C40 40 52 42 64 34 Z" fill="#57b25e"/>
  <path d="M64 34 C78 26 90 26 98 32 C88 40 76 42 64 34 Z" fill="#57b25e"/>
  <circle cx="48" cy="50" r="6" fill="#ffffff" opacity="0.35"/>
</svg>
