<svg xmlns="http://www.w3.org/2000/svg" viewBox="0 0 128 128" width="128" height="128">
  <!-- Original art for Bubbles (MIT). Watermelon slice, flat side up. -->
  <path d="M12 46 A52 52 0 0 0 116 46 Z" fill="#2f8f46"/>
  <path d="M17 46 A47 47 0 0 0 111 46 Z" fill="#eaf5d3"/>
  <path d="M22 46 A42 42 0 0 0 106 46 Z" fill="#f04f58"/>
  <g fill="#332222">
    <ellipse cx="46" cy="60" rx="3" ry="4.4" transform="rotate(14 46 60)"/>
    <ellipse cx="82" cy="60" rx="3" ry="4.4" transform="rotate(-14 82 60)"/>
    <ellipse cx="64" cy="72" rx="3" ry="4.4"/>
    <ellipse cx="52" cy="80" rx="3" ry="4.4" transform="rotate(20 52 80)"/>
    <ellipse cx="76" cy="80" rx="3" ry="4.4" transform="rotate(-20 76 80)"/>
    <ellipse cx="64" cy="52" rx="3" ry="4.4"/>
  </g>
</svg>
