<?xml version="1.0" encoding="utf-8"?>
<!-- Generator: Adobe Illustrator 16.0.0, SVG Export Plug-In . SVG Version: 6.00 Build 0)  -->
<!DOCTYPE svg PUBLIC "-//W3C//DTD SVG 1.1//EN" "http://www.w3.org/Graphics/SVG/1.1/DTD/svg11.dtd">
<svg version="1.1" id="{$id}"
   class="botellanaranja fruta my_center"
	 xmlns="http://www.w3.org/2000/svg" xmlns:xlink="http://www.w3.org/1999/xlink" x="0px" y="0px" width="72.404px"
	 height="170.079px" viewBox="0 0 72.404 170.079" enable-background="new 0 0 72.404 170.079" xml:space="preserve">
<g>
	<path fill="#F2CF35" d="M35.884,1.382c0.045,0,0.091,0,0.136,0c0.189,0.05,0.394,0.048,0.571,0.139
		c0.242,0.122,0.491,0.156,0.764,0.167c0.672,0.025,1.346,0.031,2.015,0.126c0.427,0.06,0.86,0.066,1.29,0.108
		c0.73,0.073,1.462,0.143,2.179,0.318c0.514,0.126,1.021,0.259,1.502,0.49c0.476,0.23,0.853,0.572,1.188,0.969
		c0.033,0.041,0.063,0.09,0.075,0.14c0.073,0.317,0.196,0.623,0.226,0.95c0.015,0.16,0.054,0.31,0.131,0.453
		c0.071,0.134,0.103,0.283,0.113,0.438c0.021,0.323,0.035,0.65,0.071,0.973c0.093,0.829,0.188,1.656,0.118,2.492
		c-0.024,0.295-0.036,0.59-0.058,0.884c-0.014,0.178,0.01,0.345,0.089,0.509c0.079,0.163,0.135,0.338,0.164,0.518
		c0.059,0.352,0.057,0.697-0.154,1.007c-0.078,0.114-0.085,0.237-0.069,0.37c0.054,0.458,0.106,0.919,0.096,1.379
		c-0.007,0.236,0.064,0.372,0.261,0.473c0.215,0.108,0.381,0.276,0.513,0.473c0.101,0.151,0.197,0.338,0.089,0.509
		c-0.166,0.263-0.37,0.501-0.681,0.61c-0.144,0.05-0.286,0.102-0.433,0.142c-0.38,0.103-0.763,0.196-1.144,0.296
		c-0.214,0.057-0.243,0.099-0.193,0.304c0.091,0.375,0.133,0.761,0.254,1.129c0.013,0.042,0.022,0.093,0.012,0.135
		c-0.046,0.187-0.021,0.378-0.046,0.565c-0.02,0.141,0.021,0.247,0.122,0.345c0.198,0.189,0.374,0.4,0.512,0.637
		c0.191,0.328,0.395,0.645,0.648,0.929c0.121,0.135,0.21,0.294,0.294,0.456c0.111,0.215,0.217,0.436,0.39,0.61
		c0.107,0.108,0.199,0.228,0.289,0.351c0.109,0.149,0.242,0.264,0.434,0.307c0.32,0.073,0.513,0.276,0.57,0.604
		c0.021,0.111,0.043,0.221,0.119,0.314c0.114,0.141,0.219,0.29,0.336,0.43c0.375,0.444,0.771,0.874,1.103,1.353
		c0.229,0.331,0.562,0.567,0.771,0.918c0.188,0.318,0.431,0.604,0.649,0.903c0.156,0.215,0.311,0.43,0.519,0.6
		c0.071,0.059,0.128,0.135,0.152,0.224c0.062,0.233,0.212,0.416,0.34,0.611c0.11,0.171,0.25,0.299,0.437,0.383
		c0.244,0.11,0.457,0.269,0.642,0.462c0.304,0.323,0.427,0.697,0.308,1.129c-0.049,0.176-0.021,0.318,0.065,0.473
		c0.496,0.896,0.998,1.786,1.449,2.705c0.084,0.169,0.163,0.339,0.236,0.512c0.149,0.356,0.273,0.725,0.504,1.041
		c0.047,0.062,0.068,0.137,0.076,0.212c0.014,0.123,0.059,0.234,0.102,0.348c0.263,0.679,0.529,1.355,0.783,2.037
		c0.178,0.475,0.346,0.955,0.503,1.437c0.159,0.487,0.346,0.966,0.441,1.473c0.061,0.328,0.165,0.646,0.238,0.972
		c0.061,0.27,0.159,0.512,0.334,0.734c0.272,0.348,0.367,0.743,0.201,1.175c-0.061,0.153-0.057,0.312-0.031,0.471
		c0.051,0.322,0.095,0.645,0.148,0.966c0.288,1.738,0.411,3.489,0.422,5.248c0.012,1.78,0.004,3.561-0.044,5.341
		c-0.006,0.234-0.016,0.469-0.032,0.702c-0.024,0.323-0.063,0.648,0.11,0.954c0.101,0.177,0.065,0.377-0.049,0.541
		c-0.123,0.178-0.144,0.36-0.097,0.562c0.021,0.084,0.009,0.163-0.019,0.244c-0.022,0.064-0.041,0.132-0.046,0.198
		c-0.047,0.627-0.091,1.254-0.135,1.881c-0.009,0.115-0.006,0.228,0.029,0.338c0.062,0.191,0.038,0.376-0.045,0.553
		c-0.047,0.099-0.068,0.2-0.078,0.307c-0.069,0.762-0.152,1.522-0.211,2.285c-0.032,0.422-0.127,0.839-0.072,1.267
		c0.004,0.029,0,0.062-0.01,0.089c-0.104,0.321-0.094,0.656-0.123,0.987c-0.007,0.082-0.004,0.168-0.037,0.246
		c-0.054,0.127-0.066,0.264-0.085,0.397c-0.102,0.788-0.184,1.578-0.319,2.361c-0.195,1.119-0.35,2.245-0.522,3.369
		c-0.204,1.333-0.494,2.651-0.729,3.979c-0.119,0.671-0.309,1.328-0.355,2.013c-0.004,0.044-0.017,0.089-0.034,0.131
		c-0.087,0.202-0.119,0.423-0.188,0.631c-0.059,0.172-0.03,0.318,0.071,0.471c0.35,0.521,0.453,1.104,0.374,1.716
		c-0.073,0.562-0.344,0.986-0.928,1.136c-0.172,0.044-0.221,0.156-0.246,0.311c-0.126,0.77-0.263,1.539-0.384,2.308
		c-0.156,0.997-0.272,1.996-0.348,3.002c-0.053,0.702-0.106,1.404-0.144,2.108c-0.041,0.786-0.083,1.571-0.075,2.36
		c0.001,0.132,0.018,0.256,0.078,0.374c0.073,0.145,0.075,0.292-0.001,0.438c-0.066,0.124-0.085,0.257-0.077,0.396
		c0.01,0.174,0.02,0.348,0.029,0.521c0.018,0.314,0.143,0.623,0.035,0.942c-0.007,0.02,0.001,0.045,0.002,0.067
		c0.051,0.733,0.103,1.466,0.152,2.199c0.094,1.384,0.279,2.757,0.446,4.133c0.056,0.459,0.138,0.916,0.182,1.372
		c0.09,0.958,0.212,1.911,0.316,2.866c0.129,1.173,0.334,2.339,0.507,3.508c0.252,1.702,0.514,3.401,0.74,5.105
		c0.018,0.133,0.066,0.247,0.138,0.356c0.115,0.179,0.236,0.354,0.336,0.54c0.218,0.408,0.27,0.819-0.022,1.221
		c-0.077,0.105-0.094,0.218-0.074,0.344c0.035,0.232,0.071,0.465,0.099,0.697c0.021,0.178,0.073,0.334,0.199,0.471
		c0.115,0.123,0.163,0.279,0.076,0.44c-0.093,0.173-0.081,0.352-0.055,0.531c0.175,1.192,0.353,2.384,0.524,3.576
		c0.03,0.208,0.103,0.385,0.229,0.557c0.427,0.58,0.547,1.208,0.223,1.88c-0.065,0.135-0.077,0.271-0.058,0.419
		c0.069,0.556,0.146,1.112,0.193,1.67c0.12,1.418,0.27,2.834,0.36,4.254c0.046,0.726,0.105,1.45,0.142,2.177
		c0.04,0.823,0.071,1.648,0.087,2.474c0.021,1.121,0.016,2.242,0.045,3.364c0.008,0.33,0.041,0.636,0.195,0.94
		c0.251,0.494,0.244,0.993-0.09,1.462c-0.064,0.09-0.093,0.188-0.093,0.298c-0.002,0.658-0.004,1.317-0.007,1.977
		c0,0.11,0.029,0.207,0.097,0.296c0.435,0.587,0.602,1.248,0.547,1.971c-0.03,0.394-0.21,0.695-0.589,0.843
		c-0.165,0.064-0.229,0.165-0.242,0.338c-0.048,0.627-0.115,1.253-0.162,1.879c-0.018,0.233-0.082,0.468-0.044,0.701
		c0.032,0.197-0.028,0.393,0.018,0.588c0.013,0.052-0.014,0.104-0.046,0.148c-0.031,0.043-0.054,0.091-0.065,0.144
		c-0.081,0.387-0.143,0.774-0.082,1.17c0.016,0.104,0.001,0.195-0.062,0.279c-0.062,0.081-0.074,0.178-0.088,0.278
		c-0.042,0.329-0.071,0.663-0.144,0.986c-0.081,0.363-0.127,0.73-0.165,1.1c-0.015,0.15-0.004,0.313-0.062,0.446
		c-0.111,0.251-0.129,0.525-0.196,0.785c-0.108,0.411-0.232,0.832-0.222,1.271c0,0.036-0.015,0.073-0.028,0.108
		c-0.117,0.312-0.175,0.643-0.256,0.966c-0.023,0.097-0.023,0.194,0.001,0.292c0.029,0.117-0.003,0.225-0.051,0.33
		c-0.234,0.504-0.417,1.021-0.477,1.577c-0.009,0.086-0.043,0.159-0.078,0.234c-0.095,0.2-0.166,0.408-0.186,0.629
		c-0.008,0.099-0.028,0.195-0.063,0.289c-0.12,0.316-0.215,0.647-0.452,0.909c-0.04,0.043-0.062,0.103-0.09,0.157
		c-0.204,0.389-0.394,0.786-0.614,1.166c-0.279,0.48-0.512,0.991-0.974,1.353c-0.588,0.463-1.198,0.876-1.9,1.141
		c-0.128,0.049-0.25,0.106-0.37,0.174c-0.511,0.286-1.037,0.54-1.626,0.615c-0.933,0.12-1.857,0.083-2.768-0.173
		c-0.124-0.035-0.248-0.068-0.381-0.059c-0.107,0.008-0.213-0.013-0.306-0.067c-0.127-0.074-0.267-0.107-0.407-0.138
		c-0.616-0.132-1.219-0.311-1.819-0.497c-0.753-0.233-1.497-0.49-2.22-0.809c-0.257-0.111-0.521-0.202-0.802-0.244
		c-0.166-0.025-0.289,0.024-0.413,0.131c-0.249,0.217-0.396,0.496-0.521,0.79c-0.196,0.464-0.467,0.881-0.748,1.298
		c-0.175,0.257-0.363,0.476-0.666,0.586c-0.119,0.043-0.22,0.133-0.332,0.197c-0.084,0.049-0.169,0.103-0.261,0.135
		c-0.446,0.158-0.902,0.262-1.381,0.198c-0.46-0.059-0.922-0.059-1.384-0.056c-0.689,0.003-1.378,0.006-2.067,0.012
		c-0.136,0-0.273,0.008-0.408,0.024c-0.264,0.035-0.525,0.067-0.786-0.026c-0.077-0.027-0.164-0.035-0.246-0.037
		c-0.506-0.021-0.936-0.236-1.337-0.52c-0.111-0.078-0.257-0.115-0.337-0.228c-0.2-0.284-0.443-0.539-0.601-0.854
		c-0.055-0.11-0.131-0.202-0.239-0.267c-0.208-0.124-0.318-0.317-0.384-0.543c-0.041-0.139-0.057-0.281-0.075-0.425
		c-0.015-0.113-0.081-0.186-0.199-0.17c-0.255,0.03-0.513,0.049-0.748,0.172c-0.053,0.027-0.107,0.057-0.165,0.072
		c-0.533,0.146-1.062,0.302-1.569,0.526c-0.091,0.04-0.186,0.068-0.284,0.074c-0.146,0.008-0.283,0.047-0.412,0.115
		c-0.053,0.029-0.112,0.054-0.171,0.059c-0.387,0.042-0.757,0.155-1.131,0.249c-1.527,0.383-3.075,0.387-4.63,0.257
		c-0.299-0.025-0.574-0.123-0.832-0.282c-0.464-0.287-0.927-0.575-1.379-0.879c-0.102-0.07-0.204-0.133-0.331-0.138
		c-0.129-0.004-0.207-0.072-0.254-0.19c-0.045-0.112-0.087-0.227-0.162-0.324c-0.221-0.291-0.421-0.595-0.584-0.92
		c-0.163-0.326-0.447-0.591-0.479-0.98c-0.001-0.014-0.012-0.026-0.019-0.041c-0.345-0.752-0.628-1.527-0.874-2.315
		c-0.418-1.348-0.743-2.719-1.025-4.1c-0.131-0.643-0.31-1.276-0.367-1.936c-0.042-0.475-0.124-0.945-0.185-1.418
		c-0.013-0.1-0.034-0.194-0.097-0.275c-0.104-0.136-0.124-0.29-0.093-0.454c0.024-0.127,0.022-0.255,0.008-0.384
		c-0.048-0.437-0.097-0.872-0.141-1.31c-0.083-0.807-0.143-1.614-0.2-2.422c-0.058-0.809-0.098-1.618-0.109-2.429
		c-0.02-1.433-0.006-2.863-0.003-4.296c0-0.166,0.017-0.332,0.022-0.498c0.013-0.425,0.033-0.848,0.007-1.272
		c-0.011-0.195-0.018-0.394,0.003-0.588c0.012-0.105,0.03-0.204-0.007-0.309c-0.051-0.14-0.05-0.284,0.003-0.423
		c0.061-0.156,0.059-0.31,0.003-0.466c-0.034-0.096-0.045-0.194-0.008-0.289c0.093-0.24,0.075-0.479-0.004-0.714
		c-0.094-0.28-0.015-0.569-0.059-0.852c-0.003-0.022,0.004-0.046,0.013-0.067c0.1-0.238,0.132-0.473,0.107-0.744
		c-0.029-0.309,0.053-0.627,0.004-0.943c-0.01-0.068,0.011-0.136,0.036-0.2c0.063-0.162,0.069-0.323,0.01-0.488
		c-0.028-0.08-0.049-0.163-0.02-0.244c0.086-0.236-0.017-0.386-0.203-0.52c-0.32-0.23-0.487-0.551-0.519-0.944
		c-0.016-0.208,0.01-0.409,0.067-0.607c0.126-0.436,0.34-0.825,0.635-1.168c0.191-0.226,0.308-0.468,0.33-0.775
		c0.032-0.439-0.055-0.891,0.106-1.32c0.018-0.048,0.015-0.106,0.009-0.159c-0.03-0.294,0.01-0.575,0.064-0.867
		c0.059-0.315,0.079-0.644,0.136-0.964c0.006-0.036,0.014-0.078,0.004-0.112c-0.091-0.318,0.116-0.623,0.042-0.941
		c-0.012-0.051,0.029-0.116,0.057-0.169c0.058-0.107,0.07-0.212,0.02-0.327c-0.085-0.195-0.063-0.385,0.049-0.563
		c0.071-0.112,0.103-0.232,0.126-0.36c0.084-0.471,0.111-0.948,0.184-1.42c0.012-0.081,0.031-0.171-0.009-0.246
		c-0.119-0.231-0.048-0.443,0.056-0.652c0.069-0.137,0.115-0.278,0.135-0.431c0.064-0.473,0.19-0.936,0.191-1.417
		c0-0.059,0.024-0.118,0.036-0.178c0.062-0.303,0.141-0.604,0.11-0.92c-0.006-0.062,0.002-0.123,0.03-0.178
		c0.081-0.15,0.119-0.321,0.109-0.482c-0.017-0.284,0.035-0.548,0.103-0.82c0.048-0.193,0.05-0.401,0.089-0.603
		c0.075-0.386,0.127-0.775,0.195-1.162c0.025-0.143,0.049-0.282,0.018-0.427c-0.022-0.106-0.006-0.213,0.041-0.312
		c0.087-0.182,0.11-0.377,0.119-0.574c0.011-0.241,0-0.484,0.078-0.721c0.018-0.054,0.011-0.12,0.001-0.179
		c-0.028-0.159,0.003-0.303,0.089-0.434c0.068-0.104,0.096-0.221,0.115-0.341c0.077-0.472,0.098-0.948,0.179-1.419
		c0.08-0.47,0.124-0.945,0.178-1.42c0.05-0.441,0.138-0.881,0.206-1.322c0.169-1.1,0.286-2.207,0.426-3.312
		c0.021-0.171-0.011-0.318-0.105-0.473c-0.231-0.371-0.322-0.78-0.254-1.219c0.077-0.494,0.298-0.92,0.62-1.294
		c0.104-0.122,0.172-0.246,0.186-0.402c0.006-0.068,0.009-0.137,0.02-0.204c0.055-0.35,0.032-0.707,0.143-1.054
		c0.063-0.198,0.105-0.428,0.07-0.627c-0.046-0.261-0.028-0.507,0.01-0.758c0.003-0.016,0-0.031,0.002-0.047
		c0.033-0.192,0.022-0.397,0.113-0.576c0.119-0.233,0.136-0.478,0.098-0.729c-0.012-0.084-0.02-0.165,0.004-0.247
		c0.085-0.311,0.108-0.629,0.104-0.945c-0.004-0.243-0.022-0.48,0.067-0.715c0.031-0.081,0.017-0.181,0.02-0.271
		c0.015-0.544,0.001-1.089,0.037-1.635c0.021-0.329,0.054-0.666-0.053-0.992c-0.02-0.059-0.008-0.12,0.012-0.179
		c0.074-0.214,0.063-0.429,0.02-0.649c-0.046-0.228-0.129-0.457-0.067-0.695c0.074-0.282-0.004-0.571,0.05-0.854
		c0.029-0.155-0.132-0.282-0.099-0.436c0.032-0.156,0.073-0.308,0.056-0.47c-0.03-0.294-0.056-0.588-0.082-0.882
		c-0.086-1.011-0.174-2.022-0.292-3.03c-0.039-0.336-0.04-0.684-0.22-0.989c-0.011-0.02-0.02-0.045-0.017-0.066
		c0.04-0.273-0.065-0.518-0.146-0.769c-0.031-0.094-0.012-0.196-0.007-0.294c0.008-0.184-0.007-0.361-0.087-0.531
		c-0.082-0.175-0.11-0.363-0.091-0.556c0.012-0.126-0.007-0.23-0.084-0.34c-0.136-0.192-0.188-0.412-0.13-0.647
		c0.036-0.146,0.028-0.285-0.068-0.411c-0.063-0.08-0.076-0.179-0.076-0.279c0.001-0.206-0.052-0.404-0.088-0.605
		c-0.014-0.077-0.042-0.149-0.107-0.194c-0.113-0.075-0.161-0.143-0.041-0.263c0.066-0.065,0.036-0.235-0.031-0.296
		c-0.104-0.092-0.135,0.044-0.201,0.071c-0.007,0.003-0.012,0.01-0.018,0.015c-0.059,0.041-0.105,0.021-0.126-0.038
		c-0.06-0.169-0.152-0.341,0.008-0.506c0.036-0.037,0.056-0.079,0.028-0.121c-0.091-0.137-0.034-0.264,0.025-0.387
		c0.059-0.123,0.068-0.241,0.038-0.374c-0.086-0.377-0.164-0.756-0.244-1.134c-0.021-0.095-0.04-0.192-0.086-0.281
		c-0.063-0.122-0.095-0.254-0.124-0.388c-0.039-0.185-0.083-0.371-0.235-0.504c-0.258-0.225-0.361-0.514-0.36-0.851
		c0.001-0.233,0.071-0.446,0.168-0.654c0.042-0.088,0.096-0.176,0.076-0.279c-0.077-0.409-0.126-0.824-0.363-1.188
		c-0.143-0.218-0.185-0.457-0.092-0.716c0.092-0.257,0.078-0.296-0.17-0.43c-0.168-0.09-0.292-0.216-0.378-0.38
		c-0.221-0.416-0.287-0.86-0.224-1.322c0.027-0.195,0.099-0.376,0.224-0.539c0.125-0.165,0.192-0.357,0.153-0.575
		c-0.035-0.201-0.064-0.405-0.084-0.607c-0.021-0.212-0.094-0.386-0.262-0.532c-0.252-0.221-0.358-0.514-0.367-0.85
		c-0.008-0.324,0.048-0.639,0.17-0.934c0.122-0.294,0.117-0.586,0.083-0.892c-0.089-0.797-0.171-1.596-0.253-2.395
		c-0.039-0.386-0.06-0.771-0.11-1.153c-0.059-0.451-0.086-0.906-0.101-1.358c-0.021-0.636-0.079-1.27-0.107-1.904
		c-0.003-0.078-0.021-0.151-0.067-0.214c-0.237-0.331-0.213-0.682-0.084-1.04c0.023-0.064,0.054-0.126,0.071-0.192
		c0.043-0.174,0.049-0.343-0.055-0.503c-0.223-0.348-0.211-0.702-0.009-1.053c0.075-0.132,0.103-0.264,0.102-0.412
		c-0.003-0.397-0.101-0.796-0.001-1.193c-0.002-1.038-0.005-2.075-0.005-3.114c0-0.15-0.041-0.276-0.143-0.392
		c-0.328-0.369-0.383-0.792-0.239-1.254c0.067-0.211,0.173-0.403,0.294-0.587c0.096-0.145,0.144-0.3,0.136-0.472
		c-0.022-0.438,0.061-0.877,0.009-1.315c-0.005-0.05,0.014-0.104,0.026-0.155c0.016-0.059,0.037-0.117,0.027-0.179
		c-0.031-0.218,0.016-0.436,0.01-0.654c-0.003-0.121-0.023-0.215-0.092-0.314c-0.213-0.299-0.287-0.628-0.199-0.991
		c0.055-0.23,0.139-0.448,0.275-0.643c0.156-0.22,0.349-0.423,0.328-0.725c0.174-0.563,0.306-1.139,0.448-1.713
		c0.083-0.334,0.065-0.695,0.264-0.998c0.182-0.719,0.466-1.41,0.579-2.147c0.008-0.052,0.024-0.104,0.05-0.15
		c0.069-0.119,0.113-0.247,0.142-0.382c0.023-0.104,0.066-0.201,0.129-0.289c0.072-0.099,0.121-0.209,0.166-0.321
		c0.255-0.641,0.509-1.281,0.797-1.908c0.061-0.133,0.072-0.256,0.013-0.393c-0.073-0.172-0.072-0.352-0.036-0.536
		c0.124-0.612,0.424-1.112,0.941-1.474c0.251-0.177,0.396-0.415,0.421-0.72c0.029-0.352,0.178-0.638,0.446-0.864
		c0.083-0.069,0.146-0.152,0.181-0.257c0.053-0.16,0.142-0.3,0.264-0.419c0.049-0.047,0.098-0.095,0.109-0.167
		c0.03-0.194,0.086-0.385,0.004-0.581c-0.047-0.114-0.033-0.239-0.012-0.359c0.054-0.307,0.187-0.573,0.4-0.801
		c0.21-0.227,0.461-0.392,0.736-0.525c0.088-0.043,0.187-0.074,0.239-0.166c0.145-0.26,0.372-0.452,0.552-0.684
		c0.086-0.11,0.138-0.209,0.087-0.351c-0.059-0.167-0.023-0.327,0.052-0.484c0.142-0.301,0.402-0.458,0.683-0.604
		c0.328-0.171,0.621-0.38,0.725-0.767c0.013-0.051,0.034-0.092,0.097-0.113c0.323-0.108,0.454-0.306,0.442-0.644
		c-0.002-0.067-0.009-0.137,0.003-0.202c0.033-0.198,0.117-0.276,0.322-0.308c0.083-0.013,0.151-0.046,0.177-0.123
		c0.086-0.252,0.295-0.352,0.521-0.433c0.095-0.033,0.178-0.082,0.246-0.155c0.104-0.109,0.204-0.225,0.31-0.333
		c0.198-0.205,0.327-0.472,0.57-0.639c0.112-0.076,0.148-0.202,0.163-0.338c0.025-0.235,0.163-0.385,0.385-0.456
		c0.079-0.025,0.161-0.043,0.243-0.058c0.101-0.017,0.188-0.055,0.265-0.121c0.142-0.126,0.281-0.254,0.425-0.376
		c0.119-0.102,0.169-0.222,0.16-0.381c-0.023-0.409,0.111-0.773,0.341-1.107c0.104-0.152,0.222-0.292,0.364-0.404
		c0.13-0.104,0.163-0.22,0.128-0.379c-0.053-0.244-0.078-0.494-0.042-0.745c0.011-0.077-0.002-0.151-0.039-0.22
		c-0.167-0.307-0.168-0.602,0.045-0.895c0.094-0.129,0.055-0.201-0.103-0.244c-0.058-0.018-0.119-0.028-0.179-0.03
		c-0.162-0.002-0.311-0.05-0.462-0.102c-0.286-0.098-0.574-0.215-0.871-0.253c-0.234-0.03-0.395-0.137-0.545-0.284
		c-0.388-0.377-0.209-1.12,0.327-1.205c0.126-0.02,0.25-0.064,0.362-0.13c0.129-0.075,0.149-0.171,0.042-0.275
		c-0.161-0.159-0.227-0.354-0.256-0.568c-0.015-0.107-0.046-0.206-0.107-0.296c-0.192-0.284-0.158-0.565,0.048-0.819
		c0.129-0.16,0.13-0.317,0.106-0.507c-0.049-0.383-0.08-0.771,0.065-1.143c0.096-0.241,0.098-0.484,0.077-0.736
		c-0.06-0.704-0.049-1.409,0.088-2.104c0.075-0.381,0.119-0.764,0.143-1.147c0.02-0.312,0.045-0.62,0.083-0.929
		c0.01-0.085,0.005-0.166-0.027-0.246c-0.131-0.316-0.066-0.614,0.119-0.884c0.136-0.196,0.226-0.409,0.295-0.635
		c0.061-0.197,0.143-0.384,0.278-0.542c0.133-0.156,0.278-0.3,0.411-0.456c0.091-0.106,0.201-0.187,0.332-0.229
		c0.121-0.039,0.215-0.1,0.292-0.203c0.104-0.142,0.254-0.208,0.427-0.232c0.366-0.049,0.731-0.102,1.097-0.154
		c0.149-0.022,0.301-0.036,0.44-0.104c0.07-0.033,0.147-0.032,0.224-0.023c0.091,0.011,0.181,0,0.271-0.015
		c1.079-0.173,2.165-0.252,3.255-0.287c0.158-0.006,0.32-0.048,0.475-0.028c0.288,0.038,0.575,0.021,0.862,0.024
		c0.083,0.001,0.169,0,0.245-0.038C35.366,1.493,35.625,1.438,35.884,1.382z"/>
	<path fill="#C1A634" d="M35.884,1.382c0.045,0,0.091,0,0.136,0c0.189,0.05,0.394,0.048,0.571,0.139
		c0.242,0.122,0.491,0.156,0.764,0.167c0.672,0.025,1.346,0.031,2.015,0.126c0.427,0.06,0.86,0.066,1.29,0.108
		c0.73,0.073,1.462,0.143,2.179,0.318c0.514,0.126,1.021,0.259,1.502,0.49c0.476,0.23,0.853,0.572,1.188,0.969
		c0.033,0.041,0.063,0.09,0.075,0.14c0.073,0.317,0.196,0.623,0.226,0.95c0.015,0.16,0.054,0.31,0.131,0.453
		c0.071,0.134,0.103,0.283,0.113,0.438c0.021,0.323,0.035,0.65,0.071,0.973c0.093,0.829,0.188,1.656,0.118,2.492
		c-0.024,0.295-0.036,0.59-0.058,0.884c-0.014,0.178,0.01,0.345,0.089,0.509c0.079,0.163,0.135,0.338,0.164,0.518
		c0.059,0.352,0.057,0.697-0.154,1.007c-0.078,0.114-0.085,0.237-0.069,0.37c0.054,0.458,0.106,0.919,0.096,1.379
		c-0.007,0.236,0.064,0.372,0.261,0.473c0.215,0.108,0.381,0.276,0.513,0.473c0.101,0.151,0.197,0.338,0.089,0.509
		c-0.166,0.263-0.37,0.501-0.681,0.61c-0.144,0.05-0.286,0.102-0.433,0.142c-0.38,0.103-0.763,0.196-1.144,0.296
		c-0.214,0.057-0.243,0.099-0.193,0.304c0.091,0.375,0.133,0.761,0.254,1.129c0.013,0.042,0.022,0.093,0.012,0.135
		c-0.046,0.187-0.021,0.378-0.046,0.565c-0.02,0.141,0.021,0.247,0.122,0.345c0.198,0.189,0.374,0.4,0.512,0.637
		c0.191,0.328,0.395,0.645,0.648,0.929c0.121,0.135,0.21,0.294,0.294,0.456c0.111,0.215,0.217,0.436,0.39,0.61
		c0.107,0.108,0.199,0.228,0.289,0.351c0.109,0.149,0.242,0.264,0.434,0.307c0.32,0.073,0.513,0.276,0.57,0.604
		c0.021,0.111,0.043,0.221,0.119,0.314c0.114,0.141,0.219,0.29,0.336,0.43c0.375,0.444,0.771,0.874,1.103,1.353
		c0.229,0.331,0.562,0.567,0.771,0.918c0.188,0.318,0.431,0.604,0.649,0.903c0.156,0.215,0.311,0.43,0.519,0.6
		c0.071,0.059,0.128,0.135,0.152,0.224c0.062,0.233,0.212,0.416,0.34,0.611c0.11,0.171,0.25,0.299,0.437,0.383
		c0.244,0.11,0.457,0.269,0.642,0.462c0.304,0.323,0.427,0.697,0.308,1.129c-0.049,0.176-0.021,0.318,0.065,0.473
		c0.496,0.896,0.998,1.786,1.449,2.705c0.084,0.169,0.163,0.339,0.236,0.512c0.149,0.356,0.273,0.725,0.504,1.041
		c0.047,0.062,0.068,0.137,0.076,0.212c0.014,0.123,0.059,0.234,0.102,0.348c0.263,0.679,0.529,1.355,0.783,2.037
		c0.178,0.475,0.346,0.955,0.503,1.437c0.159,0.487,0.346,0.966,0.441,1.473c0.061,0.328,0.165,0.646,0.238,0.972
		c0.061,0.27,0.159,0.512,0.334,0.734c0.272,0.348,0.367,0.743,0.201,1.175c-0.061,0.153-0.057,0.312-0.031,0.471
		c0.051,0.322,0.095,0.645,0.148,0.966c0.288,1.738,0.411,3.489,0.422,5.248c0.012,1.78,0.004,3.561-0.044,5.341
		c-0.006,0.234-0.016,0.469-0.032,0.702c-0.024,0.323-0.063,0.648,0.11,0.954c0.101,0.177,0.065,0.377-0.049,0.541
		c-0.123,0.178-0.144,0.36-0.097,0.562c0.021,0.084,0.009,0.163-0.019,0.244c-0.022,0.064-0.041,0.132-0.046,0.198
		c-0.047,0.627-0.091,1.254-0.135,1.881c-0.009,0.115-0.006,0.228,0.029,0.338c0.062,0.191,0.038,0.376-0.045,0.553
		c-0.047,0.099-0.068,0.2-0.078,0.307c-0.069,0.762-0.152,1.522-0.211,2.285c-0.032,0.422-0.127,0.839-0.072,1.267
		c0.004,0.029,0,0.062-0.01,0.089c-0.104,0.321-0.094,0.656-0.123,0.987c-0.007,0.082-0.004,0.168-0.037,0.246
		c-0.054,0.127-0.066,0.264-0.085,0.397c-0.102,0.788-0.184,1.578-0.319,2.361c-0.195,1.119-0.35,2.245-0.522,3.369
		c-0.204,1.333-0.494,2.651-0.729,3.979c-0.119,0.671-0.309,1.328-0.355,2.013c-0.004,0.044-0.017,0.089-0.034,0.131
		c-0.087,0.202-0.119,0.423-0.188,0.631c-0.059,0.172-0.03,0.318,0.071,0.471c0.35,0.521,0.453,1.104,0.374,1.716
		c-0.073,0.562-0.344,0.986-0.928,1.136c-0.172,0.044-0.221,0.156-0.246,0.311c-0.126,0.77-0.263,1.539-0.384,2.308
		c-0.156,0.997-0.272,1.996-0.348,3.002c-0.053,0.702-0.106,1.404-0.144,2.108c-0.041,0.786-0.083,1.571-0.075,2.36
		c0.001,0.132,0.018,0.256,0.078,0.374c0.073,0.145,0.075,0.292-0.001,0.438c-0.066,0.124-0.085,0.257-0.077,0.396
		c0.01,0.174,0.02,0.348,0.029,0.521c0.018,0.314,0.143,0.623,0.035,0.942c-0.007,0.02,0.001,0.045,0.002,0.067
		c0.051,0.733,0.103,1.466,0.152,2.199c0.094,1.384,0.279,2.757,0.446,4.133c0.056,0.459,0.138,0.916,0.182,1.372
		c0.09,0.958,0.212,1.911,0.316,2.866c0.129,1.173,0.334,2.339,0.507,3.508c0.252,1.702,0.514,3.401,0.74,5.105
		c0.018,0.133,0.066,0.247,0.138,0.356c0.115,0.179,0.236,0.354,0.336,0.54c0.218,0.408,0.27,0.819-0.022,1.221
		c-0.077,0.105-0.094,0.218-0.074,0.344c0.035,0.232,0.071,0.465,0.099,0.697c0.021,0.178,0.073,0.334,0.199,0.471
		c0.115,0.123,0.163,0.279,0.076,0.44c-0.093,0.173-0.081,0.352-0.055,0.531c0.175,1.192,0.353,2.384,0.524,3.576
		c0.03,0.208,0.103,0.385,0.229,0.557c0.427,0.58,0.547,1.208,0.223,1.88c-0.065,0.135-0.077,0.271-0.058,0.419
		c0.069,0.556,0.146,1.112,0.193,1.67c0.12,1.418,0.27,2.834,0.36,4.254c0.046,0.726,0.105,1.45,0.142,2.177
		c0.04,0.823,0.071,1.648,0.087,2.474c0.021,1.121,0.016,2.242,0.045,3.364c0.008,0.33,0.041,0.636,0.195,0.94
		c0.251,0.494,0.244,0.993-0.09,1.462c-0.064,0.09-0.093,0.188-0.093,0.298c-0.002,0.658-0.004,1.317-0.007,1.977
		c0,0.11,0.029,0.207,0.097,0.296c0.435,0.587,0.602,1.248,0.547,1.971c-0.03,0.394-0.21,0.695-0.589,0.843
		c-0.165,0.064-0.229,0.165-0.242,0.338c-0.048,0.627-0.115,1.253-0.162,1.879c-0.018,0.233-0.082,0.468-0.044,0.701
		c0.032,0.197-0.028,0.393,0.018,0.588c0.013,0.052-0.014,0.104-0.046,0.148c-0.031,0.043-0.054,0.091-0.065,0.144
		c-0.081,0.387-0.143,0.774-0.082,1.17c0.016,0.104,0.001,0.195-0.062,0.279c-0.062,0.081-0.074,0.178-0.088,0.278
		c-0.042,0.329-0.071,0.663-0.144,0.986c-0.081,0.363-0.127,0.73-0.165,1.1c-0.015,0.15-0.004,0.313-0.062,0.446
		c-0.111,0.251-0.129,0.525-0.196,0.785c-0.108,0.411-0.232,0.832-0.222,1.271c0,0.036-0.015,0.073-0.028,0.108
		c-0.117,0.312-0.175,0.643-0.256,0.966c-0.023,0.097-0.023,0.194,0.001,0.292c0.029,0.117-0.003,0.225-0.051,0.33
		c-0.234,0.504-0.417,1.021-0.477,1.577c-0.009,0.086-0.043,0.159-0.078,0.234c-0.095,0.2-0.166,0.408-0.186,0.629
		c-0.008,0.099-0.028,0.195-0.063,0.289c-0.12,0.316-0.215,0.647-0.452,0.909c-0.04,0.043-0.062,0.103-0.09,0.157
		c-0.204,0.389-0.394,0.786-0.614,1.166c-0.279,0.48-0.512,0.991-0.974,1.353c-0.588,0.463-1.198,0.876-1.9,1.141
		c-0.128,0.049-0.25,0.106-0.37,0.174c-0.511,0.286-1.037,0.54-1.626,0.615c-0.933,0.12-1.857,0.083-2.768-0.173
		c-0.124-0.035-0.248-0.068-0.381-0.059c-0.107,0.008-0.213-0.013-0.306-0.067c-0.127-0.074-0.267-0.107-0.407-0.138
		c-0.616-0.132-1.219-0.311-1.819-0.497c-0.753-0.233-1.497-0.49-2.22-0.809c-0.257-0.111-0.521-0.202-0.802-0.244
		c-0.166-0.025-0.289,0.024-0.413,0.131c-0.249,0.217-0.396,0.496-0.521,0.79c-0.196,0.464-0.467,0.881-0.748,1.298
		c-0.175,0.257-0.363,0.476-0.666,0.586c-0.119,0.043-0.22,0.133-0.332,0.197c-0.084,0.049-0.169,0.103-0.261,0.135
		c-0.446,0.158-0.902,0.262-1.381,0.198c-0.46-0.059-0.922-0.059-1.384-0.056c-0.272,0.002-0.544,0.003-0.816,0.003L35.884,1.382z"
		/>
</g>
<g>
	<path fill="#21274C" d="M71.194,51.335c0,0.799-0.647,1.446-1.445,1.446c-0.801,0-1.449-0.647-1.449-1.446s0.648-1.447,1.449-1.447
		C70.547,49.888,71.194,50.536,71.194,51.335"/>
	<rect x="30.681" y="51.245" fill="#2B295F" width="3.299" height="6.618"/>
	<path fill="#67A9DF" d="M62.928,52.227c-0.609-8.869-12.22-17.72-26.003-16.772C23.14,36.403,12.46,44.36,13.07,53.229
		L62.928,52.227z"/>
	<g>
		<g>
			<defs>
				<rect id="SVGID_1_{$id}" x="13.046" y="35.385" width="49.882" height="17.845"/>
			</defs>
			<clipPath id="SVGID_2_{$id}">
				<use xlink:href="#SVGID_1_"  overflow="visible"/>
			</clipPath>
			<g clip-path="url(#SVGID_2_{$id})">
				<defs>
					<path id="SVGID_3_{$id}" d="M62.928,52.227c-0.609-8.869-12.22-17.72-26.003-16.772C23.141,36.403,12.46,44.36,13.07,53.23
						L62.928,52.227z"/>
				</defs>
				<clipPath id="SVGID_4_{$id}">
					<use xlink:href="#SVGID_3_"  overflow="visible"/>
				</clipPath>
				
					<linearGradient id="SVGID_5_{$id}" gradientUnits="userSpaceOnUse" x1="-291.6182" y1="236.4517" x2="-291.2638" y2="236.4517" gradientTransform="matrix(-9.9507 -57.4158 -64.019 9.7938 12275.3193 -19003.4844)">
					<stop  offset="0" style="stop-color:#FFFFFF"/>
					<stop  offset="0.2913" style="stop-color:#FFFFFF"/>
					<stop  offset="1" style="stop-color:#2B295F"/>
				</linearGradient>
				<polygon clip-path="url(#SVGID_4_{$id})" fill="url(#SVGID_5_{$id})" points="13.764,60.75 9.299,34.991 61.624,26.986 66.089,52.747 				
					"/>
			</g>
		</g>
	</g>
	<path fill="#21274C" d="M12.133,55.906c-0.449-9.766,10.237-18.19,23.869-18.816c13.631-0.626,24.945,9.452,25.393,19.217"/>
	<path fill="#2B295F" d="M62.928,53.991c0,1.319-0.786,2.387-1.755,2.387c-0.97,0-1.756-1.068-1.756-2.387
		c0-1.318,0.786-2.388,1.756-2.388C62.142,51.603,62.928,52.672,62.928,53.991"/>
	<path fill="#21274C" d="M47.021,42.078c-0.109-0.204-0.322-0.33-0.554-0.33h-0.965c-0.426,0.008-0.805,0.235-1.043,0.628
		l-0.526,0.801c-0.32-0.425-0.821-0.678-1.364-0.679H41.52c-0.022,0-0.044,0.002-0.065,0.005c-0.025-0.003-0.05-0.005-0.076-0.005
		l-2.09,0c-0.438,0-0.828,0.214-1.072,0.544l-0.004-0.022c-0.021-0.119-0.074-0.224-0.15-0.309c0.378-0.418,0.446-0.86,0.46-0.985
		c0.029-0.282-0.075-0.467-0.17-0.573c-0.13-0.146-0.312-0.227-0.515-0.227c-0.076,0-0.146,0.012-0.204,0.026
		c-0.042,0.003-0.081,0.006-0.119,0.006c-0.078,0-0.144-0.008-0.228-0.02c-0.104-0.013-0.233-0.03-0.394-0.03h-0.007
		c0.012-0.31-0.045-0.635-0.204-0.932c-0.1-0.184-0.237-0.428-0.349-0.623c-0.063-0.113-0.119-0.21-0.15-0.266
		c-0.195-0.362-0.506-0.401-0.631-0.401c-0.269,0-0.509,0.155-0.636,0.407c-0.061,0.106-0.352,0.617-0.494,0.882
		c-0.16,0.3-0.214,0.626-0.197,0.937c-0.178,0.001-0.328,0.022-0.449,0.04c-0.081,0.012-0.152,0.021-0.202,0.021
		c-0.03,0-0.044-0.004-0.055-0.007c-0.089-0.03-0.176-0.044-0.262-0.044c-0.227,0-0.431,0.103-0.56,0.283
		c-0.116,0.163-0.155,0.373-0.11,0.576c0.025,0.16,0.109,0.515,0.398,0.866c-0.11-0.093-0.251-0.149-0.407-0.149h-0.967
		c-0.009,0-0.018,0-0.026,0l-0.337,0c-0.166,0-0.325,0.066-0.444,0.184c-0.078,0.078-0.134,0.175-0.162,0.281
		c-0.252-0.275-0.611-0.449-1.013-0.463c-0.017-0.001-0.035-0.001-0.05-0.001c-0.014,0-0.028,0-0.042,0.001h-0.19v-0.122
		c0-0.348-0.282-0.629-0.63-0.629l-1.37-0.001c-0.167,0-0.327,0.066-0.445,0.184c-0.118,0.118-0.185,0.279-0.185,0.446v3.394
		c-0.266-0.323-0.667-0.528-1.114-0.528h-0.425c-0.348,0-0.63,0.282-0.63,0.63v0.854c0,0.392,0.117,0.769,0.337,1.09
		c0.406,0.59,1.163,0.958,1.977,0.958c0.745,0,1.525-0.304,2.009-0.839c0.456,0.539,1.201,0.839,1.931,0.839
		c0.472,0,0.959-0.13,1.371-0.371c0.119,0.13,0.287,0.206,0.463,0.206h0.352c0.012,0,0.022-0.001,0.033-0.001
		c0.587-0.018,1.075-0.445,1.167-1.026l0.034-0.193l0.239,0.643c0.12,0.36,0.466,0.609,0.848,0.609c0.371,0,0.707-0.233,0.838-0.583
		c0.002-0.006,0.203-0.6,0.203-0.6c0.234,0.672,0.879,1.149,1.612,1.149h0.477c0.122,0,0.24-0.037,0.34-0.102
		c0.147,0.06,0.305,0.095,0.468,0.1c0.014,0.001,0.028,0.001,0.042,0.001h2.09c0.027,0,0.054-0.002,0.08-0.006
		c0.028,0.004,0.059,0.007,0.086,0.007h0.946h0.002c0.401-0.002,0.776-0.2,1.001-0.53l0.254-0.387l0.063,0.098
		c0.309,0.504,0.865,0.818,1.455,0.818h1.054c0.229,0,0.443-0.126,0.553-0.33c0.11-0.204,0.101-0.451-0.025-0.645l-1.62-2.459
		l1.769-2.452C47.121,42.529,47.131,42.282,47.021,42.078"/>
	<path fill="#FFFFFF" d="M28.715,44.374v-2.065v-0.042l-1.37-0.001v1.072v0.004v0.001l0,3.568c0,0.166-0.279,0.294-0.489,0.294
		c-0.21,0-0.441-0.128-0.441-0.294l0.001-0.327c0-0.002,0-0.005,0-0.008c0-0.002,0-0.005,0-0.008
		c-0.004-0.446-0.367-0.806-0.813-0.806h-0.425v0.157v0.696c0,0.281,0.084,0.527,0.225,0.733c0.3,0.435,0.879,0.686,1.459,0.686
		c0.854,0,1.855-0.542,1.855-1.418V44.374z"/>
	<path fill="#FFFFFF" d="M44.947,45.766l-0.384-0.587l1.153-1.765l0.396-0.604l0.354-0.543h-0.941l-0.001,0l-0.002,0
		c-0.233,0-0.417,0.142-0.529,0.333l-1.061,1.612l-0.472-0.722c-0.192-0.285-0.518-0.473-0.887-0.474h-0.003h-0.003H41.52l0.24,0.37
		l1.127,1.732l0.225,0.347l-0.818,1.254l-0.394,0.604l-0.355,0.543h0.94h0.004h0.002c0.201-0.001,0.379-0.103,0.484-0.257
		l0.007-0.01l0.765-1.17l0.598,0.913c0.188,0.313,0.53,0.524,0.922,0.524h1.054l-0.241-0.371L44.947,45.766z"/>
	<path fill="#FFFFFF" d="M38.42,47.764l-0.356-2.041l-0.315-1.811l-0.075-0.431l-0.081-0.464h-0.643h-0.011h-0.01
		c-0.35,0.004-0.646,0.229-0.757,0.542v0.001l-0.008,0.022c0,0.004-0.003,0.008-0.003,0.011l-0.538,1.577
		c-0.009,0.031-0.04,0.054-0.075,0.054c-0.035,0-0.064-0.023-0.074-0.053l-0.601-1.614l-0.001-0.002
		c-0.113-0.31-0.408-0.533-0.754-0.538h-0.011h-0.01h-0.618l-0.068,0.395L33.31,43.99l-0.473,2.714l-0.186,1.06l-0.018,0.103h0.353
		c0.294-0.002,0.537-0.218,0.58-0.501l0.379-2.171c0.007-0.041,0.042-0.072,0.085-0.072c0.041,0,0.074,0.027,0.084,0.063
		l0.939,2.528c0.033,0.108,0.134,0.187,0.254,0.187c0.113,0,0.21-0.072,0.247-0.173l0.868-2.55c0.013-0.033,0.045-0.056,0.082-0.056
		c0.042,0,0.079,0.033,0.085,0.074l0.308,1.753c0.075,0.521,0.523,0.919,1.062,0.919h0.478L38.42,47.764z"/>
	<path fill="#FFFFFF" d="M40.082,43.708l0.448,0.001h0.848v-0.693h-2.043h-0.013h-0.034c-0.389,0-0.704,0.314-0.707,0.703v0.003
		v2.462v0.976v0.003c0.002,0.109,0.026,0.209,0.069,0.3c0.112,0.234,0.347,0.396,0.622,0.402c0,0,0.011,0.001,0.016,0.001h2.09
		v-0.693h-1.156l-0.14,0.001c-0.119,0-0.217-0.097-0.217-0.217v-1.059c0.001-0.076,0.063-0.137,0.141-0.137v0h0.843
		c0.001,0,0.002,0,0.002,0l0.004,0c0.285-0.002,0.518-0.231,0.521-0.516c0-0.003,0-0.006,0-0.008c0-0.003,0-0.005,0-0.009v-0.113
		h-0.015h-1.02h-0.336c-0.077,0-0.14-0.062-0.141-0.139v-1.052C39.865,43.805,39.963,43.708,40.082,43.708"/>
	<path fill="#FFFFFF" d="M32.58,43.83L32.58,43.83v-0.002c0-0.009-0.001-0.017-0.001-0.027v-0.785h-0.799h-0.013h-0.011H31.61v0
		l-0.363,0v0.186v1.255v2.456c0,0.19-0.229,0.292-0.415,0.292c-0.187,0-0.443-0.102-0.443-0.292l0.002-3.071
		c0-0.003,0-0.008,0-0.012c0-0.003,0-0.007,0-0.012c-0.007-0.437-0.356-0.79-0.792-0.801c-0.008,0-0.014-0.001-0.021-0.001
		c-0.007,0-0.013,0.001-0.021,0.001h-0.5v0.188v1.25v2.159c0,0.876,0.887,1.418,1.742,1.418c0.854,0,1.78-0.542,1.78-1.418V43.83z"
		/>
	<path fill="#5EA446" d="M37.75,41.462c-0.503,0.061-0.61-0.087-1.137-0.015c-0.325,0.044-0.588,0.315-0.786,0.624
		c-0.104,0.161-0.155,0.275-0.196,0.374c0.023-0.225,0.132-0.664,0.391-0.983c0.215-0.267,0.348-0.843,0.104-1.301
		c-0.153-0.284-0.41-0.726-0.497-0.885c-0.086-0.16-0.156,0-0.156,0s-0.343,0.601-0.496,0.885c-0.244,0.458-0.092,1.018,0.103,1.301
		c0.287,0.413,0.373,0.804,0.39,0.983c-0.058-0.138-0.161-0.326-0.207-0.42c-0.16-0.331-0.449-0.533-0.773-0.577
		c-0.527-0.073-0.813,0.125-1.172,0.005c-0.163-0.056-0.11,0.097-0.11,0.097s0.03,0.469,0.525,0.831
		c0.648,0.474,1.14,0.231,1.389,0.228c0.119-0.001,0.365,0.089,0.365,0.253c0,0.215,0.018,0.375,0.018,0.547s0.11,0.155,0.115,0.005
		c0.006-0.149,0.021-0.362,0.021-0.576c0-0.164,0.257-0.224,0.342-0.23c0.248-0.019,0.688,0.28,1.387-0.228
		c0.497-0.36,0.526-0.831,0.526-0.831C37.907,41.441,37.866,41.427,37.75,41.462 M35.117,42.382
		c-0.312-0.264-0.597-0.278-0.796-0.305c-0.433-0.061-0.527-0.129-0.642-0.251c-0.057-0.061-0.036-0.091,0.041-0.035
		c0.177,0.128,0.253,0.131,0.599,0.158c0.526,0.042,0.765,0.324,0.818,0.392C35.179,42.397,35.164,42.422,35.117,42.382
		 M35.551,41.652c-0.036,0-0.064-0.405-0.064-0.901c0-0.499,0.028-0.902,0.064-0.902c0.034,0,0.063,0.403,0.063,0.902
		C35.614,41.248,35.585,41.652,35.551,41.652 M37.408,41.847c-0.114,0.122-0.208,0.19-0.641,0.25
		c-0.201,0.028-0.486,0.042-0.797,0.305c-0.047,0.04-0.062,0.016-0.019-0.04c0.053-0.069,0.29-0.351,0.817-0.393
		c0.346-0.027,0.422-0.029,0.598-0.158C37.446,41.754,37.466,41.786,37.408,41.847"/>
	<path fill="#67A9DF" d="M15.308,60.059c0.936,8.895,12.93,17.372,26.753,15.917c13.824-1.454,24.271-9.842,23.337-18.737
		L15.308,60.059z"/>
	<g>
		<g>
			<defs>
				<rect id="SVGID_6_{$id}" x="15.308" y="57.239" width="50.148" height="18.901"/>
			</defs>
			<clipPath id="SVGID_7_{$id}">
				<use xlink:href="#SVGID_6_"  overflow="visible"/>
			</clipPath>
			<g clip-path="url(#SVGID_7_{$id})">
				<defs>
					<path id="SVGID_8_{$id}" d="M15.308,60.06c0.936,8.893,12.93,17.371,26.753,15.916c13.824-1.454,24.271-9.842,23.337-18.737
						L15.308,60.06z"/>
				</defs>
				<clipPath id="SVGID_9_{$id}">
					<use xlink:href="#SVGID_8_"  overflow="visible"/>
				</clipPath>
				
					<linearGradient id="SVGID_10_{$id}" gradientUnits="userSpaceOnUse" x1="-289.9321" y1="241.5151" x2="-289.5779" y2="241.5151" gradientTransform="matrix(12.0877 57.3609 64.0063 -12.17 -11915.5693 19625.6523)">
					<stop  offset="0" style="stop-color:#FFFFFF"/>
					<stop  offset="0.2913" style="stop-color:#FFFFFF"/>
					<stop  offset="1" style="stop-color:#2B295F"/>
				</linearGradient>
				<polygon clip-path="url(#SVGID_9_{$id})" fill="url(#SVGID_10_{$id})" points="64.368,47.912 70.425,76.653 17.274,86.759 11.217,58.017 
									"/>
			</g>
		</g>
	</g>
	<rect x="30.386" y="51.187" fill="#21274C" width="3.319" height="6.657"/>
	<path fill="#21274C" d="M66.244,54.515c0.806,9.802-9.632,18.66-23.313,19.784c-13.682,1.125-25.423-8.596-26.229-18.396"/>
	<path fill="#21274C" d="M71.054,47.714c-0.239-0.378-0.6-0.646-1.019-0.784c0.061-0.148,0.111-0.302,0.147-0.463
		c0.16-0.713,0.031-1.446-0.359-2.062c-0.228-0.358-0.529-0.649-0.879-0.865c0.185-0.223,0.323-0.49,0.391-0.791
		c0.109-0.491,0.022-0.995-0.247-1.419c-0.271-0.424-0.688-0.719-1.178-0.828c-0.136-0.03-0.274-0.045-0.413-0.045
		c-0.887,0-1.642,0.604-1.834,1.47c-0.11,0.491-0.022,0.995,0.247,1.419c0.045,0.072,0.101,0.135,0.156,0.2
		c-0.606,0.376-1.058,0.984-1.224,1.727c-0.095,0.427-0.085,0.86,0.02,1.271c-0.934,0.092-1.799,0.541-2.411,1.237
		c-0.444-0.081-0.905-0.121-1.38-0.121h-0.051c-1.224,0.007-2.336,0.277-3.325,0.705l0.348-0.456l-11.436,0.069l0,0l-5.775,0.035
		l-9.655,0.059l0,0l-0.653,0.004c-2.949,0.018-3.821,1.841-3.887,2.902L25.666,56.4c-0.234,1.312-0.422,1.37-0.831,1.372
		c-0.032,0-0.058-0.002-0.079-0.003c-0.023-0.124-0.025-0.386,0.074-0.942l1.019-5.694c0.222-0.97-0.084-1.625-0.383-2.004
		c-0.695-0.882-1.919-1.013-2.587-1.013c-0.123,0-0.217,0.004-0.272,0.007l-1.681,0.01l-0.357,1.998
		c-0.191-0.304-0.417-0.583-0.681-0.824c-0.962-0.854-2.024-1.142-4.211-1.142l-4.968,0.029v0.001l-7.681,0.047L1.118,58.91
		c-0.095,0.359-0.349,1.622,0.41,2.651c0.389,0.527,1.175,1.155,2.714,1.155l1.525-0.009l0.831-4.639l2.345-0.014l-0.83,4.639
		l2.616-0.016c1.876-0.011,2.794-1.062,3.084-2.044l4.721,7.279l0.058,0.082c0.067,0.086,1.668,2.102,4.245,2.102h0.001
		c0.885,0,1.772-0.238,2.637-0.708c0.451-0.246,0.697-0.726,0.627-1.221c-0.036-0.256-0.215-0.872-1.098-1.068l-0.132-0.034
		l-0.128,0.006c-0.318-0.079-1.155-0.743-1.778-1.408l-4.887-7.695c0.471-0.241,0.889-0.547,1.256-0.893
		c-0.223,1.576-0.096,2.703,0.861,4.007c1.178,1.572,3.303,1.743,4.163,1.743h0.041c1.688-0.01,3.165-0.556,4.391-1.622
		c1.258-1.093,1.893-2.331,2.265-4.414l0.657-3.672l0.729-0.004l-1.103,6.163c-0.056,0.267-0.229,1.37,0.476,2.266
		c0.357,0.452,1.057,0.992,2.367,0.992h0.003l2.033-0.012l4.663-0.028L40.878,62.5l16.044-0.104
		c0.566,0.138,1.161,0.218,1.786,0.218h0.051c4.153-0.026,7.977-3.237,8.707-7.312c0.137-0.767,0.157-1.521,0.058-2.249
		c0.638-0.517,1.095-1.238,1.277-2.051c0.033-0.148,0.054-0.298,0.068-0.447c0.051,0.016,0.099,0.038,0.151,0.05
		c0.138,0.031,0.279,0.047,0.42,0.047c0.901,0,1.668-0.616,1.865-1.496C71.417,48.658,71.328,48.146,71.054,47.714"/>
	<path fill="#FFFFFF" d="M2.583,58.966l1.749-9.771l6.638-0.04l-0.488,2.729l-3.664,0.023L6.446,53.98l3.532-0.022l-0.488,2.731
		L5.958,56.71l-0.831,4.639l-0.524,0.004C1.839,61.37,2.583,58.966,2.583,58.966 M11.054,61.313l-1.22,0.008l2.178-12.173
		l3.845-0.023c2.137-0.013,2.911,0.246,3.591,0.849c0.861,0.784,1.125,2.064,0.9,3.314c-0.25,1.397-1.341,3.458-3.709,3.851
		l5.736,9.032c0,0,1.728,1.899,2.709,1.858c0,0,0.297,0.066,0.168,0.136c-3.206,1.744-5.412-1.087-5.412-1.087l-6.296-9.707h-0.033
		l-0.422,2.355C13.09,59.727,13.094,61.301,11.054,61.313 M13.892,55.249l1.101-0.007c1.824-0.01,2.244-1.163,2.35-1.755
		c0.197-1.102-0.511-1.64-1.71-1.633l-1.134,0.007L13.892,55.249z M25.043,50.695l-1.024,5.725c-0.147,0.823-0.366,2.319,1.162,2.31
		c1.545-0.009,1.786-1.358,1.959-2.329l0.984-5.5c0,0,0.012-1.851,2.737-1.867l0.7-0.005l-1.316,7.354
		c-0.364,2.04-0.97,2.947-1.883,3.742c-0.933,0.811-2.125,1.327-3.637,1.336c-0.888,0.006-2.459-0.198-3.268-1.278
		c-0.804-1.096-0.866-1.95-0.545-3.743l1.316-7.354l0.752-0.004C22.981,49.082,25.483,48.871,25.043,50.695 M32.812,59.298
		l1.352-7.557l-2.171,0.013l0.489-2.731l7.295-0.045l-0.488,2.731l-2.019,0.013l-1.689,9.442l-1.064,0.007
		C32.359,61.171,32.812,59.298,32.812,59.298 M37.278,59.117l5.513-7.428l-2.683,0.016l0.49-2.731l6.164-0.037l-0.449,2.517
		l-5.117,6.949l3.448-0.021l-1.956,2.74l-5.777,0.035L37.278,59.117z M54.12,60.1c-0.442-0.527-0.784-1.125-1.021-1.77l-4.108,0.025
		l5.117-6.949l1.918-2.527l-8.113,0.05l-0.489,2.73l3.162-0.019l-7.052,9.477l1.173-0.009l10.433-0.064
		C54.765,60.772,54.422,60.458,54.12,60.1 M67.673,42.839c0.389,0.087,0.774-0.158,0.861-0.546c0.088-0.389-0.158-0.775-0.546-0.861
		c-0.389-0.087-0.774,0.157-0.861,0.546C67.04,42.367,67.284,42.752,67.673,42.839 M66.095,47.543
		c-1.16-0.259-2.31,0.33-2.809,1.354c-0.58-0.184-1.227-0.283-1.926-0.279c-3.401,0.021-5.701,2.319-6.624,3.902
		c-0.521,0.891-0.797,1.797-0.941,2.602c-0.559,3.126,1.459,6.154,5.288,6.13c3.779-0.022,6.965-2.967,7.571-6.355
		c0.164-0.919,0.124-1.801-0.093-2.601c0.703-0.312,1.258-0.939,1.438-1.748C68.304,49.191,67.45,47.846,66.095,47.543
		 M63.546,54.931c-0.279,1.562-1.706,3.576-3.908,3.589c-2.087,0.013-3.04-1.724-2.705-3.599c0.307-1.71,1.803-3.561,3.955-3.573
		C63.122,51.335,63.829,53.351,63.546,54.931 M68.189,44.131c-0.849-0.19-1.692,0.344-1.881,1.192
		c-0.19,0.849,0.343,1.691,1.192,1.881c0.849,0.19,1.69-0.344,1.881-1.193C69.571,45.162,69.037,44.32,68.189,44.131 M69.935,47.802
		c-0.405-0.09-0.808,0.166-0.897,0.57c-0.091,0.405,0.164,0.808,0.569,0.899c0.405,0.09,0.807-0.165,0.898-0.571
		C70.596,48.296,70.341,47.894,69.935,47.802"/>
	<path fill="#C4E4F9" d="M35.27,60.498c-2.156,0-1.705-1.872-1.705-1.872l1.352-7.558l-2.171,0.013l0.371-2.071l-0.641,0.004
		l-0.489,2.731l2.171-0.013l-1.353,7.558c0,0-0.451,1.872,1.705,1.872l1.064-0.006l0.118-0.66L35.27,60.498z"/>
	<path fill="#C4E4F9" d="M26.74,57.844c0.805-0.401,0.985-1.387,1.121-2.145l0.984-5.5c0,0,0.002-0.345,0.225-0.74
		c-0.92,0.551-0.926,1.446-0.926,1.446l-0.984,5.5C27.078,56.86,26.979,57.399,26.74,57.844"/>
	<polygon fill="#C4E4F9" points="39.432,51.012 37.395,51.02 37.27,51.722 39.306,51.713 	"/>
	<path fill="#C4E4F9" d="M66.809,46.84c0.002,0,0.004,0.001,0.006,0.001c0.333,0.074,0.634,0.211,0.896,0.396
		c0.653,0.064,1.273-0.287,1.561-0.865c-0.313,0.158-0.682,0.212-1.052,0.129c-0.849-0.189-1.382-1.031-1.191-1.88
		c0.027-0.127,0.072-0.246,0.128-0.357c-0.407,0.204-0.723,0.583-0.83,1.062C66.197,45.901,66.401,46.472,66.809,46.84"/>
	<path fill="#C4E4F9" d="M62.604,56.995c0.913-0.734,1.494-1.829,1.662-2.766c0.283-1.58-0.424-3.597-2.659-3.583
		c-1.273,0.008-2.314,0.661-3.018,1.545c0.631-0.504,1.416-0.834,2.317-0.84c2.234-0.014,2.94,2.003,2.657,3.583
		C63.444,55.604,63.114,56.353,62.604,56.995"/>
	<polygon fill="#C4E4F9" points="6.817,51.908 10.499,51.889 10.625,51.187 6.943,51.205 	"/>
	<path fill="#C4E4F9" d="M59.803,60.549c-3.829,0.024-5.847-3.004-5.288-6.13c0.145-0.806,0.421-1.71,0.941-2.602
		c0.217-0.371,0.512-0.783,0.878-1.194c-0.705,0.63-1.237,1.313-1.579,1.9c-0.521,0.891-0.797,1.796-0.941,2.602
		c-0.26,1.45,0.036,2.878,0.809,3.991c0.071,0.095,0.141,0.191,0.218,0.282c0.294,0.349,0.628,0.656,0.991,0.923
		c0.856,0.59,1.957,0.942,3.271,0.934c2.287-0.014,4.354-1.099,5.769-2.704C63.513,59.761,61.735,60.537,59.803,60.549"/>
	<path fill="#C4E4F9" d="M45.427,60.407l-1.173,0.009l7.052-9.478l-3.163,0.02l0.363-2.029l-0.575,0.004l-0.488,2.731l3.163-0.021
		l-7.054,9.478l1.174-0.009l10.433-0.064c-0.285-0.207-0.552-0.439-0.797-0.697L45.427,60.407z"/>
	<polygon fill="#C4E4F9" points="37.632,60.454 37.996,58.414 43.511,50.987 40.828,51.002 41.191,48.975 40.616,48.978 
		40.128,51.708 42.81,51.692 37.295,59.12 36.93,61.16 42.706,61.125 43.209,60.42 	"/>
	<path fill="#C4E4F9" d="M70.326,48.568c-0.364-0.082-0.604-0.415-0.584-0.775c-0.326,0.02-0.612,0.248-0.688,0.583
		c-0.091,0.405,0.165,0.808,0.571,0.898c0.404,0.091,0.807-0.164,0.896-0.57c0.009-0.041,0.013-0.082,0.016-0.122
		C70.469,48.586,70.397,48.584,70.326,48.568"/>
	<path fill="#C4E4F9" d="M25.103,68.032c-0.134,0.006-0.282-0.026-0.436-0.083c-2.484,0.506-4.106-1.572-4.106-1.572l-6.89-9.546
		l-0.033,0.001l-0.093,0.54l6.314,9.711c0,0,2.205,2.83,5.411,1.087C25.4,68.098,25.103,68.032,25.103,68.032"/>
	<polygon fill="#C4E4F9" points="6.083,56.009 5.958,56.71 9.508,56.693 9.634,55.991 	"/>
	<path fill="#C4E4F9" d="M25.446,60.758c-0.888,0.005-2.459-0.199-3.268-1.278c-0.805-1.096-0.866-1.95-0.545-3.744l1.19-6.651
		l-0.576,0.004l-1.316,7.354c-0.32,1.792-0.26,2.646,0.545,3.743c0.808,1.079,2.38,1.283,3.268,1.278
		c1.512-0.009,2.704-0.525,3.637-1.336c0.241-0.21,0.46-0.428,0.66-0.673C28.114,60.246,26.936,60.749,25.446,60.758"/>
	<path fill="#C4E4F9" d="M11.774,60.611l-1.221,0.008l2.054-11.472l-0.576,0.004L9.852,61.324l1.221-0.007
		c1.156-0.007,1.655-0.515,1.871-0.955C12.658,60.509,12.278,60.608,11.774,60.611"/>
	<path fill="#C4E4F9" d="M3.302,58.263l1.623-9.068L4.35,49.198L2.601,58.97c0,0-0.744,2.403,2.021,2.386l0.524-0.003l0.126-0.704
		C2.57,60.635,3.302,58.263,3.302,58.263"/>
	<path fill="#21274C" d="M52.334,68.242c-0.271,0-0.521-0.028-0.74-0.083c-0.119-0.029-0.232-0.066-0.34-0.11l-0.02,0.104h-2.368
		l-0.447-0.731l-0.142,0.731h-4.378l-0.118-0.593h-0.486l-0.343,0.593h-3.943l-0.027-0.059l-0.011,0.059h-4.392l-0.118-0.593h-0.485
		l-0.343,0.593h-3.816l-0.447-0.731l-0.142,0.731h-3.015l1.152-5.943h2.437l0.396,0.645l0.125-0.645h3.015l-0.259,1.337l0.838-1.369
		h2.5l0.367,1.637l0.312-1.605h2.788c0.494,0,0.894,0.06,1.221,0.186c0.361,0.137,0.653,0.339,0.864,0.601
		c0.165,0.206,0.28,0.435,0.347,0.685l0.92-1.503h2.5l0.368,1.637l0.312-1.605h2.438l0.395,0.645l0.125-0.645h3.014l-0.538,2.78
		l0.398-0.289l0.107,0.217l0.526-2.708h2.989l-0.238,1.23l0.772-1.262h2.499l0.369,1.64l0.311-1.608h2.321
		c0.525,0,0.972,0.063,1.363,0.193c0.427,0.143,0.779,0.355,1.048,0.633c0.252,0.264,0.43,0.577,0.526,0.933l1.097-1.792h2.5
		l1.344,5.975h-3.18l-0.119-0.593h-0.484l-0.344,0.593h-3.375l0.116-0.189c-0.419,0.125-0.889,0.189-1.4,0.189h-3.928l-0.119-0.593
		h-0.485l-0.343,0.593h-3.051C52.833,68.212,52.587,68.242,52.334,68.242"/>
	<path fill="#F1CD32" d="M32.415,62.97l-0.857,4.423h-1.314l-1.247-2.041L28.6,67.393h-1.466l0.857-4.423h1.384l1.194,1.952
		l0.378-1.952H32.415z M35.808,62.939l1.001,4.454h-1.606l-0.118-0.594h-1.548l-0.343,0.594h-1.579l2.727-4.454H35.808z
		 M34.921,65.75l-0.196-1.073l-0.612,1.073H34.921z M45.128,62.939l1,4.454h-1.604l-0.118-0.594h-1.549l-0.344,0.594H41.18h-0.246
		h-1.44l-0.59-1.264h-0.012h-0.304l-0.245,1.264h-1.479l0.858-4.423h2.161c0.396,0,0.711,0.045,0.949,0.136
		c0.236,0.091,0.418,0.213,0.545,0.369c0.108,0.135,0.18,0.288,0.214,0.456c0.035,0.168,0.03,0.367-0.014,0.595l-0.002,0.012
		c-0.063,0.324-0.194,0.597-0.394,0.822c-0.199,0.222-0.446,0.399-0.74,0.529l0.627,1.28l2.592-4.23H45.128z M39.995,64.312
		c-0.087-0.069-0.218-0.103-0.39-0.103h-0.645l-0.168,0.865h0.638c0.178,0,0.323-0.038,0.439-0.113
		c0.115-0.077,0.187-0.181,0.213-0.316l0.003-0.012C40.113,64.488,40.083,64.382,39.995,64.312 M44.241,65.75l-0.196-1.073
		l-0.613,1.073H44.241z M49.999,62.97l-0.379,1.952l-1.194-1.952h-1.384l-0.857,4.423h1.466l0.396-2.041l1.247,2.041h1.314
		l0.856-4.423H49.999z M54.419,65.693l0.527-2.724h-1.44l-0.533,2.749c-0.03,0.155-0.092,0.28-0.186,0.373
		c-0.094,0.092-0.202,0.138-0.324,0.138s-0.22-0.034-0.296-0.101s-0.144-0.161-0.204-0.284l-1.125,0.816
		c0.056,0.121,0.127,0.232,0.21,0.331c0.085,0.099,0.188,0.186,0.308,0.258c0.121,0.074,0.261,0.131,0.422,0.171
		s0.346,0.06,0.557,0.06c0.267,0,0.516-0.042,0.748-0.126c0.234-0.084,0.441-0.202,0.622-0.354c0.196-0.164,0.35-0.351,0.462-0.559
		C54.278,66.234,54.363,65.984,54.419,65.693 M58.295,62.939l1,4.454h-1.605l-0.118-0.594h-1.547l-0.344,0.594h-1.58l2.729-4.454
		H58.295z M57.408,65.75l-0.196-1.073L56.6,65.75H57.408z M63.771,66.06c-0.165,0.273-0.379,0.509-0.642,0.708
		c-0.265,0.198-0.574,0.353-0.931,0.46c-0.356,0.11-0.757,0.165-1.204,0.165h-1.643l0.857-4.423h1.693
		c0.438,0,0.812,0.052,1.123,0.155c0.311,0.104,0.558,0.249,0.739,0.439c0.183,0.189,0.303,0.417,0.36,0.685
		c0.059,0.267,0.054,0.565-0.01,0.895l-0.002,0.012C64.051,65.484,63.937,65.787,63.771,66.06 M62.454,64.477
		c-0.172-0.145-0.427-0.218-0.77-0.218h-0.246l-0.357,1.845h0.246c0.342,0,0.626-0.073,0.855-0.218
		c0.228-0.145,0.373-0.378,0.434-0.698l0.003-0.013C62.682,64.854,62.627,64.623,62.454,64.477 M68.831,67.393h-1.605l-0.119-0.594
		h-1.548l-0.343,0.594h-1.579l2.727-4.454h1.467L68.831,67.393z M66.943,65.75l-0.196-1.073l-0.612,1.073H66.943z"/>
	<path fill="#FFFFFF" d="M69.637,51.27v-0.177h0.108c0.056,0,0.138,0.006,0.138,0.082c0,0.079-0.042,0.095-0.11,0.095H69.637z
		 M69.637,51.395h0.072l0.165,0.311h0.182l-0.184-0.324c0.095-0.008,0.173-0.055,0.173-0.191c0-0.168-0.109-0.223-0.295-0.223
		h-0.266v0.738h0.152V51.395z M70.415,51.337c0-0.432-0.314-0.688-0.668-0.688c-0.352,0-0.667,0.255-0.667,0.688
		c0,0.433,0.315,0.684,0.667,0.684C70.101,52.021,70.415,51.77,70.415,51.337 M70.225,51.337c0,0.314-0.22,0.526-0.478,0.526v-0.001
		c-0.263,0.001-0.475-0.211-0.475-0.525s0.212-0.526,0.475-0.526C70.005,50.811,70.225,51.022,70.225,51.337"/>
</g>
</svg>
