<?xml version="1.0" encoding="utf-8"?>
<!-- Generator: Adobe Illustrator 16.0.0, SVG Export Plug-In . SVG Version: 6.00 Build 0)  -->
<!DOCTYPE svg PUBLIC "-//W3C//DTD SVG 1.1//EN" "http://www.w3.org/Graphics/SVG/1.1/DTD/svg11.dtd">
<svg version="1.1" id="{$id}"
   class="botellarosa fruta my_center"
	 xmlns="http://www.w3.org/2000/svg" xmlns:xlink="http://www.w3.org/1999/xlink" x="0px" y="0px" width="72.404px"
	 height="170.079px" viewBox="0 0 72.404 170.079" enable-background="new 0 0 72.404 170.079" xml:space="preserve">
<g>
	<path fill="#CA175D" d="M35.909,1.381c0.046,0,0.092,0,0.137,0c0.189,0.05,0.394,0.048,0.572,0.139
		c0.241,0.122,0.49,0.156,0.763,0.167c0.672,0.025,1.346,0.031,2.015,0.126c0.428,0.06,0.861,0.066,1.29,0.108
		c0.731,0.073,1.462,0.143,2.179,0.318c0.514,0.126,1.021,0.259,1.502,0.49c0.477,0.23,0.854,0.572,1.188,0.969
		c0.033,0.041,0.064,0.09,0.075,0.14c0.073,0.317,0.196,0.623,0.226,0.95c0.016,0.16,0.055,0.31,0.131,0.453
		c0.071,0.134,0.104,0.283,0.113,0.438c0.021,0.323,0.035,0.65,0.072,0.973c0.092,0.829,0.188,1.656,0.117,2.492
		c-0.023,0.295-0.035,0.59-0.058,0.884c-0.013,0.178,0.01,0.345,0.089,0.509c0.08,0.163,0.135,0.338,0.164,0.518
		c0.059,0.352,0.057,0.697-0.154,1.007c-0.078,0.114-0.084,0.237-0.069,0.37c0.054,0.458,0.106,0.919,0.096,1.379
		c-0.007,0.236,0.065,0.372,0.261,0.473c0.215,0.108,0.381,0.276,0.513,0.473c0.101,0.151,0.198,0.338,0.089,0.509
		c-0.166,0.263-0.369,0.501-0.681,0.61c-0.144,0.05-0.286,0.102-0.433,0.142c-0.38,0.103-0.763,0.196-1.143,0.296
		c-0.215,0.057-0.244,0.099-0.193,0.304c0.09,0.375,0.133,0.761,0.253,1.129c0.013,0.042,0.022,0.093,0.012,0.135
		c-0.046,0.187-0.021,0.378-0.046,0.565c-0.02,0.141,0.021,0.247,0.123,0.345c0.197,0.189,0.373,0.4,0.511,0.637
		c0.191,0.328,0.396,0.645,0.648,0.929c0.122,0.135,0.21,0.294,0.294,0.456c0.111,0.215,0.217,0.436,0.391,0.61
		c0.106,0.108,0.199,0.228,0.289,0.351c0.108,0.149,0.241,0.264,0.433,0.307c0.321,0.073,0.513,0.276,0.571,0.604
		c0.02,0.111,0.043,0.221,0.118,0.314c0.114,0.141,0.219,0.29,0.336,0.43c0.376,0.444,0.771,0.874,1.103,1.353
		c0.229,0.331,0.562,0.567,0.771,0.918c0.188,0.318,0.431,0.604,0.649,0.903c0.156,0.215,0.311,0.43,0.519,0.6
		c0.071,0.059,0.128,0.135,0.152,0.224c0.062,0.233,0.212,0.416,0.34,0.611c0.11,0.171,0.25,0.299,0.437,0.383
		c0.244,0.11,0.457,0.269,0.643,0.462c0.303,0.323,0.426,0.697,0.307,1.129c-0.049,0.176-0.021,0.318,0.065,0.473
		c0.497,0.896,0.999,1.786,1.449,2.705c0.084,0.169,0.163,0.339,0.237,0.512c0.148,0.356,0.272,0.725,0.504,1.041
		c0.046,0.062,0.067,0.137,0.076,0.212c0.013,0.123,0.058,0.234,0.101,0.348c0.263,0.679,0.529,1.355,0.784,2.037
		c0.177,0.475,0.345,0.955,0.502,1.437c0.16,0.487,0.346,0.966,0.441,1.473c0.061,0.328,0.165,0.646,0.238,0.972
		c0.061,0.27,0.16,0.512,0.334,0.734c0.273,0.348,0.367,0.743,0.201,1.175c-0.061,0.153-0.057,0.312-0.031,0.471
		c0.051,0.322,0.095,0.645,0.148,0.966c0.288,1.738,0.412,3.489,0.422,5.248c0.012,1.78,0.004,3.561-0.043,5.341
		c-0.007,0.234-0.017,0.469-0.033,0.702c-0.023,0.323-0.062,0.648,0.111,0.954c0.1,0.177,0.064,0.377-0.049,0.541
		c-0.123,0.178-0.145,0.36-0.098,0.562c0.021,0.084,0.01,0.163-0.018,0.244c-0.023,0.064-0.041,0.132-0.047,0.198
		c-0.047,0.627-0.09,1.254-0.135,1.881c-0.008,0.115-0.006,0.228,0.029,0.338c0.062,0.191,0.038,0.376-0.045,0.553
		c-0.047,0.099-0.068,0.2-0.078,0.307c-0.069,0.762-0.152,1.522-0.211,2.285c-0.032,0.422-0.127,0.839-0.072,1.267
		c0.004,0.029,0,0.062-0.01,0.089c-0.104,0.321-0.094,0.656-0.123,0.987c-0.006,0.082-0.004,0.168-0.037,0.246
		c-0.054,0.127-0.066,0.264-0.084,0.397c-0.103,0.788-0.184,1.578-0.32,2.361c-0.195,1.119-0.35,2.245-0.521,3.369
		c-0.205,1.333-0.495,2.651-0.729,3.979c-0.118,0.671-0.308,1.328-0.355,2.013c-0.003,0.044-0.017,0.089-0.034,0.131
		c-0.086,0.202-0.119,0.423-0.188,0.631c-0.058,0.172-0.03,0.318,0.071,0.471c0.35,0.521,0.453,1.104,0.374,1.716
		c-0.073,0.562-0.343,0.986-0.928,1.136c-0.172,0.044-0.221,0.156-0.245,0.311c-0.127,0.77-0.264,1.539-0.385,2.309
		c-0.156,0.997-0.271,1.996-0.348,3.002c-0.053,0.702-0.106,1.404-0.144,2.108c-0.041,0.786-0.083,1.571-0.075,2.36
		c0.001,0.132,0.018,0.256,0.078,0.374c0.073,0.145,0.075,0.292-0.001,0.438c-0.066,0.124-0.085,0.257-0.077,0.396
		c0.01,0.174,0.02,0.348,0.029,0.521c0.018,0.314,0.143,0.623,0.035,0.942c-0.007,0.02,0.001,0.045,0.002,0.067
		c0.051,0.733,0.104,1.466,0.152,2.199c0.094,1.384,0.279,2.757,0.446,4.133c0.056,0.459,0.138,0.916,0.182,1.372
		c0.09,0.958,0.212,1.911,0.317,2.866c0.128,1.173,0.333,2.339,0.506,3.508c0.252,1.702,0.514,3.401,0.74,5.105
		c0.018,0.133,0.066,0.247,0.138,0.356c0.115,0.179,0.237,0.354,0.337,0.54c0.217,0.408,0.27,0.819-0.023,1.221
		c-0.076,0.105-0.094,0.218-0.074,0.344c0.035,0.232,0.071,0.465,0.1,0.697c0.021,0.178,0.072,0.334,0.199,0.471
		c0.115,0.123,0.162,0.279,0.076,0.44c-0.094,0.173-0.082,0.352-0.055,0.531c0.174,1.192,0.352,2.384,0.523,3.576
		c0.03,0.208,0.103,0.385,0.229,0.557c0.428,0.58,0.547,1.208,0.223,1.88c-0.065,0.135-0.076,0.271-0.058,0.419
		c0.069,0.556,0.146,1.112,0.193,1.67c0.12,1.418,0.271,2.834,0.36,4.254c0.047,0.726,0.105,1.45,0.142,2.177
		c0.04,0.823,0.071,1.648,0.087,2.474c0.021,1.121,0.016,2.242,0.045,3.364c0.008,0.33,0.041,0.636,0.195,0.94
		c0.252,0.494,0.244,0.993-0.09,1.462c-0.064,0.09-0.093,0.188-0.093,0.298c-0.001,0.658-0.003,1.317-0.007,1.977
		c0,0.11,0.029,0.207,0.097,0.296c0.435,0.587,0.603,1.248,0.547,1.971c-0.03,0.394-0.21,0.695-0.589,0.843
		c-0.164,0.064-0.229,0.165-0.242,0.338c-0.047,0.627-0.115,1.253-0.162,1.879c-0.018,0.233-0.082,0.468-0.043,0.701
		c0.031,0.197-0.029,0.393,0.017,0.588c0.013,0.052-0.013,0.104-0.046,0.148c-0.031,0.043-0.054,0.091-0.064,0.144
		c-0.082,0.387-0.143,0.774-0.083,1.17c0.016,0.104,0.001,0.195-0.062,0.279c-0.062,0.081-0.075,0.178-0.088,0.278
		c-0.043,0.329-0.072,0.663-0.145,0.986c-0.08,0.363-0.127,0.73-0.164,1.1c-0.016,0.15-0.005,0.313-0.063,0.446
		c-0.11,0.251-0.128,0.525-0.196,0.785c-0.107,0.411-0.232,0.832-0.222,1.271c0.001,0.036-0.015,0.073-0.028,0.108
		c-0.117,0.312-0.175,0.643-0.256,0.966c-0.023,0.097-0.023,0.194,0.002,0.292c0.029,0.117-0.004,0.225-0.051,0.33
		c-0.235,0.504-0.418,1.021-0.477,1.577c-0.01,0.086-0.043,0.159-0.079,0.234c-0.095,0.2-0.165,0.408-0.185,0.629
		c-0.009,0.099-0.029,0.195-0.064,0.289c-0.12,0.316-0.215,0.647-0.451,0.909c-0.041,0.043-0.062,0.103-0.091,0.157
		c-0.204,0.389-0.394,0.786-0.614,1.166c-0.279,0.48-0.512,0.991-0.973,1.353c-0.588,0.463-1.199,0.876-1.9,1.141
		c-0.129,0.049-0.251,0.106-0.371,0.174c-0.51,0.286-1.037,0.54-1.626,0.615c-0.933,0.12-1.857,0.083-2.767-0.173
		c-0.125-0.035-0.249-0.068-0.381-0.059c-0.107,0.008-0.214-0.013-0.307-0.067c-0.127-0.074-0.267-0.107-0.407-0.138
		c-0.616-0.132-1.219-0.311-1.819-0.497c-0.752-0.233-1.496-0.49-2.22-0.809c-0.257-0.111-0.521-0.202-0.802-0.244
		c-0.166-0.025-0.289,0.024-0.413,0.131c-0.249,0.217-0.396,0.496-0.521,0.79c-0.195,0.464-0.467,0.881-0.748,1.298
		c-0.174,0.257-0.363,0.476-0.666,0.586c-0.119,0.043-0.22,0.133-0.332,0.197c-0.084,0.049-0.169,0.103-0.26,0.135
		c-0.447,0.158-0.902,0.262-1.381,0.198c-0.461-0.059-0.923-0.059-1.385-0.056c-0.689,0.003-1.379,0.006-2.068,0.012
		c-0.136,0-0.272,0.008-0.407,0.024c-0.265,0.035-0.524,0.067-0.786-0.026c-0.076-0.027-0.164-0.035-0.246-0.037
		c-0.506-0.021-0.936-0.236-1.336-0.52c-0.111-0.078-0.258-0.115-0.338-0.228c-0.199-0.284-0.442-0.539-0.6-0.854
		c-0.056-0.11-0.132-0.202-0.239-0.267c-0.208-0.124-0.318-0.317-0.384-0.543c-0.041-0.139-0.058-0.281-0.076-0.425
		c-0.014-0.113-0.08-0.186-0.199-0.17c-0.254,0.03-0.512,0.049-0.747,0.172c-0.054,0.027-0.107,0.057-0.165,0.072
		c-0.532,0.146-1.062,0.302-1.568,0.526c-0.092,0.04-0.187,0.068-0.285,0.074c-0.146,0.008-0.282,0.047-0.412,0.115
		c-0.053,0.029-0.111,0.054-0.17,0.059c-0.387,0.042-0.758,0.155-1.131,0.249c-1.527,0.383-3.076,0.387-4.631,0.257
		c-0.299-0.025-0.573-0.123-0.831-0.282c-0.464-0.287-0.927-0.575-1.38-0.879c-0.102-0.07-0.203-0.133-0.33-0.138
		c-0.129-0.004-0.207-0.072-0.254-0.19c-0.045-0.112-0.088-0.227-0.162-0.324c-0.222-0.291-0.422-0.595-0.585-0.92
		c-0.163-0.326-0.447-0.591-0.479-0.98c-0.002-0.014-0.012-0.026-0.019-0.041c-0.345-0.752-0.628-1.527-0.874-2.315
		c-0.418-1.348-0.742-2.719-1.025-4.1c-0.131-0.643-0.31-1.276-0.367-1.936c-0.041-0.475-0.123-0.945-0.185-1.418
		c-0.013-0.1-0.034-0.194-0.097-0.275c-0.105-0.136-0.125-0.29-0.094-0.454c0.025-0.127,0.023-0.255,0.008-0.384
		c-0.048-0.437-0.097-0.872-0.141-1.31c-0.082-0.807-0.143-1.614-0.199-2.422c-0.059-0.809-0.098-1.618-0.109-2.429
		c-0.02-1.433-0.006-2.863-0.004-4.296c0-0.166,0.018-0.332,0.023-0.498c0.013-0.425,0.032-0.848,0.007-1.272
		c-0.011-0.195-0.019-0.394,0.003-0.588c0.013-0.105,0.031-0.204-0.007-0.309c-0.052-0.14-0.05-0.284,0.003-0.423
		c0.061-0.156,0.06-0.31,0.004-0.466c-0.034-0.096-0.045-0.194-0.008-0.289c0.093-0.24,0.074-0.479-0.005-0.714
		c-0.095-0.28-0.015-0.569-0.06-0.852c-0.003-0.022,0.004-0.046,0.014-0.067c0.1-0.238,0.132-0.473,0.107-0.744
		c-0.029-0.309,0.053-0.627,0.004-0.943c-0.011-0.068,0.011-0.136,0.035-0.2c0.062-0.162,0.069-0.323,0.01-0.488
		c-0.028-0.08-0.049-0.163-0.02-0.244c0.086-0.236-0.017-0.386-0.203-0.52c-0.32-0.23-0.487-0.551-0.519-0.944
		c-0.017-0.208,0.01-0.409,0.067-0.607c0.126-0.436,0.34-0.825,0.635-1.168c0.191-0.226,0.309-0.468,0.33-0.775
		c0.032-0.439-0.055-0.891,0.106-1.32c0.019-0.048,0.015-0.106,0.009-0.159c-0.029-0.294,0.01-0.575,0.064-0.867
		c0.059-0.315,0.078-0.644,0.137-0.964c0.006-0.036,0.014-0.078,0.004-0.112c-0.092-0.318,0.115-0.623,0.041-0.941
		c-0.012-0.051,0.029-0.116,0.058-0.169c0.058-0.107,0.069-0.212,0.02-0.327c-0.085-0.195-0.063-0.385,0.049-0.563
		c0.071-0.112,0.103-0.232,0.126-0.36c0.084-0.471,0.111-0.948,0.184-1.42c0.012-0.081,0.031-0.171-0.01-0.246
		c-0.119-0.231-0.048-0.443,0.057-0.652c0.068-0.137,0.115-0.278,0.135-0.431c0.063-0.473,0.189-0.936,0.191-1.417
		c0-0.059,0.023-0.118,0.035-0.178c0.062-0.303,0.141-0.604,0.109-0.92c-0.006-0.062,0.002-0.123,0.031-0.178
		c0.08-0.15,0.119-0.321,0.109-0.482c-0.018-0.284,0.034-0.548,0.103-0.82c0.048-0.193,0.05-0.401,0.089-0.603
		c0.074-0.386,0.127-0.775,0.195-1.162c0.025-0.143,0.049-0.282,0.018-0.427c-0.022-0.106-0.006-0.213,0.041-0.312
		c0.086-0.182,0.109-0.377,0.119-0.574c0.01-0.241,0-0.484,0.078-0.721c0.018-0.054,0.011-0.12,0-0.179
		c-0.027-0.159,0.004-0.303,0.09-0.434c0.068-0.104,0.096-0.221,0.115-0.341c0.076-0.472,0.098-0.948,0.179-1.419
		c0.08-0.47,0.124-0.945,0.178-1.42c0.05-0.441,0.138-0.881,0.206-1.322c0.169-1.1,0.285-2.207,0.426-3.312
		c0.021-0.171-0.012-0.318-0.105-0.473c-0.231-0.371-0.322-0.78-0.255-1.219c0.077-0.494,0.298-0.92,0.62-1.294
		c0.104-0.122,0.172-0.246,0.186-0.402c0.006-0.068,0.01-0.137,0.02-0.204c0.055-0.35,0.031-0.707,0.143-1.054
		c0.064-0.198,0.105-0.428,0.07-0.627c-0.046-0.261-0.028-0.507,0.01-0.758c0.003-0.016,0-0.031,0.002-0.047
		c0.033-0.192,0.022-0.397,0.113-0.576c0.119-0.233,0.136-0.478,0.098-0.729c-0.012-0.084-0.02-0.165,0.004-0.247
		c0.085-0.311,0.107-0.629,0.104-0.945c-0.004-0.243-0.021-0.48,0.067-0.715c0.03-0.081,0.017-0.181,0.02-0.271
		c0.015-0.544,0.001-1.089,0.037-1.635c0.021-0.329,0.054-0.666-0.054-0.992c-0.02-0.059-0.008-0.12,0.012-0.179
		c0.074-0.214,0.064-0.429,0.02-0.649c-0.045-0.228-0.129-0.457-0.066-0.695c0.074-0.282-0.004-0.571,0.05-0.854
		c0.029-0.155-0.132-0.282-0.099-0.436c0.031-0.156,0.072-0.308,0.056-0.47c-0.03-0.294-0.056-0.588-0.081-0.882
		c-0.087-1.011-0.175-2.022-0.293-3.03c-0.039-0.336-0.039-0.684-0.22-0.989c-0.011-0.02-0.02-0.045-0.017-0.066
		c0.039-0.273-0.065-0.518-0.146-0.769c-0.03-0.094-0.012-0.196-0.007-0.294c0.009-0.184-0.007-0.361-0.087-0.531
		c-0.082-0.175-0.109-0.363-0.091-0.556c0.012-0.126-0.007-0.23-0.085-0.34c-0.136-0.192-0.188-0.412-0.129-0.647
		c0.035-0.146,0.027-0.285-0.068-0.411c-0.064-0.08-0.076-0.179-0.076-0.279c0.002-0.206-0.053-0.404-0.088-0.605
		c-0.014-0.077-0.042-0.149-0.107-0.194c-0.113-0.075-0.161-0.143-0.041-0.263c0.066-0.065,0.036-0.235-0.031-0.296
		c-0.104-0.092-0.135,0.044-0.201,0.071c-0.006,0.003-0.012,0.01-0.018,0.015c-0.059,0.041-0.105,0.021-0.127-0.038
		c-0.06-0.169-0.152-0.341,0.009-0.506c0.036-0.037,0.056-0.079,0.028-0.121c-0.092-0.137-0.035-0.264,0.025-0.387
		c0.059-0.123,0.068-0.241,0.037-0.374c-0.086-0.377-0.164-0.756-0.244-1.134c-0.021-0.095-0.04-0.192-0.086-0.281
		c-0.063-0.122-0.096-0.254-0.123-0.388c-0.039-0.185-0.083-0.371-0.236-0.504c-0.258-0.225-0.36-0.514-0.359-0.851
		c0.001-0.233,0.07-0.446,0.168-0.654c0.041-0.088,0.096-0.176,0.076-0.279c-0.078-0.409-0.127-0.824-0.363-1.188
		c-0.143-0.218-0.186-0.457-0.092-0.716c0.092-0.257,0.077-0.296-0.17-0.43c-0.168-0.09-0.292-0.216-0.379-0.38
		c-0.221-0.416-0.287-0.86-0.224-1.322c0.027-0.195,0.099-0.376,0.224-0.539c0.125-0.165,0.191-0.357,0.153-0.575
		c-0.034-0.201-0.063-0.405-0.085-0.607c-0.021-0.212-0.094-0.386-0.262-0.532c-0.252-0.221-0.357-0.514-0.366-0.85
		c-0.009-0.324,0.048-0.639,0.17-0.934c0.122-0.294,0.117-0.586,0.083-0.892c-0.09-0.797-0.171-1.596-0.253-2.395
		c-0.039-0.386-0.06-0.771-0.11-1.153c-0.059-0.451-0.086-0.906-0.102-1.358c-0.021-0.636-0.078-1.27-0.106-1.904
		c-0.003-0.078-0.021-0.151-0.067-0.214c-0.236-0.331-0.213-0.682-0.084-1.04c0.023-0.064,0.054-0.126,0.07-0.192
		c0.043-0.174,0.049-0.343-0.055-0.503c-0.223-0.348-0.211-0.702-0.009-1.053c0.075-0.132,0.103-0.264,0.103-0.412
		c-0.004-0.397-0.102-0.796-0.002-1.193c-0.002-1.038-0.006-2.075-0.006-3.114c0-0.15-0.04-0.276-0.143-0.392
		c-0.328-0.369-0.383-0.792-0.238-1.254c0.066-0.211,0.172-0.403,0.294-0.587c0.096-0.145,0.144-0.3,0.136-0.472
		c-0.021-0.438,0.061-0.877,0.009-1.315c-0.005-0.05,0.015-0.104,0.026-0.155c0.016-0.059,0.037-0.117,0.027-0.179
		c-0.031-0.218,0.016-0.436,0.01-0.654c-0.004-0.121-0.023-0.215-0.092-0.314c-0.213-0.299-0.287-0.628-0.199-0.991
		c0.055-0.23,0.139-0.448,0.275-0.643c0.155-0.22,0.349-0.423,0.327-0.725c0.174-0.563,0.306-1.139,0.448-1.713
		c0.082-0.334,0.064-0.695,0.264-0.998c0.182-0.719,0.467-1.41,0.578-2.147c0.008-0.052,0.025-0.104,0.051-0.15
		c0.069-0.119,0.113-0.247,0.143-0.382c0.022-0.104,0.065-0.201,0.129-0.289c0.071-0.099,0.121-0.209,0.166-0.321
		c0.254-0.641,0.509-1.281,0.797-1.908c0.061-0.133,0.071-0.256,0.013-0.393c-0.073-0.172-0.071-0.352-0.036-0.536
		c0.124-0.612,0.424-1.112,0.941-1.474c0.252-0.177,0.396-0.415,0.421-0.72c0.028-0.352,0.179-0.638,0.446-0.864
		c0.083-0.069,0.146-0.152,0.181-0.257c0.054-0.16,0.142-0.3,0.265-0.419c0.049-0.047,0.098-0.095,0.108-0.167
		c0.03-0.194,0.087-0.385,0.004-0.581c-0.048-0.114-0.033-0.239-0.012-0.359c0.054-0.307,0.187-0.573,0.399-0.801
		c0.211-0.227,0.462-0.392,0.736-0.525c0.088-0.043,0.188-0.074,0.238-0.166c0.145-0.26,0.373-0.452,0.553-0.684
		c0.086-0.11,0.138-0.209,0.088-0.351c-0.059-0.167-0.023-0.327,0.051-0.484c0.143-0.301,0.402-0.458,0.684-0.604
		c0.328-0.171,0.621-0.38,0.725-0.767c0.014-0.051,0.034-0.092,0.097-0.113c0.323-0.108,0.454-0.306,0.442-0.644
		c-0.003-0.067-0.01-0.137,0.003-0.202c0.033-0.198,0.117-0.276,0.321-0.308c0.083-0.013,0.152-0.046,0.178-0.123
		c0.086-0.252,0.295-0.352,0.521-0.433c0.094-0.033,0.178-0.082,0.246-0.155c0.104-0.109,0.203-0.225,0.309-0.333
		c0.199-0.205,0.327-0.472,0.57-0.639c0.113-0.076,0.148-0.202,0.163-0.338c0.024-0.235,0.163-0.385,0.386-0.456
		c0.078-0.025,0.16-0.043,0.242-0.058c0.102-0.017,0.189-0.055,0.266-0.121c0.141-0.126,0.281-0.254,0.424-0.376
		c0.119-0.102,0.17-0.222,0.16-0.381c-0.023-0.409,0.111-0.773,0.342-1.107c0.104-0.152,0.222-0.292,0.363-0.404
		c0.131-0.104,0.163-0.22,0.129-0.379c-0.053-0.244-0.078-0.494-0.041-0.745c0.011-0.077-0.002-0.151-0.039-0.22
		c-0.168-0.307-0.168-0.602,0.045-0.895c0.094-0.129,0.055-0.201-0.104-0.244c-0.058-0.018-0.118-0.028-0.178-0.03
		c-0.162-0.002-0.312-0.05-0.463-0.102c-0.286-0.098-0.574-0.215-0.871-0.253c-0.233-0.03-0.395-0.137-0.545-0.284
		c-0.388-0.377-0.209-1.12,0.327-1.205c0.126-0.02,0.251-0.064,0.362-0.13c0.129-0.075,0.149-0.171,0.043-0.275
		c-0.162-0.159-0.228-0.354-0.257-0.568c-0.015-0.107-0.046-0.206-0.106-0.296c-0.193-0.284-0.158-0.565,0.047-0.819
		c0.129-0.16,0.131-0.317,0.106-0.507c-0.05-0.383-0.08-0.771,0.065-1.143c0.096-0.241,0.098-0.484,0.077-0.736
		c-0.06-0.704-0.049-1.409,0.088-2.104c0.075-0.381,0.119-0.764,0.144-1.147c0.02-0.312,0.045-0.62,0.082-0.929
		c0.01-0.085,0.006-0.166-0.027-0.246c-0.131-0.316-0.066-0.614,0.119-0.884c0.136-0.196,0.226-0.409,0.295-0.635
		c0.061-0.197,0.143-0.384,0.277-0.542c0.134-0.156,0.278-0.3,0.412-0.456c0.091-0.106,0.201-0.187,0.332-0.229
		c0.121-0.039,0.215-0.1,0.291-0.203c0.104-0.142,0.254-0.208,0.428-0.232c0.365-0.049,0.73-0.102,1.097-0.154
		c0.149-0.022,0.301-0.036,0.44-0.104c0.07-0.033,0.147-0.032,0.224-0.023c0.091,0.011,0.181,0,0.271-0.015
		c1.079-0.173,2.165-0.252,3.255-0.287c0.158-0.006,0.32-0.048,0.475-0.028c0.288,0.038,0.575,0.021,0.863,0.024
		c0.082,0.001,0.168,0,0.244-0.038C35.392,1.493,35.651,1.437,35.909,1.381z"/>
	<path fill="#A3134D" d="M35.909,1.381c0.046,0,0.092,0,0.137,0c0.189,0.05,0.394,0.048,0.572,0.139
		c0.241,0.122,0.49,0.156,0.763,0.167c0.672,0.025,1.346,0.031,2.015,0.126c0.428,0.06,0.861,0.066,1.29,0.108
		c0.731,0.073,1.462,0.143,2.179,0.318c0.514,0.126,1.021,0.259,1.502,0.49c0.477,0.23,0.854,0.572,1.188,0.969
		c0.033,0.041,0.064,0.09,0.075,0.14c0.073,0.317,0.196,0.623,0.226,0.95c0.016,0.16,0.055,0.31,0.131,0.453
		c0.071,0.134,0.104,0.283,0.113,0.438c0.021,0.323,0.035,0.65,0.072,0.973c0.092,0.829,0.188,1.656,0.117,2.492
		c-0.023,0.295-0.035,0.59-0.058,0.884c-0.013,0.178,0.01,0.345,0.089,0.509c0.08,0.163,0.135,0.338,0.164,0.518
		c0.059,0.352,0.057,0.697-0.154,1.007c-0.078,0.114-0.084,0.237-0.069,0.37c0.054,0.458,0.106,0.919,0.096,1.379
		c-0.007,0.236,0.065,0.372,0.261,0.473c0.215,0.108,0.381,0.276,0.513,0.473c0.101,0.151,0.198,0.338,0.089,0.509
		c-0.166,0.263-0.369,0.501-0.681,0.61c-0.144,0.05-0.286,0.102-0.433,0.142c-0.38,0.103-0.763,0.196-1.143,0.296
		c-0.215,0.057-0.244,0.099-0.193,0.304c0.09,0.375,0.133,0.761,0.253,1.129c0.013,0.042,0.022,0.093,0.012,0.135
		c-0.046,0.187-0.021,0.378-0.046,0.565c-0.02,0.141,0.021,0.247,0.123,0.345c0.197,0.189,0.373,0.4,0.511,0.637
		c0.191,0.328,0.396,0.645,0.648,0.929c0.122,0.135,0.21,0.294,0.294,0.456c0.111,0.215,0.217,0.436,0.391,0.61
		c0.106,0.108,0.199,0.228,0.289,0.351c0.108,0.149,0.241,0.264,0.433,0.307c0.321,0.073,0.513,0.276,0.571,0.604
		c0.02,0.111,0.043,0.221,0.118,0.314c0.114,0.141,0.219,0.29,0.336,0.43c0.376,0.444,0.771,0.874,1.103,1.353
		c0.229,0.331,0.562,0.567,0.771,0.918c0.188,0.318,0.431,0.604,0.649,0.903c0.156,0.215,0.311,0.43,0.519,0.6
		c0.071,0.059,0.128,0.135,0.152,0.224c0.062,0.233,0.212,0.416,0.34,0.611c0.11,0.171,0.25,0.299,0.437,0.383
		c0.244,0.11,0.457,0.269,0.643,0.462c0.303,0.323,0.426,0.697,0.307,1.129c-0.049,0.176-0.021,0.318,0.065,0.473
		c0.497,0.896,0.999,1.786,1.449,2.705c0.084,0.169,0.163,0.339,0.237,0.512c0.148,0.356,0.272,0.725,0.504,1.041
		c0.046,0.062,0.067,0.137,0.076,0.212c0.013,0.123,0.058,0.234,0.101,0.348c0.263,0.679,0.529,1.355,0.784,2.037
		c0.177,0.475,0.345,0.955,0.502,1.437c0.16,0.487,0.346,0.966,0.441,1.473c0.061,0.328,0.165,0.646,0.238,0.972
		c0.061,0.27,0.16,0.512,0.334,0.734c0.273,0.348,0.367,0.743,0.201,1.175c-0.061,0.153-0.057,0.312-0.031,0.471
		c0.051,0.322,0.095,0.645,0.148,0.966c0.288,1.738,0.412,3.489,0.422,5.248c0.012,1.78,0.004,3.561-0.043,5.341
		c-0.007,0.234-0.017,0.469-0.033,0.702c-0.023,0.323-0.062,0.648,0.111,0.954c0.1,0.177,0.064,0.377-0.049,0.541
		c-0.123,0.178-0.145,0.36-0.098,0.562c0.021,0.084,0.01,0.163-0.018,0.244c-0.023,0.064-0.041,0.132-0.047,0.198
		c-0.047,0.627-0.09,1.254-0.135,1.881c-0.008,0.115-0.006,0.228,0.029,0.338c0.062,0.191,0.038,0.376-0.045,0.553
		c-0.047,0.099-0.068,0.2-0.078,0.307c-0.069,0.762-0.152,1.522-0.211,2.285c-0.032,0.422-0.127,0.839-0.072,1.267
		c0.004,0.029,0,0.062-0.01,0.089c-0.104,0.321-0.094,0.656-0.123,0.987c-0.006,0.082-0.004,0.168-0.037,0.246
		c-0.054,0.127-0.066,0.264-0.084,0.397c-0.103,0.788-0.184,1.578-0.32,2.361c-0.195,1.119-0.35,2.245-0.521,3.369
		c-0.205,1.333-0.495,2.651-0.729,3.979c-0.118,0.671-0.308,1.328-0.355,2.013c-0.003,0.044-0.017,0.089-0.034,0.131
		c-0.086,0.202-0.119,0.423-0.188,0.631c-0.058,0.172-0.03,0.318,0.071,0.471c0.35,0.521,0.453,1.104,0.374,1.716
		c-0.073,0.562-0.343,0.986-0.928,1.136c-0.172,0.044-0.221,0.156-0.245,0.311c-0.127,0.77-0.264,1.539-0.385,2.309
		c-0.156,0.997-0.271,1.996-0.348,3.002c-0.053,0.702-0.106,1.404-0.144,2.108c-0.041,0.786-0.083,1.571-0.075,2.36
		c0.001,0.132,0.018,0.256,0.078,0.374c0.073,0.145,0.075,0.292-0.001,0.438c-0.066,0.124-0.085,0.257-0.077,0.396
		c0.01,0.174,0.02,0.348,0.029,0.521c0.018,0.314,0.143,0.623,0.035,0.942c-0.007,0.02,0.001,0.045,0.002,0.067
		c0.051,0.733,0.104,1.466,0.152,2.199c0.094,1.384,0.279,2.757,0.446,4.133c0.056,0.459,0.138,0.916,0.182,1.372
		c0.09,0.958,0.212,1.911,0.317,2.866c0.128,1.173,0.333,2.339,0.506,3.508c0.252,1.702,0.514,3.401,0.74,5.105
		c0.018,0.133,0.066,0.247,0.138,0.356c0.115,0.179,0.237,0.354,0.337,0.54c0.217,0.408,0.27,0.819-0.023,1.221
		c-0.076,0.105-0.094,0.218-0.074,0.344c0.035,0.232,0.071,0.465,0.1,0.697c0.021,0.178,0.072,0.334,0.199,0.471
		c0.115,0.123,0.162,0.279,0.076,0.44c-0.094,0.173-0.082,0.352-0.055,0.531c0.174,1.192,0.352,2.384,0.523,3.576
		c0.03,0.208,0.103,0.385,0.229,0.557c0.428,0.58,0.547,1.208,0.223,1.88c-0.065,0.135-0.076,0.271-0.058,0.419
		c0.069,0.556,0.146,1.112,0.193,1.67c0.12,1.418,0.271,2.834,0.36,4.254c0.047,0.726,0.105,1.45,0.142,2.177
		c0.04,0.823,0.071,1.648,0.087,2.474c0.021,1.121,0.016,2.242,0.045,3.364c0.008,0.33,0.041,0.636,0.195,0.94
		c0.252,0.494,0.244,0.993-0.09,1.462c-0.064,0.09-0.093,0.188-0.093,0.298c-0.001,0.658-0.003,1.317-0.007,1.977
		c0,0.11,0.029,0.207,0.097,0.296c0.435,0.587,0.603,1.248,0.547,1.971c-0.03,0.394-0.21,0.695-0.589,0.843
		c-0.164,0.064-0.229,0.165-0.242,0.338c-0.047,0.627-0.115,1.253-0.162,1.879c-0.018,0.233-0.082,0.468-0.043,0.701
		c0.031,0.197-0.029,0.393,0.017,0.588c0.013,0.052-0.013,0.104-0.046,0.148c-0.031,0.043-0.054,0.091-0.064,0.144
		c-0.082,0.387-0.143,0.774-0.083,1.17c0.016,0.104,0.001,0.195-0.062,0.279c-0.062,0.081-0.075,0.178-0.088,0.278
		c-0.043,0.329-0.072,0.663-0.145,0.986c-0.08,0.363-0.127,0.73-0.164,1.1c-0.016,0.15-0.005,0.313-0.063,0.446
		c-0.11,0.251-0.128,0.525-0.196,0.785c-0.107,0.411-0.232,0.832-0.222,1.271c0.001,0.036-0.015,0.073-0.028,0.108
		c-0.117,0.312-0.175,0.643-0.256,0.966c-0.023,0.097-0.023,0.194,0.002,0.292c0.029,0.117-0.004,0.225-0.051,0.33
		c-0.235,0.504-0.418,1.021-0.477,1.577c-0.01,0.086-0.043,0.159-0.079,0.234c-0.095,0.2-0.165,0.408-0.185,0.629
		c-0.009,0.099-0.029,0.195-0.064,0.289c-0.12,0.316-0.215,0.647-0.451,0.909c-0.041,0.043-0.062,0.103-0.091,0.157
		c-0.204,0.389-0.394,0.786-0.614,1.166c-0.279,0.48-0.512,0.991-0.973,1.353c-0.588,0.463-1.199,0.876-1.9,1.141
		c-0.129,0.049-0.251,0.106-0.371,0.174c-0.51,0.286-1.037,0.54-1.626,0.615c-0.933,0.12-1.857,0.083-2.767-0.173
		c-0.125-0.035-0.249-0.068-0.381-0.059c-0.107,0.008-0.214-0.013-0.307-0.067c-0.127-0.074-0.267-0.107-0.407-0.138
		c-0.616-0.132-1.219-0.311-1.819-0.497c-0.752-0.233-1.496-0.49-2.22-0.809c-0.257-0.111-0.521-0.202-0.802-0.244
		c-0.166-0.025-0.289,0.024-0.413,0.131c-0.249,0.217-0.396,0.496-0.521,0.79c-0.195,0.464-0.467,0.881-0.748,1.298
		c-0.174,0.257-0.363,0.476-0.666,0.586c-0.119,0.043-0.22,0.133-0.332,0.197c-0.084,0.049-0.169,0.103-0.26,0.135
		c-0.447,0.158-0.902,0.262-1.381,0.198c-0.461-0.059-0.923-0.059-1.385-0.056c-0.272,0.002-0.545,0.003-0.816,0.003L35.909,1.381z"
		/>
</g>
<g>
	<path fill="#C4E4F9" d="M3.051,58.268l1.619-9.049l-0.574,0.004l-1.745,9.75c0,0-0.742,2.398,2.016,2.382l0.522-0.003l0.126-0.702
		C2.319,60.635,3.051,58.268,3.051,58.268"/>
	<rect x="30.37" y="51.265" fill="#2B295F" width="3.292" height="6.603"/>
	<path fill="#67A9DF" d="M62.546,52.245c-0.607-8.849-12.192-17.681-25.947-16.735c-13.753,0.945-24.409,8.885-23.802,17.736
		L62.546,52.245z"/>
	<g>
		<g>
			<defs>
				<rect id="SVGID_1_{$id}" x="12.772" y="35.439" width="49.774" height="17.805"/>
			</defs>
			<clipPath id="SVGID_2_{$id}">
				<use xlink:href="#SVGID_1_"  overflow="visible"/>
			</clipPath>
			<g clip-path="url(#SVGID_2_{$id})">
				<defs>
					<path id="SVGID_3_{$id}" d="M62.547,52.245c-0.608-8.849-12.193-17.681-25.949-16.736c-13.753,0.946-24.408,8.886-23.801,17.736
						L62.547,52.245z"/>
				</defs>
				<clipPath id="SVGID_4_{$id}">
					<use xlink:href="#SVGID_3_"  overflow="visible"/>
				</clipPath>
				
					<linearGradient id="SVGID_5_{$id}" gradientUnits="userSpaceOnUse" x1="-291.6089" y1="236.4673" x2="-291.2564" y2="236.4673" gradientTransform="matrix(-9.9829 -57.6015 -64.2261 9.8255 12315.6455 -19064.6953)">
					<stop  offset="0" style="stop-color:#FFFFFF"/>
					<stop  offset="0.2913" style="stop-color:#FFFFFF"/>
					<stop  offset="1" style="stop-color:#2B295F"/>
				</linearGradient>
				<polygon clip-path="url(#SVGID_4_{$id})" fill="url(#SVGID_5_{$id})" points="13.489,60.75 9.035,35.046 61.245,27.059 65.701,52.762 				
					"/>
			</g>
		</g>
	</g>
	<path fill="#21274C" d="M11.861,55.916c-0.447-9.745,10.216-18.151,23.817-18.775c13.601-0.625,24.891,9.431,25.338,19.175"/>
	<path fill="#2B295F" d="M62.546,54.005c0,1.315-0.783,2.382-1.751,2.382c-0.967,0-1.751-1.066-1.751-2.382
		c0-1.316,0.784-2.383,1.751-2.383C61.763,51.622,62.546,52.688,62.546,54.005"/>
	<path fill="#67A9DF" d="M15.029,60.06c0.934,8.875,12.902,17.333,26.695,15.883c13.795-1.451,24.221-9.822,23.286-18.697
		L15.029,60.06z"/>
	<g>
		<g>
			<defs>
				<rect id="SVGID_6_{$id}" x="15.029" y="57.246" width="50.04" height="18.86"/>
			</defs>
			<clipPath id="SVGID_7_{$id}">
				<use xlink:href="#SVGID_6_"  overflow="visible"/>
			</clipPath>
			<g clip-path="url(#SVGID_7_{$id})">
				<defs>
					<path id="SVGID_8_{$id}" d="M15.029,60.06c0.934,8.875,12.902,17.334,26.695,15.883c13.795-1.451,24.221-9.822,23.286-18.697
						L15.029,60.06z"/>
				</defs>
				<clipPath id="SVGID_9_{$id}">
					<use xlink:href="#SVGID_8_"  overflow="visible"/>
				</clipPath>
				
					<linearGradient id="SVGID_10_{$id}" gradientUnits="userSpaceOnUse" x1="-289.939" y1="241.4995" x2="-289.5868" y2="241.4995" gradientTransform="matrix(12.1268 57.5464 64.2133 -12.2093 -11953.5029 19689.1562)">
					<stop  offset="0" style="stop-color:#FFFFFF"/>
					<stop  offset="0.2913" style="stop-color:#FFFFFF"/>
					<stop  offset="1" style="stop-color:#2B295F"/>
				</linearGradient>
				<polygon clip-path="url(#SVGID_9_{$id})" fill="url(#SVGID_10_{$id})" points="63.982,47.938 70.027,76.618 16.991,86.702 10.948,58.022 
									"/>
			</g>
		</g>
	</g>
	<rect x="30.075" y="51.206" fill="#21274C" width="3.312" height="6.644"/>
	<path fill="#21274C" d="M65.855,54.529c0.804,9.78-9.611,18.618-23.264,19.741c-13.651,1.122-25.367-8.577-26.171-18.358"/>
	<path fill="#21274C" d="M70.654,47.742c-0.238-0.377-0.597-0.644-1.017-0.782c0.062-0.147,0.111-0.301,0.147-0.462
		c0.158-0.711,0.033-1.443-0.358-2.058c-0.228-0.357-0.526-0.648-0.878-0.863c0.185-0.223,0.323-0.489,0.391-0.79
		c0.109-0.489,0.021-0.993-0.246-1.416c-0.27-0.423-0.687-0.717-1.176-0.827c-0.135-0.03-0.273-0.045-0.411-0.045
		c-0.886,0-1.639,0.604-1.831,1.468c-0.11,0.489-0.022,0.992,0.245,1.416c0.047,0.072,0.103,0.135,0.155,0.2
		c-0.604,0.375-1.053,0.981-1.219,1.722c-0.095,0.426-0.085,0.858,0.02,1.269c-0.933,0.091-1.794,0.54-2.406,1.234
		c-0.443-0.081-0.905-0.121-1.377-0.121h-0.05c-1.222,0.007-2.332,0.276-3.317,0.704l0.346-0.457l-11.41,0.069l-5.763,0.036
		l-9.636,0.058l0,0l-0.651,0.004c-2.942,0.018-3.812,1.837-3.878,2.895l-0.969,5.412c-0.234,1.31-0.42,1.367-0.829,1.369
		c-0.031,0-0.058-0.001-0.079-0.002c-0.022-0.124-0.024-0.386,0.073-0.94l1.018-5.681c0.222-0.968-0.084-1.621-0.383-2
		c-0.693-0.88-1.915-1.012-2.581-1.012c-0.123,0-0.217,0.005-0.272,0.008l-1.678,0.01l-0.356,1.994
		c-0.189-0.305-0.414-0.582-0.679-0.822c-0.96-0.852-2.021-1.139-4.201-1.139l-4.958,0.029v0l-7.664,0.046L0.87,58.914
		c-0.094,0.357-0.348,1.618,0.41,2.645c0.388,0.526,1.172,1.153,2.707,1.153l1.522-0.01l0.829-4.628l2.341-0.014l-0.829,4.628
		l2.61-0.015c1.872-0.011,2.787-1.06,3.078-2.04l4.711,7.264l0.059,0.082c0.066,0.085,1.663,2.098,4.234,2.098h0.001
		c0.884,0,1.769-0.237,2.632-0.707c0.45-0.245,0.695-0.723,0.626-1.219c-0.037-0.256-0.216-0.87-1.096-1.065l-0.132-0.033
		l-0.128,0.004c-0.318-0.078-1.151-0.74-1.774-1.404l-4.876-7.678c0.47-0.241,0.887-0.545,1.254-0.891
		c-0.223,1.572-0.097,2.697,0.858,3.998c1.176,1.569,3.296,1.739,4.154,1.739h0.041c1.685-0.01,3.158-0.554,4.381-1.617
		c1.256-1.091,1.889-2.325,2.261-4.404l0.655-3.664l0.728-0.004l-1.1,6.15c-0.056,0.266-0.229,1.366,0.475,2.26
		c0.356,0.452,1.055,0.991,2.363,0.991h0.003l2.027-0.013l4.651-0.027l-0.004,0.007l16.009-0.104
		c0.565,0.139,1.159,0.219,1.783,0.219h0.049c4.146-0.026,7.961-3.231,8.689-7.297c0.136-0.766,0.156-1.517,0.058-2.243
		c0.636-0.516,1.093-1.237,1.273-2.047c0.034-0.148,0.055-0.297,0.069-0.445c0.051,0.015,0.099,0.037,0.15,0.049
		c0.139,0.031,0.279,0.046,0.42,0.046c0.898,0,1.664-0.614,1.862-1.492C71.018,48.684,70.929,48.172,70.654,47.742"/>
	<path fill="#FFFFFF" d="M2.333,58.969l1.744-9.75l6.624-0.04l-0.487,2.725l-3.656,0.022l-0.371,2.068l3.525-0.021l-0.487,2.725
		L5.7,56.719l-0.829,4.628l-0.523,0.003C1.591,61.368,2.333,58.969,2.333,58.969 M10.785,61.312l-1.218,0.007l2.174-12.147
		l3.837-0.022c2.132-0.013,2.903,0.244,3.583,0.846c0.859,0.782,1.122,2.06,0.898,3.308c-0.251,1.395-1.339,3.451-3.701,3.843
		l5.724,9.012c0,0,1.725,1.895,2.703,1.854c0,0,0.297,0.066,0.168,0.137c-3.199,1.739-5.4-1.085-5.4-1.085l-6.282-9.687h-0.033
		l-0.421,2.351C12.816,59.728,12.82,61.299,10.785,61.312 M13.616,55.26l1.099-0.007c1.82-0.011,2.239-1.161,2.345-1.751
		c0.197-1.1-0.51-1.637-1.706-1.63l-1.131,0.007L13.616,55.26z M24.743,50.716l-1.021,5.712c-0.147,0.821-0.365,2.314,1.159,2.305
		c1.541-0.009,1.782-1.355,1.955-2.324l0.982-5.488c0,0,0.012-1.846,2.73-1.863l0.698-0.004l-1.312,7.337
		c-0.364,2.035-0.967,2.94-1.879,3.733c-0.932,0.809-2.121,1.324-3.629,1.334c-0.886,0.004-2.454-0.199-3.262-1.276
		c-0.802-1.094-0.863-1.947-0.543-3.735l1.313-7.338l0.75-0.004C22.687,49.105,25.183,48.896,24.743,50.716 M32.496,59.3l1.349-7.54
		l-2.167,0.013l0.487-2.725l7.279-0.044l-0.487,2.725l-2.014,0.012l-1.686,9.422l-1.062,0.006
		C32.045,61.169,32.496,59.3,32.496,59.3 M36.951,59.119l5.502-7.412l-2.676,0.016l0.488-2.724l6.151-0.038l-0.449,2.511
		l-5.107,6.935l3.442-0.021l-1.954,2.734l-5.762,0.036L36.951,59.119z M53.757,60.101c-0.442-0.526-0.781-1.123-1.018-1.766
		l-4.099,0.025l5.104-6.934l1.914-2.521l-8.097,0.05l-0.486,2.725l3.155-0.019l-7.037,9.457l1.172-0.011l10.41-0.063
		C54.4,60.773,54.059,60.458,53.757,60.101 M67.281,42.877c0.387,0.087,0.772-0.157,0.859-0.545
		c0.087-0.387-0.156-0.771-0.546-0.858c-0.388-0.087-0.771,0.157-0.858,0.545C66.649,42.405,66.894,42.791,67.281,42.877
		 M65.708,47.571c-1.159-0.26-2.307,0.329-2.804,1.35c-0.581-0.184-1.225-0.283-1.923-0.279c-3.394,0.021-5.688,2.315-6.608,3.894
		c-0.521,0.889-0.796,1.792-0.94,2.596c-0.558,3.119,1.458,6.14,5.276,6.117c3.771-0.022,6.95-2.96,7.556-6.342
		c0.164-0.917,0.124-1.797-0.093-2.594c0.701-0.312,1.254-0.938,1.436-1.745C67.909,49.216,67.058,47.874,65.708,47.571
		 M63.163,54.942c-0.279,1.559-1.704,3.569-3.9,3.583c-2.082,0.012-3.034-1.721-2.7-3.592c0.308-1.707,1.799-3.553,3.947-3.565
		C62.741,51.354,63.445,53.366,63.163,54.942 M67.795,44.166c-0.846-0.189-1.688,0.344-1.876,1.19
		c-0.19,0.847,0.343,1.687,1.19,1.877c0.847,0.189,1.688-0.344,1.877-1.191C69.175,45.196,68.644,44.355,67.795,44.166
		 M69.537,47.83c-0.403-0.091-0.805,0.164-0.895,0.568c-0.09,0.404,0.164,0.806,0.568,0.896c0.404,0.091,0.806-0.164,0.896-0.569
		C70.198,48.322,69.942,47.92,69.537,47.83"/>
	<path fill="#C4E4F9" d="M34.948,60.498c-2.151,0-1.7-1.869-1.7-1.869l1.348-7.541l-2.167,0.013l0.37-2.067l-0.64,0.005
		l-0.485,2.725l2.167-0.014l-1.35,7.541c0,0-0.451,1.868,1.7,1.868l1.062-0.005l0.118-0.659L34.948,60.498z"/>
	<path fill="#C4E4F9" d="M26.437,57.849c0.804-0.4,0.983-1.384,1.118-2.14l0.982-5.488c0,0,0.003-0.345,0.224-0.738
		c-0.917,0.55-0.924,1.442-0.924,1.442l-0.981,5.488C26.773,56.868,26.676,57.405,26.437,57.849"/>
	<polygon fill="#C4E4F9" points="39.102,51.031 37.068,51.04 36.943,51.741 38.976,51.732 	"/>
	<path fill="#C4E4F9" d="M62.223,57.001c0.91-0.73,1.492-1.824,1.657-2.76c0.283-1.576-0.422-3.588-2.651-3.575
		c-1.271,0.008-2.311,0.66-3.014,1.542c0.631-0.503,1.415-0.832,2.314-0.837c2.228-0.013,2.934,2,2.651,3.576
		C63.062,55.613,62.731,56.362,62.223,57.001"/>
	<polygon fill="#C4E4F9" points="6.558,51.926 10.231,51.907 10.356,51.207 6.683,51.225 	"/>
	<path fill="#C4E4F9" d="M59.428,60.548c-3.82,0.023-5.835-2.997-5.275-6.116c0.143-0.804,0.419-1.708,0.938-2.596
		c0.217-0.371,0.512-0.781,0.875-1.192c-0.703,0.629-1.235,1.312-1.574,1.897c-0.521,0.888-0.796,1.792-0.94,2.596
		c-0.26,1.446,0.035,2.871,0.808,3.981c0.071,0.095,0.14,0.191,0.218,0.282c0.294,0.349,0.625,0.654,0.988,0.921
		c0.854,0.59,1.952,0.94,3.263,0.933c2.282-0.014,4.347-1.098,5.755-2.698C63.13,59.761,61.356,60.537,59.428,60.548"/>
	<path fill="#C4E4F9" d="M45.083,60.406l-1.17,0.01l7.037-9.456l-3.156,0.018l0.361-2.023l-0.573,0.003l-0.488,2.725l3.155-0.019
		l-7.036,9.457l1.171-0.01l10.409-0.062c-0.283-0.207-0.551-0.439-0.793-0.696L45.083,60.406z"/>
	<polygon fill="#C4E4F9" points="37.305,60.454 37.669,58.418 43.172,51.006 40.495,51.023 40.857,48.999 40.283,49.002 
		39.795,51.728 42.472,51.711 36.969,59.123 36.604,61.158 42.367,61.123 42.87,60.42 	"/>
	<path fill="#C4E4F9" d="M24.804,68.016c-0.134,0.006-0.281-0.027-0.437-0.084c-2.477,0.505-4.097-1.569-4.097-1.569l-6.874-9.524
		h-0.033l-0.093,0.539l6.3,9.69c0,0,2.201,2.824,5.4,1.084C25.101,68.082,24.804,68.016,24.804,68.016"/>
	<polygon fill="#C4E4F9" points="5.825,56.018 5.7,56.719 9.243,56.701 9.368,56 	"/>
	<path fill="#C4E4F9" d="M25.146,60.757c-0.886,0.006-2.454-0.198-3.262-1.276c-0.802-1.094-0.863-1.946-0.543-3.735l1.188-6.636
		l-0.575,0.003l-1.313,7.338c-0.32,1.788-0.259,2.641,0.544,3.734c0.807,1.077,2.376,1.281,3.261,1.276
		c1.509-0.01,2.698-0.524,3.63-1.334c0.24-0.209,0.459-0.428,0.657-0.671C27.808,60.246,26.632,60.749,25.146,60.757"/>
	<path fill="#C4E4F9" d="M11.503,60.612l-1.217,0.007l2.048-11.446l-0.573,0.004L9.586,61.322l1.218-0.007
		c1.153-0.006,1.651-0.513,1.866-0.953C12.386,60.509,12.008,60.607,11.503,60.612"/>
	<path fill="#21274C" d="M46.674,42.118c-0.109-0.203-0.322-0.329-0.553-0.329h-0.962c-0.426,0.007-0.804,0.233-1.041,0.626
		l-0.526,0.799c-0.318-0.424-0.818-0.676-1.363-0.677h-1.045c-0.021,0-0.045,0.001-0.064,0.004
		c-0.024-0.003-0.051-0.005-0.075-0.005l-2.087,0.001c-0.437,0-0.826,0.213-1.069,0.543l-0.003-0.021
		c-0.021-0.119-0.075-0.224-0.149-0.309c0.375-0.418,0.445-0.858,0.456-0.982c0.032-0.282-0.073-0.466-0.167-0.573
		c-0.131-0.145-0.312-0.225-0.516-0.225c-0.075,0-0.146,0.012-0.203,0.025C37.264,40.999,37.227,41,37.188,41
		c-0.077,0-0.144-0.008-0.228-0.02c-0.104-0.013-0.232-0.03-0.394-0.03H36.56c0.014-0.309-0.044-0.633-0.203-0.93
		c-0.099-0.184-0.237-0.427-0.347-0.621c-0.064-0.113-0.119-0.21-0.149-0.265c-0.196-0.362-0.507-0.401-0.631-0.401
		c-0.269,0-0.508,0.155-0.635,0.406c-0.061,0.106-0.352,0.616-0.492,0.881c-0.16,0.299-0.215,0.625-0.198,0.934
		c-0.177,0.001-0.326,0.023-0.448,0.04c-0.081,0.012-0.149,0.021-0.2,0.021c-0.031,0-0.044-0.004-0.055-0.007
		c-0.088-0.03-0.176-0.044-0.262-0.044c-0.226,0-0.43,0.103-0.558,0.282c-0.115,0.163-0.154,0.373-0.109,0.575
		c0.023,0.159,0.108,0.513,0.397,0.863c-0.11-0.092-0.252-0.149-0.407-0.149h-0.966c-0.008,0-0.017,0-0.024,0.001l-0.337-0.001
		c-0.167,0-0.326,0.066-0.444,0.184c-0.078,0.078-0.133,0.176-0.162,0.281c-0.252-0.273-0.609-0.449-1.01-0.462
		c-0.017-0.001-0.036-0.001-0.05-0.001c-0.015,0-0.028,0-0.043,0h-0.19v-0.121c0-0.347-0.28-0.628-0.628-0.628l-1.368-0.001
		c-0.165,0-0.325,0.065-0.443,0.184c-0.118,0.118-0.185,0.278-0.185,0.445v3.386c-0.265-0.321-0.665-0.527-1.11-0.527h-0.425
		c-0.347,0-0.628,0.282-0.628,0.629v0.852c0,0.391,0.115,0.766,0.335,1.086c0.405,0.589,1.161,0.956,1.973,0.956
		c0.743,0,1.522-0.303,2.005-0.836c0.456,0.537,1.198,0.836,1.928,0.836c0.47,0,0.956-0.13,1.366-0.369
		c0.119,0.129,0.286,0.204,0.463,0.204h0.353c0.011,0,0.021,0,0.032,0c0.586-0.018,1.072-0.444,1.166-1.024l0.033-0.192l0.237,0.642
		c0.12,0.358,0.466,0.608,0.848,0.608c0.369,0,0.707-0.233,0.836-0.582c0.002-0.005,0.203-0.598,0.203-0.598
		c0.232,0.671,0.876,1.146,1.608,1.146h0.475c0.122,0,0.24-0.036,0.34-0.102c0.146,0.06,0.303,0.095,0.467,0.1
		c0.013,0.001,0.027,0.002,0.041,0.002h2.087c0.027,0,0.054-0.003,0.079-0.006c0.028,0.003,0.059,0.006,0.086,0.006h0.944h0.002
		c0.399-0.002,0.774-0.199,0.997-0.528l0.254-0.387l0.065,0.097c0.307,0.504,0.86,0.817,1.451,0.817h1.051
		c0.229,0,0.442-0.127,0.552-0.33s0.1-0.45-0.026-0.643l-0.901-1.379c0.537-0.03,0.951-0.465,0.951-1.016
		c0-0.525-0.377-0.947-0.879-1.01l0.978-1.495C46.772,42.567,46.784,42.321,46.674,42.118"/>
	<path fill="#FFFFFF" d="M28.408,44.408v-2.061v-0.042l-1.368-0.001v1.068v0.004v0.001v3.561c0,0.165-0.277,0.294-0.487,0.294
		s-0.44-0.129-0.44-0.294l0.001-0.326c0-0.003,0-0.006,0-0.009s0-0.005,0-0.008c-0.005-0.445-0.366-0.804-0.812-0.804h-0.424v0.156
		v0.694c0,0.281,0.085,0.526,0.225,0.731c0.299,0.435,0.876,0.684,1.455,0.684c0.854,0,1.852-0.541,1.852-1.415V44.408z"/>
	<path fill="#FFFFFF" d="M44.604,45.797l-0.382-0.585l1.149-1.762l0.395-0.602l0.354-0.542h-0.939l-0.002,0l-0.002,0
		c-0.232,0-0.416,0.142-0.529,0.332l-1.057,1.609l-0.47-0.722c-0.192-0.284-0.518-0.471-0.887-0.472h-0.001h-0.006h-1.045
		l0.24,0.371l1.125,1.728l0.225,0.347l-0.816,1.25l-0.394,0.603l-0.354,0.542h0.939h0.002h0.003c0.201,0,0.378-0.102,0.482-0.255
		l0.007-0.01l0.763-1.168l0.599,0.912c0.187,0.312,0.529,0.522,0.919,0.522h1.051l-0.241-0.369L44.604,45.797z"/>
	<path fill="#FFFFFF" d="M38.091,47.791l-0.354-2.036l-0.315-1.807l-0.075-0.43l-0.08-0.462h-0.642h-0.011h-0.01
		c-0.349,0.004-0.644,0.228-0.754,0.54l-0.001,0l-0.008,0.022c0,0.003-0.002,0.007-0.003,0.01l-0.535,1.573
		c-0.011,0.032-0.041,0.055-0.075,0.055c-0.036,0-0.064-0.023-0.075-0.054l-0.599-1.61l-0.002-0.001
		c-0.112-0.31-0.405-0.532-0.752-0.536h-0.01h-0.012h-0.616l-0.068,0.394l-0.102,0.577l-0.473,2.708l-0.184,1.057l-0.018,0.103
		h0.353c0.292-0.002,0.534-0.217,0.577-0.499l0.379-2.167c0.008-0.041,0.042-0.073,0.086-0.073c0.04,0,0.073,0.028,0.084,0.063
		l0.937,2.522c0.033,0.108,0.134,0.187,0.254,0.187c0.112,0,0.209-0.071,0.246-0.172l0.866-2.546
		c0.012-0.033,0.045-0.056,0.082-0.056c0.043,0,0.077,0.032,0.086,0.074l0.306,1.749c0.075,0.52,0.521,0.917,1.062,0.917h0.475
		L38.091,47.791z"/>
	<path fill="#FFFFFF" d="M39.75,43.744l0.446,0.001h0.848v-0.691h-2.04h-0.011h-0.036c-0.387,0-0.701,0.314-0.705,0.702v0.003v2.457
		v0.974v0.002c0.002,0.108,0.026,0.209,0.069,0.3c0.111,0.232,0.348,0.396,0.621,0.401c0,0,0.01,0,0.015,0h2.087v-0.691H39.89
		l-0.14,0c-0.12,0-0.217-0.096-0.217-0.215V45.93c0.002-0.076,0.064-0.137,0.142-0.137v0h0.839c0.002,0,0.003,0,0.003,0l0.004,0
		c0.284-0.002,0.517-0.23,0.521-0.514c0-0.004,0-0.006,0-0.008c0-0.004,0-0.006,0-0.009v-0.114h-0.014h-1.017h-0.336
		c-0.077,0-0.14-0.062-0.142-0.138v-1.05C39.533,43.84,39.63,43.744,39.75,43.744"/>
	<path fill="#FFFFFF" d="M32.264,43.865L32.264,43.865L32.264,43.865c0-0.01-0.001-0.019-0.001-0.029v-0.783h-0.799h-0.012H31.44
		h-0.144v0l-0.361,0v0.186v1.253v2.451c0,0.189-0.229,0.291-0.414,0.291c-0.187,0-0.442-0.102-0.442-0.291l0.002-3.064
		c0-0.004,0-0.007,0-0.013c0-0.002,0-0.007,0-0.011c-0.006-0.435-0.356-0.788-0.791-0.798c-0.007,0-0.012-0.002-0.021-0.002
		c-0.007,0-0.013,0.002-0.021,0.002h-0.497v0.186v1.249v2.154c0,0.874,0.884,1.415,1.738,1.415c0.852,0,1.774-0.541,1.774-1.415
		V43.865z"/>
	<path fill="#5EA446" d="M37.424,41.502c-0.504,0.061-0.609-0.087-1.136-0.013c-0.324,0.044-0.586,0.314-0.784,0.621
		c-0.103,0.162-0.154,0.276-0.196,0.375c0.024-0.224,0.134-0.663,0.392-0.982c0.215-0.266,0.347-0.84,0.102-1.297
		c-0.151-0.284-0.407-0.725-0.494-0.883c-0.085-0.159-0.155,0-0.155,0s-0.343,0.6-0.495,0.883c-0.244,0.457-0.092,1.016,0.103,1.297
		c0.286,0.413,0.371,0.804,0.391,0.982c-0.059-0.138-0.162-0.325-0.207-0.42c-0.16-0.329-0.449-0.531-0.772-0.575
		c-0.526-0.074-0.812,0.125-1.17,0.004c-0.163-0.055-0.11,0.097-0.11,0.097s0.03,0.468,0.525,0.829
		c0.646,0.473,1.137,0.231,1.386,0.228c0.118-0.002,0.364,0.088,0.364,0.252c0,0.214,0.018,0.374,0.018,0.546
		c0,0.173,0.109,0.155,0.114,0.005c0.007-0.149,0.021-0.361,0.021-0.575c0-0.165,0.257-0.224,0.341-0.229
		c0.248-0.02,0.686,0.28,1.383-0.228c0.498-0.358,0.526-0.829,0.526-0.829C37.58,41.483,37.539,41.468,37.424,41.502 M34.796,42.421
		c-0.312-0.264-0.596-0.277-0.795-0.304c-0.432-0.061-0.526-0.129-0.641-0.251c-0.057-0.061-0.036-0.091,0.041-0.035
		c0.176,0.128,0.252,0.129,0.598,0.157c0.525,0.042,0.763,0.323,0.815,0.392C34.857,42.437,34.843,42.461,34.796,42.421
		 M35.229,41.692c-0.035,0-0.064-0.403-0.064-0.898c0-0.498,0.029-0.9,0.064-0.9c0.033,0,0.062,0.402,0.062,0.9
		C35.292,41.29,35.263,41.692,35.229,41.692 M37.083,41.887c-0.115,0.121-0.209,0.19-0.642,0.25c-0.2,0.029-0.484,0.042-0.794,0.305
		c-0.047,0.04-0.062,0.016-0.018-0.04c0.053-0.069,0.288-0.351,0.814-0.392c0.346-0.027,0.422-0.028,0.596-0.158
		C37.119,41.794,37.141,41.827,37.083,41.887"/>
	<path fill="#21274C" d="M47.391,68.386c-0.397,0-0.773-0.061-1.111-0.181c-0.353-0.123-0.66-0.307-0.916-0.542
		c-0.258-0.237-0.462-0.525-0.608-0.86c-0.144-0.329-0.216-0.7-0.216-1.103c0-0.393,0.073-0.797,0.222-1.199
		c0.149-0.41,0.38-0.787,0.685-1.12c0.307-0.336,0.688-0.611,1.14-0.818c0.458-0.212,0.991-0.319,1.582-0.319
		c0.315,0,0.613,0.042,0.884,0.124c0.274,0.084,0.527,0.206,0.748,0.365c0.12,0.085,0.23,0.183,0.329,0.289l0.183-0.679h8.825
		c0.501,0,0.912,0.053,1.258,0.163c0.378,0.12,0.685,0.296,0.912,0.525c0.009,0.007,0.016,0.014,0.022,0.022l0.19-0.71h2.924
		l-0.871,3.232c-0.014,0.056-0.022,0.1-0.025,0.132c0.019-0.001,0.027-0.005,0.028-0.005c0.018-0.02,0.04-0.051,0.06-0.092
		c0.012-0.022,0.048-0.104,0.099-0.293l0.799-2.975h2.924l-0.037,0.14c0.059-0.025,0.122-0.048,0.186-0.068
		c0.319-0.109,0.68-0.164,1.067-0.164c0.488,0,0.948,0.075,1.373,0.221c0.431,0.152,0.806,0.362,1.121,0.632l0.486,0.417
		l-1.185,1.413c0.102,0.124,0.185,0.258,0.248,0.402c0.096,0.214,0.144,0.46,0.144,0.728c0,0.328-0.067,0.642-0.203,0.931
		c-0.135,0.292-0.332,0.545-0.587,0.754c-0.239,0.199-0.532,0.355-0.867,0.467c-0.327,0.108-0.695,0.163-1.093,0.163
		c-0.544,0-1.055-0.091-1.519-0.274c-0.36-0.141-0.687-0.323-0.974-0.543c-0.006,0.005-0.011,0.011-0.016,0.017
		c-0.298,0.298-0.663,0.512-1.082,0.636c-0.374,0.109-0.782,0.165-1.215,0.165c-0.817,0-1.465-0.202-1.924-0.599
		c-0.03-0.027-0.061-0.055-0.089-0.082l0.243,0.587h-3.087l-0.189-0.487l-0.132,0.487h-2.895l0.896-3.332h-0.363l-0.896,3.332
		h-2.896l0.896-3.332h-0.362l-0.895,3.332h-2.897l0.044-0.159C48.361,68.298,47.903,68.386,47.391,68.386 M49.385,65.79l0.165-0.607
		l-0.603,0.262L49.385,65.79z M47.961,64.935c-0.068,0-0.124,0.012-0.172,0.037c-0.066,0.034-0.118,0.076-0.163,0.129
		c-0.05,0.061-0.091,0.13-0.122,0.215c-0.028,0.079-0.041,0.161-0.041,0.244c0,0.099,0.018,0.133,0.018,0.133
		c0.01,0.007,0.017,0.015,0.063,0.015c0.089,0,0.138-0.023,0.166-0.04c0.079-0.043,0.157-0.115,0.235-0.209l0.173-0.208l-0.062-0.24
		c-0.012-0.049-0.025-0.068-0.025-0.068c0,0.001,0,0.001,0,0.001C48.029,64.944,48.01,64.935,47.961,64.935 M40.809,68.286
		l-0.281-0.758l-0.203,0.758h-4.345l-0.522-1.097l-0.297,1.097h-4.952l0.41-1.528c-0.085,0.036-0.173,0.068-0.265,0.097
		c-0.354,0.114-0.753,0.171-1.185,0.171H29.01l-0.338,1.26h-2.896l1.597-5.942h2.056c0.498,0,0.905,0.051,1.245,0.154
		c0.376,0.116,0.691,0.299,0.938,0.547c0.001,0.001,0.002,0.002,0.003,0.003l0.19-0.704h4.43l0.476,1.001l0.271-1.001h8.642
		l-2.923,2.932l1.155,3.01H40.809z"/>
	<path fill="#D1586A" d="M31.518,64.44c0-0.188-0.03-0.359-0.09-0.516c-0.059-0.157-0.15-0.297-0.274-0.421
		c-0.173-0.171-0.396-0.3-0.671-0.385c-0.273-0.084-0.626-0.126-1.055-0.126h-1.56l-1.247,4.646h1.553l0.339-1.261h0.656
		c0.367,0,0.697-0.046,0.988-0.139c0.292-0.093,0.539-0.225,0.74-0.396c0.202-0.17,0.354-0.374,0.462-0.611
		C31.465,64.995,31.518,64.732,31.518,64.44 M29.75,65.093c-0.14,0.117-0.358,0.176-0.654,0.176h-0.278l0.272-1.035h0.291
		c0.089,0,0.175,0.01,0.26,0.033c0.083,0.023,0.151,0.06,0.205,0.113c0.075,0.076,0.113,0.166,0.113,0.272
		C29.959,64.829,29.889,64.976,29.75,65.093 M33.854,62.993l-1.247,4.646h-1.554l1.248-4.646H33.854z M39.017,62.993l-1.247,4.646
		h-1.381l-1.102-2.31l-0.623,2.31h-1.54l1.248-4.646h1.453l1.054,2.217l0.599-2.217H39.017z M44.059,62.993l-2.115,2.124
		l0.968,2.521H41.26l-0.559-1.494l-0.65,0.65l-0.225,0.843h-1.554l1.249-4.646h1.553l-0.451,1.666l1.545-1.666H44.059z
		 M48.445,65.873l1.076,0.849c-0.233,0.306-0.524,0.551-0.869,0.736c-0.347,0.186-0.766,0.28-1.262,0.28
		c-0.328,0-0.626-0.047-0.896-0.143c-0.269-0.095-0.501-0.231-0.691-0.409c-0.193-0.177-0.344-0.39-0.453-0.64
		c-0.107-0.249-0.162-0.533-0.162-0.846c0-0.318,0.061-0.644,0.183-0.976c0.121-0.333,0.306-0.634,0.555-0.906
		c0.246-0.272,0.558-0.495,0.932-0.667c0.374-0.172,0.812-0.259,1.311-0.259c0.251,0,0.483,0.033,0.693,0.096
		c0.209,0.064,0.398,0.155,0.561,0.272c0.165,0.117,0.302,0.261,0.411,0.428c0.11,0.168,0.192,0.354,0.239,0.557l-1.387,0.604
		c-0.048-0.19-0.136-0.332-0.267-0.424c-0.127-0.094-0.279-0.14-0.457-0.14c-0.172,0-0.328,0.037-0.471,0.109
		c-0.142,0.073-0.263,0.169-0.36,0.289c-0.101,0.119-0.18,0.255-0.233,0.408c-0.055,0.152-0.082,0.308-0.082,0.468
		c0,0.256,0.069,0.453,0.209,0.59c0.14,0.138,0.312,0.207,0.52,0.207c0.182,0,0.346-0.042,0.492-0.127S48.317,66.027,48.445,65.873
		 M52.36,62.993l-1.246,4.646h-1.554l1.248-4.646H52.36z M56.634,64.307h-1.366l-0.896,3.331h-1.554l0.896-3.331h-1.366l0.35-1.314
		h4.288L56.634,64.307z M60.849,63.49c-0.155-0.154-0.372-0.276-0.651-0.365c-0.278-0.087-0.633-0.133-1.062-0.133h-1.812
		l-1.248,4.646h1.555l0.358-1.327h0.384l0.518,1.327h1.673l-0.645-1.546c0.23-0.071,0.427-0.162,0.589-0.273
		c0.166-0.11,0.298-0.236,0.404-0.377c0.103-0.142,0.179-0.295,0.229-0.462c0.048-0.165,0.072-0.339,0.072-0.521
		c0-0.187-0.029-0.362-0.086-0.528C61.069,63.766,60.977,63.619,60.849,63.49 M59.435,65.046c-0.132,0.104-0.33,0.156-0.591,0.156
		h-0.562l0.244-0.909h0.552c0.215,0,0.368,0.044,0.457,0.133c0.065,0.065,0.101,0.148,0.101,0.245
		C59.635,64.817,59.567,64.942,59.435,65.046 M65.871,65.727c-0.163,0.606-0.406,1.07-0.729,1.394
		c-0.223,0.221-0.489,0.377-0.805,0.47c-0.319,0.093-0.662,0.14-1.033,0.14c-0.659,0-1.159-0.147-1.5-0.441
		c-0.339-0.295-0.511-0.704-0.511-1.231c0-0.247,0.034-0.497,0.1-0.75l0.624-2.316h1.58l-0.652,2.415
		c-0.034,0.143-0.053,0.264-0.053,0.365c0,0.195,0.055,0.341,0.162,0.438c0.109,0.098,0.269,0.147,0.476,0.147
		c0.203,0,0.369-0.065,0.498-0.194c0.071-0.07,0.13-0.156,0.183-0.255c0.05-0.099,0.1-0.24,0.149-0.421l0.67-2.496h1.578
		L65.871,65.727z M70.121,65.597c0.061,0.135,0.089,0.291,0.089,0.468c0,0.234-0.046,0.454-0.143,0.657
		c-0.094,0.204-0.231,0.38-0.411,0.528s-0.398,0.264-0.66,0.351s-0.557,0.13-0.888,0.13c-0.466,0-0.892-0.075-1.282-0.229
		c-0.39-0.152-0.725-0.356-1.009-0.613l0.889-1.062c0.267,0.226,0.531,0.392,0.797,0.499c0.266,0.105,0.522,0.158,0.77,0.158
		c0.103,0,0.186-0.018,0.247-0.053c0.061-0.035,0.093-0.086,0.093-0.153c0-0.036-0.007-0.067-0.022-0.096
		c-0.017-0.029-0.05-0.057-0.104-0.086c-0.053-0.028-0.131-0.063-0.233-0.106c-0.102-0.042-0.235-0.094-0.403-0.156
		c-0.218-0.08-0.406-0.161-0.565-0.243c-0.158-0.083-0.291-0.174-0.395-0.276c-0.104-0.102-0.182-0.215-0.231-0.341
		c-0.051-0.127-0.077-0.276-0.077-0.448c0-0.226,0.05-0.438,0.149-0.633c0.101-0.198,0.24-0.369,0.422-0.516
		c0.181-0.146,0.4-0.262,0.657-0.348c0.256-0.086,0.544-0.129,0.861-0.129c0.417,0,0.803,0.062,1.159,0.186
		c0.355,0.124,0.66,0.295,0.912,0.511l-0.889,1.062c-0.178-0.142-0.383-0.263-0.617-0.365C69,64.192,68.761,64.14,68.513,64.14
		c-0.103,0-0.184,0.015-0.246,0.044c-0.062,0.028-0.092,0.077-0.092,0.143c0,0.035,0.007,0.065,0.025,0.089
		c0.018,0.024,0.053,0.05,0.106,0.076c0.052,0.027,0.129,0.06,0.225,0.097c0.1,0.037,0.228,0.085,0.387,0.144
		c0.198,0.074,0.379,0.152,0.537,0.231c0.159,0.081,0.295,0.171,0.407,0.275C69.977,65.343,70.062,65.462,70.121,65.597"/>
	<path fill="#21274C" d="M70.581,51.41c0,0.794-0.646,1.438-1.439,1.438c-0.796,0-1.44-0.644-1.44-1.438
		c0-0.796,0.645-1.44,1.44-1.44C69.936,49.97,70.581,50.614,70.581,51.41"/>
	<path fill="#FFFFFF" d="M69.029,51.344v-0.176h0.107c0.059,0,0.137,0.006,0.137,0.082c0,0.08-0.04,0.095-0.108,0.095H69.029z
		 M69.029,51.468h0.073l0.163,0.309h0.181l-0.182-0.321c0.095-0.007,0.171-0.054,0.171-0.19c0-0.167-0.109-0.221-0.293-0.221h-0.265
		v0.733h0.151V51.468z M69.803,51.411c0-0.43-0.312-0.683-0.664-0.683c-0.35,0-0.663,0.253-0.663,0.683s0.313,0.68,0.663,0.68
		C69.49,52.091,69.803,51.841,69.803,51.411 M69.615,51.411c0,0.313-0.219,0.524-0.477,0.524v-0.001
		c-0.261,0.001-0.472-0.21-0.472-0.523c0-0.312,0.211-0.524,0.472-0.524C69.396,50.887,69.615,51.099,69.615,51.411"/>
</g>
</svg>
