<?xml version="1.0" encoding="utf-8"?>
<!-- Generator: Adobe Illustrator 16.0.0, SVG Export Plug-In . SVG Version: 6.00 Build 0)  -->
<!DOCTYPE svg PUBLIC "-//W3C//DTD SVG 1.1//EN" "http://www.w3.org/Graphics/SVG/1.1/DTD/svg11.dtd">
<svg version="1.1" id="{$id}"
   class="fresa fruta my_center" xmlns="http://www.w3.org/2000/svg" xmlns:xlink="http://www.w3.org/1999/xlink" x="0px" y="0px"
	 width="65.196px" height="76.535px" viewBox="0 0 65.196 76.535" enable-background="new 0 0 65.196 76.535" xml:space="preserve">
<g>
	<path fill="#A5E24D" d="M20.238,26.995c0,0-7.231-4.376-11.895-2.569s-5.234,3.235-5.234,3.235s4.853,5.233,11.895,3.997
		C22.047,30.421,20.238,26.995,20.238,26.995z"/>
	<path fill="#90C632" d="M3.109,27.662c0,0,0.571-1.428,5.234-3.235s11.895,2.569,11.895,2.569s0.297,0.562,0.182,1.312
		L3.109,27.662z"/>
	<path fill="#90C632" d="M18.145,29.374c0,0-5.899-7.993-7.042-10.468c-1.141-2.475-0.476-8.563,2.854-12.941
		c3.332-4.377,3.521-4.853,5.711-1.617c2.188,3.235,6.185,8.754,5.424,16.082C24.33,27.756,18.145,29.374,18.145,29.374z"/>
	<path fill="#A5E24D" d="M17.633,2.252c0.579,0.068,1.14,0.771,2.035,2.096c2.188,3.235,6.185,8.754,5.424,16.082
		c-0.762,7.326-6.947,8.944-6.947,8.944L17.633,2.252z"/>
	<path fill="#F75F4B" d="M37.939,11.104c-2.982-0.086-9.518,0.895-13.799,7.708c-5.685,9.045-6.186,8.66-14.084,13.132
		C2.158,36.416-1.268,47.551,3.775,57.543c5.044,9.991,12.847,11.895,23.886,12.751s17.716,1.24,24.456,3.426
		c5.847,1.896,10.384-1.02,11.515-7.804c1.288-7.72-5.567-34.118-8.089-43.869C52.862,11.674,43.117,11.254,37.939,11.104z"/>
	<ellipse fill="#FF7166" cx="39.413" cy="25.663" rx="10.991" ry="8.851"/>
	<ellipse fill="#FF8680" cx="11.118" cy="45.164" rx="2.457" ry="1.879"/>
	<ellipse fill="#FF8680" cx="11.778" cy="52.166" rx="2.458" ry="1.878"/>
	<ellipse fill="#FF8680" cx="22.103" cy="57.046" rx="2.457" ry="1.879"/>
	<ellipse fill="#FF8680" cx="31.064" cy="59.722" rx="2.457" ry="1.879"/>
	<ellipse fill="#FF8680" cx="41.87" cy="61.602" rx="2.457" ry="1.878"/>
	<ellipse fill="#FF8680" cx="17.887" cy="40.105" rx="2.457" ry="1.879"/>
	<ellipse fill="#FF8680" cx="24.561" cy="35.48" rx="2.457" ry="1.879"/>
	<ellipse fill="#FF8680" cx="31.987" cy="29.969" rx="2.457" ry="1.879"/>
	<ellipse fill="#FF8680" cx="33.522" cy="37.359" rx="2.457" ry="1.879"/>
	<ellipse fill="#FF8680" cx="27.017" cy="43.286" rx="2.457" ry="1.878"/>
	<ellipse fill="#FF8680" cx="20.343" cy="48.922" rx="2.457" ry="1.879"/>
	<ellipse fill="#FF8680" cx="29.529" cy="50.286" rx="2.457" ry="1.88"/>
	<ellipse fill="#FF8680" cx="36.901" cy="45.164" rx="2.457" ry="1.879"/>
	<ellipse fill="#FF8680" cx="44.328" cy="40.105" rx="2.457" ry="1.879"/>
	<ellipse fill="#FF8680" cx="46.784" cy="47.883" rx="2.457" ry="1.879"/>
	<ellipse fill="#FF8680" cx="39.414" cy="53.288" rx="2.458" ry="1.879"/>
	<ellipse fill="#FF8680" cx="49.242" cy="56.599" rx="2.457" ry="1.879"/>
	<ellipse fill="#FF8680" cx="38.437" cy="25.663" rx="2.457" ry="1.88"/>
	<ellipse fill="#FF8680" cx="41.87" cy="32.634" rx="2.457" ry="1.879"/>
	<path fill="#D84C41" d="M28.422,66.651c15.428,1.515,23.169,4.861,28.569,2.809c6.943-2.638,6.725-8.002,6.725-8.002
		c0.119,1.81,0.104,3.333-0.084,4.458c-1.131,6.784-5.668,9.7-11.515,7.804c-6.74-2.186-13.417-2.569-24.456-3.426
		S8.819,67.534,3.775,57.543c-2.078-4.117-2.719-8.428-2.2-12.386C1.575,45.157,3.109,64.167,28.422,66.651z"/>
</g>
</svg>
