<?xml version="1.0" encoding="utf-8"?>
<!-- Generator: Adobe Illustrator 16.0.0, SVG Export Plug-In . SVG Version: 6.00 Build 0)  -->
<!DOCTYPE svg PUBLIC "-//W3C//DTD SVG 1.1//EN" "http://www.w3.org/Graphics/SVG/1.1/DTD/svg11.dtd">
<svg version="1.1" id="{$id}"
   class="manzana fruta my_center" xmlns="http://www.w3.org/2000/svg" xmlns:xlink="http://www.w3.org/1999/xlink" x="0px" y="0px"
	 width="65.196px" height="76.535px" viewBox="0 0 65.196 76.535" enable-background="new 0 0 65.196 76.535" xml:space="preserve">
<g>
	<path fill="#FF7166" d="M64.696,41.728c-1.612,24.631-18.978,34.011-32.257,34.011c-15.157,0-31.462-10.876-31.991-34.011
		C0.053,24.412,16.525,15.43,33.531,15.43C50.535,15.43,65.827,24.445,64.696,41.728z"/>
	<ellipse fill="#D84C41" cx="33.748" cy="29.123" rx="7.027" ry="2.45"/>
	<path fill="#F75F4B" d="M0.474,41.728c0.53,23.135,16.834,34.011,31.992,34.011c13.277,0,30.643-9.38,32.256-34.011
		c0,0-3.602,8.983-32.098,9.086C3.146,50.92,0.474,41.728,0.474,41.728z"/>
	<path fill="#D84C41" d="M64.165,46.483c-3.395,21.093-19.338,29.256-31.726,29.256c-13.994,0-28.967-9.272-31.599-28.902
		c0,0,4.364,23.689,31.353,25.109C58.178,73.313,64.165,46.483,64.165,46.483z"/>
	<path fill="#93624A" d="M26.78,3.538c0,0-0.654-2.137,2.342-2.646c3.723-0.635,3.602,2.107,3.602,2.107l1.583,25.876
		c0,0-0.692,1.044-1.297,0.146C32.907,28.867,32.215,27.409,26.78,3.538z"/>
	<path fill="#90C632" d="M48.287,6.007c0,0-9.66-0.001-13.544,7.198c-3.885,7.198-1.327,16.859-1.327,16.859
		s8.524-2.178,14.871-8.998C54.632,14.247,48.287,6.007,48.287,6.007z"/>
	<path fill="#A5E24D" d="M33.416,30.063c0,0-2.558-9.661,1.327-16.859c3.884-7.199,13.544-7.198,13.544-7.198L33.416,30.063z"/>
</g>
</svg>
