<?xml version="1.0" encoding="utf-8"?>
<!-- Generator: Adobe Illustrator 16.0.0, SVG Export Plug-In . SVG Version: 6.00 Build 0)  -->
<!DOCTYPE svg PUBLIC "-//W3C//DTD SVG 1.1//EN" "http://www.w3.org/Graphics/SVG/1.1/DTD/svg11.dtd">
<svg version="1.1" id="{$id}"
   class="naranja fruta my_center" xmlns="http://www.w3.org/2000/svg" xmlns:xlink="http://www.w3.org/1999/xlink" x="0px" y="0px"
	 width="65.195px" height="76.535px" viewBox="0 0 65.195 76.535" enable-background="new 0 0 65.195 76.535" xml:space="preserve">
<ellipse fill="#FFC200" cx="32.599" cy="45.063" rx="31.545" ry="30.844"/>
<path fill="#DDB300" d="M31.341,70.609C-2.466,67.404,2.47,35.898,2.47,35.898c-0.92,2.896-1.416,5.974-1.416,9.165
	c0,17.035,14.123,30.845,31.545,30.845c15.785,0,28.861-11.337,31.18-26.138C63.778,49.771,56.728,73.018,31.341,70.609z"/>
<ellipse fill="#DDB300" cx="36.292" cy="24.046" rx="7.289" ry="3.331"/>
<ellipse fill="#DDB300" cx="10.176" cy="51.341" rx="0.87" ry="1.034"/>
<ellipse fill="#DDB300" cx="13.452" cy="55.537" rx="0.868" ry="1.034"/>
<ellipse fill="#DDB300" cx="16.84" cy="59.214" rx="0.87" ry="1.033"/>
<ellipse fill="#DDB300" cx="20.026" cy="62.339" rx="0.869" ry="1.033"/>
<ellipse fill="#DDB300" cx="15.97" cy="63.373" rx="0.869" ry="1.033"/>
<ellipse fill="#DDB300" cx="12.582" cy="60.748" rx="0.87" ry="1.033"/>
<ellipse fill="#DDB300" cx="10.176" cy="56.937" rx="0.87" ry="1.033"/>
<ellipse fill="#DDB300" cx="24.487" cy="62.339" rx="0.869" ry="1.033"/>
<ellipse fill="#DDB300" cx="27.362" cy="64.839" rx="0.869" ry="1.033"/>
<ellipse fill="#DDB300" cx="20.896" cy="58.48" rx="0.869" ry="1.033"/>
<ellipse fill="#90C632" cx="36.242" cy="24.046" rx="4.339" ry="1.982"/>
<g>
	<path fill="#90C632" d="M53.769,6.796c0,0,0.98,7.407-3.324,12.718c-4.303,5.312-13.639,4.489-13.639,4.489l-0.356,0.046
		c0,0-1.48-9.253,3.512-13.922c4.994-4.669,12.451-4.215,12.451-4.215C52.511,5.911,53.79,5.6,53.769,6.796z"/>
	<path fill="#A5E24D" d="M53.55,6.123c0.137,0.139,0.225,0.352,0.219,0.675c0,0,0.98,7.407-3.324,12.718
		c-4.303,5.311-13.639,4.488-13.639,4.488l-0.356,0.046C36.614,24.028,53.55,6.123,53.55,6.123z"/>
</g>
<g>
	<path fill="#90C632" d="M37.085,23.47c0,0,3.935-6.351,2.191-12.961c-1.744-6.611-10.594-9.694-10.594-9.694l-0.308-0.188
		c0,0-5.149,7.83-2.514,14.137c2.635,6.308,9.623,8.955,9.623,8.955C35.573,23.762,36.613,24.57,37.085,23.47z"/>
	<path fill="#A5E24D" d="M36.609,23.997c0.182-0.071,0.35-0.229,0.477-0.526c0,0,3.935-6.351,2.191-12.961
		c-1.744-6.611-10.594-9.694-10.594-9.694l-0.308-0.188C28.52,0.714,36.609,23.997,36.609,23.997z"/>
</g>
<ellipse transform="matrix(-0.3542 -0.9352 0.9352 -0.3542 34.6148 104.4204)" fill="#FFED9F" cx="53.362" cy="40.258" rx="10.054" ry="5.971"/>
</svg>
