<?xml version="1.0" encoding="utf-8"?>
<!-- Generator: Adobe Illustrator 16.0.0, SVG Export Plug-In . SVG Version: 6.00 Build 0)  -->
<!DOCTYPE svg PUBLIC "-//W3C//DTD SVG 1.1//EN" "http://www.w3.org/Graphics/SVG/1.1/DTD/svg11.dtd">
<svg version="1.1" id="{$id}"
   class="sandia fruta my_center" xmlns="http://www.w3.org/2000/svg" xmlns:xlink="http://www.w3.org/1999/xlink" x="0px" y="0px"
	 width="65.196px" height="76.535px" viewBox="0 0 65.196 76.535" enable-background="new 0 0 65.196 76.535" xml:space="preserve">
<g>
	<path fill="#A5E24D" d="M65.072,52.466c-6.11,10.11-17.19,16.882-29.867,16.917C15.883,69.437,0.177,53.817,0.124,34.495
		C0.092,23.449,5.185,13.585,13.162,7.151L65.072,52.466z"/>
	<path fill="#90C632" d="M9.297,58.015c6.418,7.011,15.654,11.396,25.908,11.368c12.677-0.035,23.757-6.807,29.867-16.917
		L39.631,30.257L9.297,58.015z"/>
	<path fill="#F75F4B" d="M37.313,64.962c10.902-0.03,20.525-5.429,26.4-13.681L14.998,8.753c-6.345,5.951-10.306,14.41-10.28,23.794
		C4.768,50.499,19.361,65.012,37.313,64.962z"/>
	<path fill="#D84C41" d="M60.75,48.692l2.964,2.588c-5.875,8.252-15.498,13.651-26.4,13.681
		C19.361,65.012,4.768,50.499,4.718,32.547c0,0,5.05,27.898,32.467,28.459C56.04,58.953,60.75,48.692,60.75,48.692z"/>
	<path fill="#93624A" d="M17.877,27.269c0,0-4.94,0.449-6.064,2.808c-1.123,2.359,1.479,2.779,2.257,2.471
		C15.582,31.947,16.191,30.414,17.877,27.269z"/>
	<path fill="#93624A" d="M21.023,34.218c0,0-4.94,0.449-6.064,2.808c-1.123,2.359,1.48,2.779,2.258,2.471
		C18.729,38.897,19.339,37.364,21.023,34.218z"/>
	<path fill="#93624A" d="M25.965,41.744c0,0-4.94,0.448-6.063,2.808c-1.124,2.359,1.479,2.779,2.257,2.471
		C23.67,46.422,24.28,44.889,25.965,41.744z"/>
	<path fill="#93624A" d="M33.345,45.645c0,0-4.642,1.752-5.094,4.326c-0.453,2.574,2.168,2.283,2.835,1.778
		C32.383,50.767,32.562,49.126,33.345,45.645z"/>
	<path fill="#93624A" d="M43.004,48.116c0,0-4.643,1.752-5.094,4.325c-0.453,2.574,2.168,2.283,2.835,1.779
		C42.042,53.238,42.22,51.597,43.004,48.116z"/>
</g>
</svg>
