<?xml version="1.0" encoding="utf-8"?>
<!-- Generator: Adobe Illustrator 16.0.0, SVG Export Plug-In . SVG Version: 6.00 Build 0)  -->
<!DOCTYPE svg PUBLIC "-//W3C//DTD SVG 1.1//EN" "http://www.w3.org/Graphics/SVG/1.1/DTD/svg11.dtd">
<svg id="{$id}"
    class="tiempo my_center puntos" version="1.1" xmlns="http://www.w3.org/2000/svg" xmlns:xlink="http://www.w3.org/1999/xlink" x="0px" y="0px" width="36.85px"
	 height="39.689px" viewBox="0 0 36.85 39.689" enable-background="new 0 0 36.85 39.689" xml:space="preserve">
<g id="_x2B_50_{$id}">
	<g>
		<text transform="matrix(1 0 0 1 10.4177 33.9626)" fill="#FFFFFF" font-family="'Marujo'" font-size="33.714">5</text>
	</g>
	<text transform="matrix(1 0 0 1 22.0481 20.4695)" fill="#FFFFFF" font-family="'Marujo'" font-size="18" letter-spacing="-1">´´</text>
</g>
<g id="burbuja_{$id}">
	<g opacity="0.5">
		
			<radialGradient id="SVGID_1_{$id}" cx="-987.0486" cy="838.0759" r="17.6318" gradientTransform="matrix(-4.371139e-08 -1.0471 1.3 -5.949850e-08 -1071.0737 -1013.6941)" gradientUnits="userSpaceOnUse">
			<stop  offset="0.6047" style="stop-color:#FFFFFF;stop-opacity:0"/>
			<stop  offset="1" style="stop-color:#FFFFFF"/>
		</radialGradient>
		<path fill="url(#SVGID_1_{$id})" d="M36.186,19.844c0,10.124-7.95,18.321-17.764,18.321c-9.811,0-17.758-8.197-17.758-18.321
			c0-10.122,7.947-18.319,17.758-18.319C28.235,1.525,36.186,9.722,36.186,19.844z"/>
		<path fill="none" d="M36.186,19.844c0,10.124-7.95,18.321-17.764,18.321c-9.811,0-17.758-8.197-17.758-18.321
			c0-10.122,7.947-18.319,17.758-18.319C28.235,1.525,36.186,9.722,36.186,19.844z"/>
		<path opacity="0.8" fill="#FFFFFF" enable-background="new    " d="M24.557,7.922c0.275-0.241,0.804-0.186,1.41,0.087
			c0.603,0.288,1.271,0.807,1.835,1.471c0.545,0.663,0.941,1.425,1.129,2.087c0.006,0.06,0.021,0.1,0.032,0.146
			c0.139,0.617,0.118,1.119-0.151,1.351c-0.274,0.23-0.782,0.161-1.332-0.514c-0.15-0.19-0.305-0.422-0.47-0.652
			c-0.206-0.288-0.426-0.634-0.681-0.951c-0.114-0.128-0.237-0.242-0.358-0.376c-0.156-0.185-0.328-0.355-0.485-0.512
			c-0.229-0.231-0.428-0.435-0.584-0.636c-0.208-0.249-0.353-0.462-0.447-0.681C24.3,8.383,24.355,8.096,24.557,7.922z"/>
		<path opacity="0.8" fill="#FFFFFF" enable-background="new    " d="M8.633,11.435c-0.1-0.121-0.077-0.353,0.033-0.623
			c0.114-0.271,0.325-0.564,0.595-0.817c0.271-0.242,0.575-0.421,0.845-0.509c0.022,0,0.042-0.006,0.06-0.012
			c0.253-0.062,0.458-0.059,0.55,0.062c0.094,0.121,0.068,0.353-0.209,0.594c-0.076,0.069-0.167,0.14-0.261,0.208
			c-0.118,0.099-0.258,0.196-0.387,0.307C9.804,10.697,9.76,10.754,9.706,10.8c-0.075,0.075-0.145,0.156-0.209,0.226
			c-0.09,0.099-0.178,0.186-0.256,0.261c-0.098,0.092-0.188,0.155-0.273,0.201C8.82,11.55,8.705,11.528,8.633,11.435z"/>
	</g>
</g>
</svg>
