<?xml version="1.0" encoding="UTF-8" standalone="no"?>
<svg
    xmlns:dc="http://purl.org/dc/elements/1.1/"
    xmlns:cc="http://creativecommons.org/ns#"
    xmlns:rdf="http://www.w3.org/1999/02/22-rdf-syntax-ns#"
    xmlns:svg="http://www.w3.org/2000/svg"
    xmlns="http://www.w3.org/2000/svg"
    id="{$id}"
    class="mas50 my_center puntos"
    x="0px"
    y="0px"
    width="12.832px"
    height="13.462px"
    viewBox="0 0 12.832 13.462"
    enable-background="new 0 0 12.832 13.462"
    xml:space="preserve">

<g class="no_burbujas"
    opacity="0.5"
    id="g4137{$id}">
<radialGradient
    id="SVGID_1_{$id}"
    cx="-712.9302"
    cy="444.71"
    r="4.6589"
    gradientTransform="matrix(-4.371139e-08 -1.0471 1.3 -5.949850e-08 -573.0089 -738.3779)"
    gradientUnits="userSpaceOnUse">
<stop
    offset="0.6047"
    style="stop-color:#FFFFFF;stop-opacity:0"
    id="stop4140{$id}" />
<stop
    offset="1"
    style="stop-color:#FFFFFF"
    id="stop4142{$id}" />
</radialGradient><path
    d="M9.808,8.13c0,2.676-2.1,4.842-4.694,4.842c-2.591,0-4.691-2.166-4.691-4.842   c0-2.674,2.101-4.84,4.691-4.84C7.708,3.29,9.808,5.456,9.808,8.13z"
    id="path4144{$id}"
    fill="url(#SVGID_1_{$id})" /><path
    fill="none"
    d="M9.808,8.13c0,2.676-2.1,4.842-4.694,4.842c-2.591,0-4.691-2.166-4.691-4.842c0-2.674,2.101-4.84,4.691-4.84   C7.708,3.29,9.808,5.456,9.808,8.13z"
    id="path4146{$id}" /><path
    opacity="0.8"
    fill="#FFFFFF"
    enable-background="new    "
    d="M6.736,4.98c0.072-0.063,0.213-0.049,0.373,0.023   C7.268,5.08,7.445,5.216,7.593,5.392c0.144,0.175,0.249,0.376,0.298,0.551C7.894,5.959,7.898,5.97,7.9,5.982   c0.037,0.163,0.031,0.294-0.039,0.357C7.789,6.399,7.654,6.382,7.507,6.203C7.469,6.152,7.428,6.092,7.383,6.03   C7.33,5.954,7.272,5.863,7.205,5.779c-0.03-0.034-0.063-0.064-0.096-0.1C7.068,5.631,7.023,5.586,6.98,5.545   C6.92,5.483,6.869,5.429,6.828,5.377C6.772,5.311,6.734,5.254,6.708,5.196C6.667,5.102,6.682,5.027,6.736,4.98z"
    id="path4148{$id}" /><path
    opacity="0.8"
    fill="#FFFFFF"
    enable-background="new    "
    d="M2.529,5.908C2.502,5.876,2.508,5.814,2.538,5.743   c0.03-0.072,0.086-0.148,0.157-0.214s0.151-0.112,0.223-0.136c0.006,0,0.011-0.001,0.017-0.003C3,5.373,3.054,5.375,3.078,5.407   C3.103,5.44,3.096,5.5,3.023,5.563C3.002,5.583,2.979,5.6,2.954,5.619C2.922,5.644,2.886,5.67,2.852,5.699   c-0.014,0.015-0.026,0.03-0.04,0.041C2.792,5.76,2.774,5.782,2.756,5.8C2.732,5.826,2.708,5.849,2.689,5.869   C2.664,5.894,2.639,5.91,2.617,5.923C2.578,5.939,2.547,5.933,2.529,5.908z"
    id="path4150{$id}" /></g>
    <g class="no_burbujas"
    id="g4152{$id}"
    opacity="0.5"><radialGradient
    id="SVGID_2_{$id}"
    cx="-708.1973"
    cy="448.3213"
    r="2.768"
    gradientTransform="matrix(-4.371139e-08 -1.0471 1.3 -5.949850e-08 -573.0089 -738.3779)"
    gradientUnits="userSpaceOnUse"><stop
    offset="0.6047"
    style="stop-color:#FFFFFF;stop-opacity:0"
    id="stop4155{$id}" /><stop
    offset="1"
    style="stop-color:#FFFFFF"
    id="stop4157{$id}" /></radialGradient><path
    d="M12.597,3.174c0,1.591-1.248,2.878-2.789,2.878c-1.54,0-2.788-1.287-2.788-2.878   c0-1.588,1.248-2.875,2.788-2.875C11.349,0.299,12.597,1.586,12.597,3.174z"
    id="path4159{$id}"
    fill="url(#SVGID_2_{$id})" /><path
    d="M12.597,3.174c0,1.591-1.248,2.878-2.789,2.878c-1.54,0-2.788-1.287-2.788-2.878   c0-1.588,1.248-2.875,2.788-2.875C11.349,0.299,12.597,1.586,12.597,3.174z"
    id="path4161{$id}"
    fill="none" /><path
    enable-background="new    "
    d="M10.771,1.303c0.042-0.037,0.126-0.029,0.221,0.014   c0.095,0.046,0.2,0.127,0.288,0.231c0.086,0.104,0.148,0.224,0.177,0.327c0.002,0.01,0.005,0.016,0.006,0.023   c0.021,0.097,0.019,0.175-0.023,0.212c-0.043,0.036-0.123,0.025-0.21-0.081c-0.022-0.03-0.047-0.065-0.074-0.103   c-0.031-0.045-0.065-0.099-0.105-0.149c-0.019-0.02-0.038-0.038-0.058-0.059c-0.023-0.029-0.051-0.056-0.076-0.08   c-0.035-0.037-0.066-0.069-0.091-0.1c-0.033-0.039-0.056-0.073-0.07-0.108C10.73,1.375,10.739,1.331,10.771,1.303z"
    id="path4163{$id}"
    fill="#FFFFFF"
    opacity="0.8" /><path
    enable-background="new    "
    d="M8.271,1.854c-0.016-0.02-0.013-0.056,0.005-0.099   C8.295,1.714,8.327,1.668,8.37,1.629c0.042-0.038,0.09-0.066,0.132-0.081c0.004,0,0.007,0,0.01-0.002   c0.04-0.01,0.072-0.009,0.086,0.011c0.015,0.02,0.011,0.056-0.032,0.093C8.553,1.661,8.539,1.671,8.523,1.683   c-0.019,0.015-0.04,0.03-0.06,0.047c-0.009,0.01-0.017,0.019-0.024,0.024C8.428,1.767,8.417,1.779,8.406,1.79   c-0.015,0.016-0.028,0.029-0.04,0.041C8.352,1.846,8.337,1.855,8.323,1.863C8.301,1.873,8.282,1.869,8.271,1.854z"
    id="path4165{$id}"
    fill="#FFFFFF"
    opacity="0.8" /></g><text
    font-size="8"
    id="text4167{$id}"
    x="0.99228162"
    y="11.334997"
    style="font-size:6.53437757px;font-family:Marujo;fill:#ffffff"
    transform="scale(1.019763,0.98062)">50</text>
<text
    font-size="8"
    id="text4169{$id}"
    x="6.6408825"
    y="5.6630874"
    style="font-size:8px;font-family:Marujo;fill:#ffffff">+</text>
</svg>