<?xml version="1.0" encoding="utf-8"?>
<!-- Generator: Adobe Illustrator 16.0.0, SVG Export Plug-In . SVG Version: 6.00 Build 0)  -->
<!DOCTYPE svg PUBLIC "-//W3C//DTD SVG 1.1//EN" "http://www.w3.org/Graphics/SVG/1.1/DTD/svg11.dtd">
<svg version="1.1" id="{$id}"
   class="burbuja burbuja_romper my_center invisible" xmlns="http://www.w3.org/2000/svg" xmlns:xlink="http://www.w3.org/1999/xlink" x="0px" y="0px"
	 width="73.701px" height="73.701px" viewBox="0 0 73.701 73.701" enable-background="new 0 0 73.701 73.701" xml:space="preserve">
<g>
	<g opacity="0.5">
		
			<radialGradient id="SVGID_1_{$id}" cx="-1042.0156" cy="-626.4541" r="17.6311" gradientTransform="matrix(-4.371139e-08 -1.0471 -1.3 5.949850e-08 -777.5177 -1054.2998)" gradientUnits="userSpaceOnUse">
			<stop  offset="0.6047" style="stop-color:#FFFFFF;stop-opacity:0"/>
			<stop  offset="1" style="stop-color:#FFFFFF"/>
		</radialGradient>
		<path fill="url(#SVGID_1_{$id})" d="M54.633,36.795c0,10.123-7.95,18.319-17.765,18.319c-9.811,0-17.758-8.196-17.758-18.319
			s7.947-18.32,17.758-18.32C46.682,18.475,54.633,26.672,54.633,36.795z"/>
		<path fill="none" d="M54.633,36.795c0,10.123-7.95,18.319-17.765,18.319c-9.811,0-17.758-8.196-17.758-18.319
			s7.947-18.32,17.758-18.32C46.682,18.475,54.633,26.672,54.633,36.795z"/>
		<path opacity="0.8" fill="#FFFFFF" enable-background="new    " d="M43.004,24.872c0.274-0.241,0.804-0.187,1.409,0.087
			c0.604,0.288,1.272,0.807,1.836,1.471c0.545,0.663,0.94,1.425,1.129,2.087c0.006,0.061,0.021,0.101,0.031,0.146
			c0.14,0.617,0.118,1.119-0.15,1.351c-0.274,0.23-0.782,0.161-1.332-0.514c-0.15-0.19-0.306-0.422-0.47-0.652
			c-0.206-0.288-0.427-0.634-0.682-0.951c-0.114-0.128-0.237-0.241-0.357-0.376c-0.156-0.185-0.328-0.354-0.485-0.512
			c-0.229-0.232-0.428-0.436-0.584-0.637c-0.208-0.249-0.354-0.462-0.447-0.682C42.746,25.333,42.802,25.046,43.004,24.872z"/>
		<path opacity="0.8" fill="#FFFFFF" enable-background="new    " d="M27.079,28.385c-0.1-0.121-0.076-0.353,0.033-0.623
			c0.115-0.271,0.325-0.563,0.596-0.816c0.271-0.242,0.574-0.422,0.845-0.51c0.021,0,0.042-0.006,0.06-0.012
			c0.253-0.062,0.458-0.059,0.55,0.062c0.095,0.12,0.068,0.353-0.209,0.594c-0.075,0.068-0.167,0.14-0.261,0.208
			c-0.118,0.099-0.258,0.195-0.387,0.307c-0.055,0.052-0.099,0.109-0.152,0.155c-0.075,0.075-0.145,0.156-0.209,0.226
			c-0.09,0.1-0.178,0.187-0.256,0.262c-0.098,0.092-0.188,0.154-0.272,0.2C27.267,28.5,27.151,28.478,27.079,28.385z"/>
	</g>
	<g opacity="0.5">
		<path fill="#FFFFFF" d="M36.526,16.88c-0.405,0-0.412-0.652-0.412-0.822c0,0,0.241-15.473,0.412-15.473
			c0.276,0,0.345,15.5,0.345,15.5C36.871,16.254,37.027,16.88,36.526,16.88z"/>
	</g>
	<g opacity="0.5">
		<path fill="#FFFFFF" d="M56.185,36.815c0-0.403,0.651-0.411,0.821-0.411c0,0,15.474,0.241,15.474,0.411
			c0,0.277-15.5,0.347-15.5,0.347C56.81,37.162,56.185,37.316,56.185,36.815z"/>
	</g>
	<g opacity="0.5">
		<path fill="#FFFFFF" d="M47.127,19.682c-0.139-0.104,0.057-0.367,0.106-0.434c0,0,4.75-6.106,4.81-6.062
			c0.095,0.071-4.56,6.27-4.56,6.27C47.434,19.521,47.298,19.811,47.127,19.682z"/>
	</g>
	<g opacity="0.5">
		<path fill="#FFFFFF" d="M54.637,27.306c-0.038-0.168,0.193-0.226,0.255-0.239c0,0,5.575-1.188,5.592-1.117
			c0.028,0.115-5.528,1.435-5.528,1.435C54.894,27.396,54.685,27.515,54.637,27.306z"/>
	</g>
	<g opacity="0.5">
		<path fill="#FFFFFF" d="M17.518,36.455c0,0.403-0.652,0.411-0.822,0.411c0,0-15.474-0.241-15.474-0.411
			c0-0.275,15.5-0.344,15.5-0.344C16.892,36.111,17.518,35.956,17.518,36.455z"/>
	</g>
	<g opacity="0.5">
		<path fill="#FFFFFF" d="M20.317,25.888c-0.104,0.137-0.366-0.057-0.433-0.106c0,0-6.106-4.735-6.062-4.794
			c0.071-0.096,6.27,4.544,6.27,4.544C20.156,25.582,20.447,25.717,20.317,25.888z"/>
	</g>
	<g opacity="0.5">
		<path fill="#FFFFFF" d="M27.941,18.401c-0.168,0.037-0.226-0.194-0.239-0.255c0,0-1.188-5.558-1.117-5.574
			c0.116-0.028,1.436,5.511,1.436,5.511C28.033,18.144,28.15,18.353,27.941,18.401z"/>
	</g>
	<g opacity="0.5">
		<path fill="#FFFFFF" d="M36.269,56.821c-0.405,0-0.412,0.651-0.412,0.821c0,0,0.241,15.474,0.412,15.474
			c0.276,0,0.345-15.5,0.345-15.5C36.613,57.448,36.77,56.821,36.269,56.821z"/>
	</g>
	<g opacity="0.5">
		<path fill="#FFFFFF" d="M46.868,54.021c-0.138,0.104,0.058,0.367,0.107,0.435c0,0,4.75,6.105,4.809,6.062
			c0.096-0.07-4.559-6.269-4.559-6.269C47.176,54.181,47.039,53.892,46.868,54.021z"/>
	</g>
	<g opacity="0.5">
		<path fill="#FFFFFF" d="M54.379,46.396c-0.038,0.168,0.193,0.227,0.255,0.239c0,0,5.575,1.189,5.591,1.117
			c0.029-0.115-5.527-1.434-5.527-1.434C54.637,46.306,54.428,46.188,54.379,46.396z"/>
	</g>
	<g opacity="0.5">
		<path fill="#FFFFFF" d="M20.06,47.814c-0.104-0.138-0.366,0.058-0.434,0.106c0,0-6.106,4.736-6.062,4.795
			c0.071,0.094,6.27-4.545,6.27-4.545C19.898,48.12,20.189,47.985,20.06,47.814z"/>
	</g>
	<g opacity="0.5">
		<path fill="#FFFFFF" d="M27.685,55.302c-0.168-0.039-0.227,0.193-0.239,0.254c0,0-1.188,5.559-1.118,5.574
			c0.117,0.027,1.437-5.512,1.437-5.512C27.775,55.558,27.894,55.35,27.685,55.302z"/>
	</g>
</g>
</svg>
