<?xml version="1.0" encoding="utf-8"?>
<!-- Generator: Adobe Illustrator 16.0.0, SVG Export Plug-In . SVG Version: 6.00 Build 0)  -->
<!DOCTYPE svg PUBLIC "-//W3C//DTD SVG 1.1//EN" "http://www.w3.org/Graphics/SVG/1.1/DTD/svg11.dtd">
<svg version="1.1" id="{$id}"
   class="gajotoronja fruta my_center" xmlns="http://www.w3.org/2000/svg" xmlns:xlink="http://www.w3.org/1999/xlink" x="0px" y="0px"
	 width="51.023px" height="62.361px" viewBox="0 0 51.023 62.361" enable-background="new 0 0 51.023 62.361" xml:space="preserve">
<path fill="#ED0F5F" d="M49.757,56.881c-4.896,3.054-10.517,4.057-16.753,4.057c-17.422,0-30.811-13.215-30.811-30.25
	c0-14.876,11.25-26.938,24.178-30.027L49.757,56.881z"/>
<path fill="#FFE600" d="M4.041,29.979C4.103,7.512,26.371,0.659,26.371,0.659C12.038,3.566,1.268,15.983,1.268,30.859
	c0,17.035,14.123,30.845,31.545,30.845c6.236,0,12.05-1.77,16.944-4.822c0,0-7.658,3.348-17.427,2.951
	C20.811,59.365,4.497,50.139,4.041,29.979z"/>
<path fill="#FFFFFF" d="M32.694,58.042c-0.793-0.103-1.681-0.248-2.634-0.446l8.709-27.129l-0.592-1.423L29.08,57.378
	c-4.681-1.104-10.661-3.45-15.374-8.033L38.076,28.8l-1.112-2.673L9.608,14.801C15.489,4.252,26.371,0.659,26.371,0.659
	S4.103,7.513,4.041,29.979c0.456,20.159,16.77,29.386,28.289,29.854c9.769,0.396,17.427-2.951,17.427-2.951
	S41.552,59.179,32.694,58.042z M37.452,28.019l-24.45,20.612c-3.501-3.682-6.173-8.708-6.873-15.521
	c0.005,0,0.009,0.002,0.013,0.002c0.027,0,0.054-0.002,0.081-0.006L37.452,28.019z M9.139,15.689l27.61,11.432l-30.688,5
	c-0.012,0.002-0.02,0.009-0.031,0.012c-0.044-0.61-0.073-1.232-0.087-1.87C5.828,24.398,7.139,19.597,9.139,15.689z"/>
<ellipse transform="matrix(0.6893 -0.7245 0.7245 0.6893 -5.9797 30.8748)" fill="#FF97C1" cx="33.004" cy="22.408" rx="0.402" ry="2.236"/>
<ellipse transform="matrix(0.6893 -0.7245 0.7245 0.6893 -3.2198 24.1574)" fill="#FF97C1" cx="26.552" cy="15.832" rx="0.402" ry="2.236"/>
<ellipse transform="matrix(0.0681 -0.9977 0.9977 0.0681 1.7936 54.4157)" fill="#FF97C1" cx="30.024" cy="26.248" rx="0.402" ry="2.237"/>
<ellipse transform="matrix(-0.2611 -0.9653 0.9653 -0.2611 10.8731 68.8462)" fill="#FF97C1" cx="31.787" cy="30.261" rx="0.402" ry="2.236"/>
<ellipse transform="matrix(-0.2616 -0.9652 0.9652 -0.2616 -3.0969 65.7728)" fill="#FF97C1" cx="23.612" cy="34.071" rx="0.403" ry="2.236"/>
<ellipse transform="matrix(-0.164 -0.9865 0.9865 -0.164 -0.8486 61.2052)" fill="#FF97C1" cx="25.51" cy="30.962" rx="0.402" ry="2.236"/>
<ellipse transform="matrix(-0.5491 -0.8358 0.8358 -0.5491 13.5804 76.8763)" fill="#FF97C1" cx="27.529" cy="34.775" rx="0.402" ry="2.236"/>
<ellipse transform="matrix(-0.8143 -0.5804 0.5804 -0.8143 43.0867 81.9284)" fill="#FF97C1" cx="34.649" cy="34.072" rx="0.403" ry="2.236"/>
<ellipse transform="matrix(-0.9992 0.0412 -0.0412 -0.9992 79.8418 71.9028)" fill="#FF97C1" cx="39.18" cy="36.774" rx="0.403" ry="2.236"/>
<path fill="#FF97C1" d="M39.705,43.426c0.223-0.011,0.443,0.982,0.496,2.215c0.051,1.236-0.088,2.244-0.31,2.254
	c-0.223,0.008-0.442-0.982-0.495-2.219C39.347,44.441,39.483,43.434,39.705,43.426z"/>
<ellipse transform="matrix(-0.9843 -0.1768 0.1768 -0.9843 65.7893 89.8882)" fill="#FF97C1" cx="36.898" cy="42.014" rx="0.403" ry="2.236"/>
<ellipse transform="matrix(-0.9429 0.3329 -0.3329 -0.9429 97.0336 69.9468)" fill="#FF97C1" cx="42.524" cy="43.287" rx="0.402" ry="2.235"/>
<ellipse transform="matrix(-0.8143 -0.5804 0.5804 -0.8143 27.7621 92.9125)" fill="#FF97C1" cx="28.743" cy="42.015" rx="0.403" ry="2.237"/>
<ellipse transform="matrix(-0.7113 -0.7029 0.7029 -0.7113 23.2288 85.2985)" fill="#FF97C1" cx="29.131" cy="37.879" rx="0.403" ry="2.236"/>
<ellipse transform="matrix(-0.8697 -0.4935 0.4935 -0.8697 41.6438 92.2857)" fill="#FF97C1" cx="33.002" cy="40.647" rx="0.404" ry="2.236"/>
<ellipse transform="matrix(0.068 -0.9977 0.9977 0.068 -4.9545 45.4743)" fill="#FF97C1" cx="21.862" cy="25.389" rx="0.402" ry="2.236"/>
<ellipse transform="matrix(0.1992 -0.98 0.98 0.1992 -2.8275 44.4888)" fill="#FF97C1" cx="25.806" cy="23.974" rx="0.402" ry="2.236"/>
<ellipse transform="matrix(-0.0194 -0.9998 0.9998 -0.0194 -2.0902 52.9261)" fill="#FF97C1" cx="24.908" cy="27.488" rx="0.402" ry="2.236"/>
<ellipse transform="matrix(0.4627 -0.8865 0.8865 0.4627 -3.1819 34.5315)" fill="#FF97C1" cx="26.898" cy="19.891" rx="0.401" ry="2.236"/>
<ellipse transform="matrix(0.8496 -0.5275 0.5275 0.8496 -4.1741 18.7904)" fill="#FF97C1" cx="30.856" cy="16.713" rx="0.402" ry="2.236"/>
</svg>
