<?xml version="1.0" encoding="utf-8"?>
<!-- Generator: Adobe Illustrator 16.0.0, SVG Export Plug-In . SVG Version: 6.00 Build 0)  -->
<!DOCTYPE svg PUBLIC "-//W3C//DTD SVG 1.1//EN" "http://www.w3.org/Graphics/SVG/1.1/DTD/svg11.dtd">
<svg version="1.1" id="{$id}"
   class="gajotoronja fruta my_center" xmlns="http://www.w3.org/2000/svg" xmlns:xlink="http://www.w3.org/1999/xlink" x="0px" y="0px"
	 width="51.024px" height="62.362px" viewBox="0 0 51.024 62.362" enable-background="new 0 0 51.024 62.362" xml:space="preserve">
<g>
	<path fill="#ED0F5F" d="M49.757,56.881c-4.895,3.054-10.517,4.057-16.753,4.057c-17.422,0-30.81-13.215-30.81-30.25
		c0-14.876,11.25-26.938,24.177-30.028L49.757,56.881z"/>
	<path fill="#F7C90D" d="M4.041,29.979c0.062-22.467,22.33-29.32,22.33-29.32C12.038,3.566,1.268,15.983,1.268,30.859
		c0,17.035,14.123,30.844,31.545,30.844c6.236,0,12.05-1.769,16.944-4.822c0,0-7.658,3.348-17.427,2.951
		C20.811,59.364,4.497,50.139,4.041,29.979z"/>
	<path fill="#FFFFFF" d="M32.694,58.042c-0.793-0.102-1.681-0.248-2.634-0.446l8.709-27.129l-0.592-1.423l-9.097,28.334
		c-4.68-1.103-10.661-3.45-15.374-8.033L38.076,28.8l-1.112-2.673L9.608,14.801C15.489,4.252,26.371,0.659,26.371,0.659
		S4.103,7.513,4.041,29.979c0.456,20.159,16.77,29.385,28.289,29.853c9.769,0.396,17.427-2.951,17.427-2.951
		S41.552,59.179,32.694,58.042z M37.452,28.019l-24.45,20.612c-3.501-3.682-6.173-8.708-6.873-15.52
		c0.005,0,0.009,0.002,0.013,0.002c0.027,0,0.054-0.002,0.081-0.006L37.452,28.019z M9.139,15.689l27.61,11.431l-30.687,5
		c-0.012,0.002-0.02,0.009-0.031,0.012c-0.044-0.61-0.074-1.232-0.087-1.87C5.828,24.398,7.139,19.597,9.139,15.689z"/>
	
		<ellipse transform="matrix(0.7249 0.6889 -0.6889 0.7249 24.5149 -16.5709)" fill="#FF97C1" cx="33.004" cy="22.407" rx="2.236" ry="0.402"/>
	
		<ellipse transform="matrix(0.7249 0.6889 -0.6889 0.7249 18.21 -13.9361)" fill="#FF97C1" cx="26.553" cy="15.831" rx="2.236" ry="0.402"/>
	
		<ellipse transform="matrix(0.9977 0.0682 -0.0682 0.9977 1.861 -1.9874)" fill="#FF97C1" cx="30.022" cy="26.248" rx="2.236" ry="0.402"/>
	
		<ellipse transform="matrix(0.9653 -0.261 0.261 0.9653 -6.7972 9.3472)" fill="#FF97C1" cx="31.789" cy="30.261" rx="2.236" ry="0.402"/>
	
		<ellipse transform="matrix(0.9653 -0.2611 0.2611 0.9653 -8.0778 7.3485)" fill="#FF97C1" cx="23.613" cy="34.07" rx="2.236" ry="0.403"/>
	
		<ellipse transform="matrix(0.9864 -0.1641 0.1641 0.9864 -4.7356 4.6068)" fill="#FF97C1" cx="25.512" cy="30.963" rx="2.236" ry="0.402"/>
	
		<ellipse transform="matrix(0.8359 -0.5489 0.5489 0.8359 -14.5694 20.8196)" fill="#FF97C1" cx="27.529" cy="34.772" rx="2.236" ry="0.402"/>
	
		<ellipse transform="matrix(0.5807 -0.8141 0.8141 0.5807 -13.2087 42.4951)" fill="#FF97C1" cx="34.649" cy="34.07" rx="2.236" ry="0.403"/>
	
		<ellipse transform="matrix(-0.0419 -0.9991 0.9991 -0.0419 4.083 77.4602)" fill="#FF97C1" cx="39.181" cy="36.772" rx="2.236" ry="0.403"/>
	<path fill="#FF97C1" d="M39.705,43.426c0.223-0.011,0.444,0.982,0.496,2.215c0.051,1.236-0.087,2.244-0.309,2.254
		c-0.223,0.008-0.443-0.983-0.495-2.219C39.347,44.441,39.483,43.434,39.705,43.426z"/>
	
		<ellipse transform="matrix(0.1768 -0.9842 0.9842 0.1768 -10.976 70.9034)" fill="#FF97C1" cx="36.901" cy="42.014" rx="2.236" ry="0.403"/>
	
		<ellipse transform="matrix(-0.3334 -0.9428 0.9428 -0.3334 15.8889 97.8104)" fill="#FF97C1" cx="42.523" cy="43.288" rx="2.236" ry="0.402"/>
	
		<ellipse transform="matrix(0.5807 -0.8141 0.8141 0.5807 -22.1519 41.0183)" fill="#FF97C1" cx="28.744" cy="42.014" rx="2.236" ry="0.403"/>
	
		<ellipse transform="matrix(0.7026 -0.7116 0.7116 0.7026 -18.2924 31.9932)" fill="#FF97C1" cx="29.13" cy="37.881" rx="2.236" ry="0.403"/>
	
		<ellipse transform="matrix(0.4932 -0.8699 0.8699 0.4932 -18.635 49.3082)" fill="#FF97C1" cx="33.003" cy="40.648" rx="2.236" ry="0.404"/>
	
		<ellipse transform="matrix(0.9977 0.0682 -0.0682 0.9977 1.7834 -1.4325)" fill="#FF97C1" cx="21.86" cy="25.389" rx="2.236" ry="0.402"/>
	
		<ellipse transform="matrix(0.98 0.1989 -0.1989 0.98 5.285 -4.6543)" fill="#FF97C1" cx="25.806" cy="23.975" rx="2.236" ry="0.402"/>
	
		<ellipse transform="matrix(0.9998 -0.0185 0.0185 0.9998 -0.5031 0.4644)" fill="#FF97C1" cx="24.908" cy="27.49" rx="2.236" ry="0.402"/>
	
		<ellipse transform="matrix(0.8864 0.4629 -0.4629 0.8864 12.2619 -10.1917)" fill="#FF97C1" cx="26.899" cy="19.891" rx="2.236" ry="0.401"/>
	
		<ellipse transform="matrix(0.5277 0.8494 -0.8494 0.5277 28.7703 -18.3159)" fill="#FF97C1" cx="30.856" cy="16.714" rx="2.236" ry="0.402"/>
</g>
</svg>
