<?xml version="1.0" encoding="utf-8"?>
<!-- Generator: Adobe Illustrator 16.0.0, SVG Export Plug-In . SVG Version: 6.00 Build 0)  -->
<!DOCTYPE svg PUBLIC "-//W3C//DTD SVG 1.1//EN" "http://www.w3.org/Graphics/SVG/1.1/DTD/svg11.dtd">
<svg version="1.1" id="{$id}"
   class="pera fruta my_center" xmlns="http://www.w3.org/2000/svg" xmlns:xlink="http://www.w3.org/1999/xlink" x="0px" y="0px"
	 width="65.196px" height="76.535px" viewBox="0 0 65.196 76.535" enable-background="new 0 0 65.196 76.535" xml:space="preserve">
<g>
	<g>
		<g>
			<path fill="#CFE548" d="M32.647,75.845c-0.016,0-0.031-0.001-0.047-0.001c-0.018,0-0.035,0.001-0.051,0.001H32.647z"/>
			<path fill="#CFE548" d="M55.837,53.653c0-4.55-1.439-8.779-3.902-12.3c-0.297-0.578-0.756-1.188-1.43-1.832
				c-0.371-0.429-0.762-0.838-1.166-1.238c-4.215-4.907-4.143-10.611-4.113-11.368c0-0.029,0.004-0.058,0.004-0.086
				c0-7.004-5.594-12.681-12.496-12.681h-0.268c-6.902,0-12.498,5.677-12.498,12.681c0,0.028,0.004,0.057,0.004,0.086
				c0.031,0.757,0.102,6.461-4.113,11.368c-0.402,0.4-0.795,0.81-1.166,1.238c-0.674,0.644-1.133,1.254-1.428,1.832
				c-2.465,3.521-3.906,7.75-3.906,12.3c0,12.24,10.4,22.165,23.242,22.19C45.438,75.818,55.837,65.894,55.837,53.653z"/>
		</g>
	</g>
	
		<ellipse transform="matrix(0.9007 0.4344 -0.4344 0.9007 22.7618 -3.9788)" fill="#E9F484" cx="20.085" cy="47.804" rx="5.059" ry="7.451"/>
	<g>
		<g>
			<path fill="#CFE548" d="M32.647,75.845c-0.016,0-0.031-0.001-0.047-0.001c-0.018,0-0.035,0.001-0.051,0.001H32.647z"/>
			<g>
				<path fill="#D0D83A" d="M55.718,55.919c-1.189,11.176-11.08,19.9-23.117,19.925c-12.842-0.025-23.242-9.95-23.242-22.19
					c0-0.711,0.035-1.416,0.105-2.11c0,0,2.115,15.191,14.795,19.55c12.676,4.357,18.365,0.25,23.004-3.248
					C52.767,63.693,55.718,55.919,55.718,55.919z"/>
			</g>
		</g>
	</g>
	<ellipse fill="#D0D83A" cx="32.957" cy="17.145" rx="4.286" ry="1.533"/>
	<path fill="#93624A" d="M29.062,2.306c0,0-0.387-1.259,1.379-1.56c2.195-0.374,2.125,1.242,2.125,1.242l0.934,15.26
		c0,0-0.408,0.615-0.764,0.085C32.673,17.242,32.265,16.383,29.062,2.306z"/>
	<path fill="#90C632" d="M41.743,3.763c0,0-5.697,0-7.986,4.244s-0.783,9.941-0.783,9.941s5.027-1.284,8.77-5.306
		C45.483,8.621,41.743,3.763,41.743,3.763z"/>
	<path fill="#A5E24D" d="M32.974,17.948c0,0-1.506-5.697,0.783-9.941s7.986-4.244,7.986-4.244L32.974,17.948z"/>
</g>
</svg>
