<?xml version="1.0" encoding="utf-8"?>
<!-- Generator: Adobe Illustrator 16.0.0, SVG Export Plug-In . SVG Version: 6.00 Build 0)  -->
<!DOCTYPE svg PUBLIC "-//W3C//DTD SVG 1.1//EN" "http://www.w3.org/Graphics/SVG/1.1/DTD/svg11.dtd">
<svg version="1.1" id="{$id}"
   class="platano fruta my_center" xmlns="http://www.w3.org/2000/svg" xmlns:xlink="http://www.w3.org/1999/xlink" x="0px" y="0px"
	 width="65.196px" height="76.535px" viewBox="0 0 65.196 76.535" enable-background="new 0 0 65.196 76.535" xml:space="preserve">
<g>
	<path fill="#FCE456" d="M18.74,14.092c-1.75,6.771-2.675,17.508,9.85,30.208s20.335,11.662,29.399,10.873
		c1.072-0.094,4.175-0.523,5.145,1.825c1.017,2.46,0.572,5.915-2.449,8.264c-3.598,2.798-30.826,16.263-48.707-8.437
		c-20.793-28.724-4.709-43.277-0.521-45.751c2.637-1.56,3.305,0.261,4.521-0.783c0,0,0.049,0.919,1.077,2.174
		C18.082,13.721,18.74,14.092,18.74,14.092z"/>
	<path fill="#E5B839" d="M13.104,10.44c-0.452,0.064-0.989,0.243-1.647,0.633c-4.188,2.474-20.271,17.027,0.521,45.751
		c17.881,24.7,45.109,11.234,48.707,8.437c1.564-1.216,2.438-2.729,2.776-4.247c0,0-18.692,8.422-35.219-4.277
		C11.717,44.039,10.049,27.232,10.062,19.25C10.072,14.686,13.104,10.44,13.104,10.44z"/>
	<path fill="#DFEA75" d="M18.74,14.092c0.402-1.56,2.325-4.363,3.604-5.345c0.418-0.322,1.2-0.89,1.172-1.936
		c-0.019-0.642-1.003-0.664-1.37-0.853c-0.44-0.227-0.964-0.931-1.777-0.854c-0.813,0.078-1.016,0.788-1.201,1.162
		c-0.574,1.147-1.971,2.98-3.189,4.024c0,0-0.195,0.103,0.131,0.951s1.68,2.381,2.201,2.74C18.637,14.165,18.74,14.092,18.74,14.092
		z"/>
</g>
</svg>
